<?xml version="1.0" standalone="no"?>
<!DOCTYPE svg PUBLIC "-//W3C//DTD SVG 1.1//EN" "http://www.w3.org/Graphics/SVG/1.1/DTD/svg11.dtd" >
<svg xmlns="http://www.w3.org/2000/svg">
<metadata>
Created by FontPrep 20130207 at Tue Mar 10 13:13:15 2015
 By Joseba Alonso
Digitized data copyright (c) 2010-2011, Google Corporation.
</metadata>
<defs>
<font id="09be4bfe8975a657af6444a6f1d73848" horiz-adv-x='1024' >
  <font-face 
    font-family="OpenSans-Light"
    font-weight="300"
    font-stretch="normal"
    units-per-em="2048"
    panose-1="2 11 3 6 3 5 4 2 2 4"
    ascent="1638"
    descent="-410"
    x-height="1087"
    cap-height="1462"
    bbox="-1067 -551 2335 2146"
    underline-thickness="102"
    underline-position="-103"
    unicode-range="U+0020-FFFD"
  />
<missing-glyph horiz-adv-x="1229" 
d="M297 104h633v1254h-633v-1254zM193 1462h841v-1462h-841v1462z" />
    <glyph glyph-name="ff" unicode="ff" horiz-adv-x="1229" 
d="M586 1001h-256v-1001h-99v1001h-202v58l202 37v84q-1 200 73 294t241 93q90 0 180 -27l-23 -86q-80 25 -159 25q-117 -1 -165 -69t-48 -222v-101h256v-86zM1200 1001h-256v-1001h-99v1001h-202v58l202 37v84q-1 200 73 294t241 93q90 0 180 -27l-23 -86q-80 25 -159 25
q-117 -1 -165 -69t-48 -222v-101h256v-86z" />
    <glyph glyph-name="uniFB01" unicode="fi" horiz-adv-x="1077" 
d="M586 1001h-256v-1001h-99v1001h-202v58l202 37v84q-1 200 73 294t241 93q90 0 180 -27l-23 -86q-80 25 -159 25q-117 -1 -165 -69t-48 -222v-101h256v-86zM845 1292q-63 0 -63 96t64 97q64 0 65 -96q1 -45 -17 -71t-49 -26zM895 0h-99v1087h99v-1087z" />
    <glyph glyph-name="uniFB02" unicode="fl" horiz-adv-x="1077" 
d="M586 1001h-256v-1001h-99v1001h-202v58l202 37v84q-1 200 73 294t241 93q90 0 180 -27l-23 -86q-80 25 -159 25q-117 -1 -165 -69t-48 -222v-101h256v-86zM895 0h-99v1556h99v-1556z" />
    <glyph glyph-name="uniFB03" unicode="ffi" horiz-adv-x="1692" 
d="M586 1001h-256v-1001h-99v1001h-202v58l202 37v84q-1 200 73 294t241 93q90 0 180 -27l-23 -86q-80 25 -159 25q-117 -1 -165 -69t-48 -222v-101h256v-86zM1200 1001h-256v-1001h-99v1001h-202v58l202 37v84q-1 200 73 294t241 93q90 0 180 -27l-23 -86q-80 25 -159 25
q-117 -1 -165 -69t-48 -222v-101h256v-86zM1460 1292q-63 0 -63 96q1 96 65 97q64 0 64 -96q0 -45 -18 -71t-48 -26zM1510 0h-99v1087h99v-1087z" />
    <glyph glyph-name="uniFB04" unicode="ffl" horiz-adv-x="1692" 
d="M586 1001h-256v-1001h-99v1001h-202v58l202 37v84q-1 200 73 294t241 93q90 0 180 -27l-23 -86q-80 25 -159 25q-117 -1 -165 -69t-48 -222v-101h256v-86zM1200 1001h-256v-1001h-99v1001h-202v58l202 37v84q-1 200 73 294t241 93q90 0 180 -27l-23 -86q-80 25 -159 25
q-117 -1 -165 -69t-48 -222v-101h256v-86zM1510 0h-99v1556h99v-1556z" />
    <glyph glyph-name=".notdef" horiz-adv-x="1229" 
d="M297 104h633v1254h-633v-1254zM193 1462h841v-1462h-841v1462z" />
    <glyph glyph-name=".null" horiz-adv-x="0" 
 />
    <glyph glyph-name="nonmarkingreturn" horiz-adv-x="1044" 
 />
    <glyph glyph-name="space" unicode=" " horiz-adv-x="532" 
 />
    <glyph glyph-name="exclam" unicode="!" horiz-adv-x="492" 
d="M164 78q0 98 81 98t81 -98t-81 -98t-81 98zM276 377h-61l-29 1085h119z" />
    <glyph glyph-name="quotedbl" unicode="&#x22;" horiz-adv-x="723" 
d="M590 1462l-33 -528h-61l-33 528h127zM260 1462l-33 -528h-61l-33 528h127z" />
    <glyph glyph-name="numbersign" unicode="#" horiz-adv-x="1323" 
d="M440 530h363l78 398h-363zM1194 530v-79h-320l-86 -451h-90l88 451h-360l-86 -451h-88l86 451h-283v79h299l76 398h-297v80h311l86 454h91l-89 -454h365l88 454h86l-88 -454h285v-80h-301l-76 -398h303z" />
    <glyph glyph-name="dollar" unicode="$" 
d="M297 1048q0 -84 57 -139.5t183 -93.5v453q-119 -16 -179.5 -76t-60.5 -144zM881 438q0 92 -63 147t-200 95v-471q122 13 192.5 75t70.5 154zM991 436q0 -130 -99 -213.5t-274 -105.5v-236h-81v232q-92 2 -200.5 22.5t-172.5 50.5v103q75 -36 179.5 -61t193.5 -25v508
q-145 44 -247 108t-102 230q0 124 94.5 208.5t254.5 104.5v192h81v-190q197 -9 351 -72l-33 -90q-141 62 -318 72v-486q213 -66 293 -144t80 -208z" />
    <glyph glyph-name="percent" unicode="%" horiz-adv-x="1653" 
d="M1280 1462l-811 -1462h-96l811 1462h96zM1540 434q0 -222 -74 -339.5t-212 -117.5t-213.5 121.5t-75.5 343.5t73.5 337.5t211.5 115.5t214 -119.5t76 -341.5zM1063 438q0 -370 186 -370q193 0 193 370t-193 369q-96 0 -141 -91.5t-45 -277.5zM688 1021q0 -221 -75 -338.5
t-212 -117.5t-212.5 120.5t-75.5 342.5t71.5 338.5t211.5 116.5t216 -120.5t76 -341.5zM397 1395q-186 0 -186 -371t186 -371q193 0 193 371t-193 371z" />
    <glyph glyph-name="ampersand" unicode="&#x26;" horiz-adv-x="1460" 
d="M373 1188q0 -91 40 -158t152 -174q159 85 221 159.5t62 168.5t-62 152.5t-172 58.5t-175.5 -58t-65.5 -149zM560 70q146 0 252.5 43.5t209.5 146.5l-483 485q-136 -72 -224 -145.5t-88 -220.5t93.5 -228t239.5 -81zM123 371q0 138 73.5 235t274.5 205l-75 82
q-130 140 -130 282t95.5 226t253.5 84t248.5 -81t90.5 -224q0 -105 -70 -192.5t-253 -194.5l452 -457q119 140 179 358h96q-63 -246 -209 -426l266 -268h-135l-193 197q-92 -90 -202 -153.5t-317 -63.5q-206 0 -325.5 103t-119.5 288z" />
    <glyph glyph-name="quotesingle" unicode="'" horiz-adv-x="393" 
d="M260 1462l-33 -528h-61l-33 528h127z" />
    <glyph glyph-name="parenleft" unicode="(" horiz-adv-x="557" 
d="M82 563q0 263 77.5 494t223.5 405h113q-148 -182 -227 -412.5t-79 -486.5q0 -483 304 -887h-111q-147 170 -224 397t-77 490z" />
    <glyph glyph-name="parenright" unicode=")" horiz-adv-x="557" 
d="M475 561q0 -263 -77.5 -490t-223.5 -395h-111q304 404 304 887q0 257 -79 487.5t-227 411.5h113q147 -175 224 -406.5t77 -494.5z" />
    <glyph glyph-name="asterisk" unicode="*" horiz-adv-x="1128" 
d="M631 1556l-37 -405l405 104l21 -131l-395 -39l247 -340l-124 -71l-191 379l-180 -379l-125 71l242 340l-390 39l19 131l401 -104l-39 405h146z" />
    <glyph glyph-name="plus" unicode="+" 
d="M625 764h434v-82h-434v-432h-82v432h-432v82h432v434h82v-434z" />
    <glyph glyph-name="comma" unicode="," horiz-adv-x="440" 
d="M295 238l12 -21q-75 -265 -174 -481h-65q77 275 110 502h117z" />
    <glyph glyph-name="hyphen" unicode="-" horiz-adv-x="659" 
d="M92 512v82h475v-82h-475z" />
    <glyph glyph-name="period" unicode="." horiz-adv-x="487" 
d="M162 78q0 98 81 98t81 -98t-81 -98t-81 98z" />
    <glyph glyph-name="slash" unicode="/" horiz-adv-x="698" 
d="M674 1462l-545 -1462h-104l544 1462h105z" />
    <glyph glyph-name="zero" unicode="0" 
d="M223 727q0 -657 359 -657q189 0 275.5 168t86.5 494t-86.5 494.5t-275.5 168.5t-274 -168t-85 -500zM1055 727q0 -747 -473 -747q-229 0 -348 190.5t-119 568.5t115.5 562t349.5 184t354.5 -190.5t120.5 -567.5z" />
    <glyph glyph-name="one" unicode="1" 
d="M682 0h-98v1065q0 145 12 301q-15 -15 -31 -29t-309 -243l-57 71l397 297h86v-1462z" />
    <glyph glyph-name="two" unicode="2" 
d="M1028 0h-915v88l389 406q164 170 261 302.5t97 301.5q0 131 -86 213t-223 82q-183 0 -350 -133l-54 69q183 154 390 154t316.5 -102t109.5 -264t-73.5 -297.5t-268.5 -334.5l-375 -385v-4h782v-96z" />
    <glyph glyph-name="three" unicode="3" 
d="M979 1118q0 -136 -85.5 -229t-229.5 -119v-6q176 -22 268 -112t92 -242q0 -205 -140 -317.5t-382 -112.5t-408 83v99q84 -44 188.5 -69t196.5 -25q221 0 332 89.5t111 243.5q0 310 -447 310h-158v96h160q182 0 288.5 86.5t106.5 221.5t-87 208.5t-211 73.5t-214 -30.5
t-202 -104.5l-49 67q85 71 205 112.5t243 41.5q202 0 312 -95.5t110 -269.5z" />
    <glyph glyph-name="four" unicode="4" 
d="M795 459v418q0 302 14 507h-8q-20 -37 -123 -188l-516 -737h633zM1141 373h-252v-373h-94v373h-752v67l725 1030h121v-1011h252v-86z" />
    <glyph glyph-name="five" unicode="5" 
d="M520 -20q-240 0 -377 83v103q108 -55 192 -76.5t179 -21.5q192 0 308 101.5t116 269.5t-113 261t-307 93q-130 0 -272 -39l-60 39l58 669h704v-96h-610l-45 -516q156 29 244 29q234 0 368.5 -112.5t134.5 -324.5t-140 -337t-380 -125z" />
    <glyph glyph-name="six" unicode="6" 
d="M610 68q164 0 255 103t91 283t-90 273.5t-245 93.5q-102 0 -189.5 -45t-139.5 -119.5t-52 -168.5t49.5 -197t134 -163t186.5 -60zM612 903q216 0 331.5 -117t115.5 -332t-121.5 -344.5t-335.5 -129.5t-342.5 170t-128.5 464t115 582.5t526 288.5q94 0 172 -23v-88
q-73 27 -176 27q-247 0 -384.5 -178t-154.5 -518h13q154 198 370 198z" />
    <glyph glyph-name="seven" unicode="7" 
d="M109 1366v96h946v-73l-604 -1389h-117l602 1366h-827z" />
    <glyph glyph-name="eight" unicode="8" 
d="M582 1397q-144 0 -229 -69.5t-85 -195.5t91 -192.5t231 -124.5q163 63 234 139t71 190t-84.5 183.5t-228.5 69.5zM223 356q0 -134 93.5 -210t259.5 -76t266 80.5t100 211.5t-78.5 208.5t-302.5 162.5q-184 -71 -261 -157t-77 -220zM121 375q0 262 340 399
q-161 76 -227 160t-66 196t53 191.5t148.5 122.5t212.5 43q186 0 299.5 -95t113.5 -257q0 -112 -70.5 -198t-228.5 -159q192 -79 270 -173t78 -228q0 -181 -126.5 -289t-343.5 -108t-335 101t-118 294z" />
    <glyph glyph-name="nine" unicode="9" 
d="M559 1397q-158 0 -252 -106.5t-94 -286.5t87 -269.5t249 -89.5q101 0 188.5 45t139 119.5t51.5 171.5t-46.5 199t-130 159.5t-192.5 57.5zM541 563q-203 0 -316.5 112t-113.5 325t124.5 349t323.5 136q144 0 252 -75.5t166.5 -221.5t58.5 -390t-111.5 -531t-533.5 -287
q-104 0 -192 26v86q89 -29 196 -29q247 0 387 178.5t156 520.5h-12q-73 -96 -174 -147.5t-211 -51.5z" />
    <glyph glyph-name="colon" unicode=":" horiz-adv-x="487" 
d="M162 971q0 98 81 98t81 -98q0 -53 -24 -76t-58 -23t-57 23t-23 76zM162 78q0 98 81 98t81 -98t-81 -98t-81 98z" />
    <glyph glyph-name="semicolon" unicode=";" horiz-adv-x="487" 
d="M162 971q0 98 81 98t81 -98q0 -53 -24 -76t-58 -23t-57 23t-23 76zM76 -264q75 252 110 502h117l12 -21q-75 -265 -174 -481h-65z" />
    <glyph glyph-name="less" unicode="&#x3c;" 
d="M1059 266l-948 416v61l948 474v-95l-823 -405l823 -355v-96z" />
    <glyph glyph-name="equal" unicode="=" 
d="M111 477v82h948v-82h-948zM111 885v82h948v-82h-948z" />
    <glyph glyph-name="greater" unicode="&#x3e;" 
d="M111 362l823 355l-823 405v95l948 -474v-61l-948 -416v96z" />
    <glyph glyph-name="question" unicode="?" horiz-adv-x="862" 
d="M260 78q0 98 81 98t81 -98t-81 -98t-81 98zM386 1397q-141 0 -292 -74l-37 80q110 48 184.5 64t153.5 16q183 0 288 -98.5t105 -268.5t-96.5 -255t-156.5 -135t-94.5 -95t-50 -94t-15.5 -146v-14h-82v37q0 123 37.5 201t138.5 167l91 79q72 61 103 121t31 138
q0 127 -83.5 202t-224.5 75z" />
    <glyph glyph-name="at" unicode="@" horiz-adv-x="1815" 
d="M633 604q0 -158 55 -229.5t174 -71.5q255 0 273 346l16 291q-79 27 -193 27q-149 0 -237 -102.5t-88 -260.5zM846 -106q190 0 420 88v-99q-203 -80 -414 -80q-349 0 -544 200.5t-195 557.5q0 256 108.5 460.5t307.5 317.5t431 113t397.5 -89t255 -254.5t89.5 -388.5
t-90.5 -361t-245.5 -138q-89 0 -144.5 54t-64.5 147h-4q-86 -201 -313 -201q-148 0 -229 96.5t-81 284.5t120.5 316.5t314.5 128.5q138 0 286 -41l-22 -464v-30q0 -104 35 -156.5t116 -52.5q103 0 168.5 116.5t65.5 306.5t-79 336.5t-225.5 225t-355.5 78.5t-384.5 -99.5
t-270 -281.5t-94.5 -418q0 -322 167 -497.5t474 -175.5z" />
    <glyph glyph-name="A" unicode="A" horiz-adv-x="1229" 
d="M354 608h523l-199 527q-25 62 -60 172q-27 -96 -59 -174zM911 516h-594l-204 -516h-113l588 1468h65l576 -1468h-115z" />
    <glyph glyph-name="B" unicode="B" horiz-adv-x="1284" 
d="M309 721v-631h344q406 0 406 330q0 301 -428 301h-322zM309 811h322q206 0 299.5 68.5t93.5 214.5t-105.5 212t-314.5 66h-295v-561zM207 1462h401q271 0 398 -92t127 -278q0 -127 -77.5 -211.5t-226.5 -108.5v-6q175 -26 257.5 -110.5t82.5 -235.5q0 -202 -134 -311
t-380 -109h-448v1462z" />
    <glyph glyph-name="C" unicode="C" horiz-adv-x="1272" 
d="M831 1391q-275 0 -433 -175.5t-158 -485.5t149 -483t426 -173q184 0 338 47v-90q-145 -51 -362 -51q-308 0 -485 199t-177 556q0 223 84.5 393t243 262.5t370.5 92.5t381 -80l-41 -92q-160 80 -336 80z" />
    <glyph glyph-name="D" unicode="D" horiz-adv-x="1446" 
d="M1206 741q0 314 -159.5 472.5t-468.5 158.5h-269v-1282h242q655 0 655 651zM1317 736q0 -360 -193 -548t-567 -188h-350v1462h395q350 0 532.5 -183t182.5 -543z" />
    <glyph glyph-name="E" unicode="E" horiz-adv-x="1130" 
d="M1006 0h-799v1462h799v-94h-697v-553h658v-94h-658v-627h697v-94z" />
    <glyph glyph-name="F" unicode="F" horiz-adv-x="1028" 
d="M309 0h-102v1462h801v-94h-699v-620h660v-95h-660v-653z" />
    <glyph glyph-name="G" unicode="G" horiz-adv-x="1481" 
d="M782 737h539v-667q-212 -90 -477 -90q-346 0 -530.5 195.5t-184.5 553.5q0 223 91.5 395.5t262 266.5t400.5 94t420 -88l-41 -92q-190 88 -394 88q-289 0 -458.5 -178.5t-169.5 -494.5t161 -483t473 -167q202 0 343 57v514h-435v96z" />
    <glyph glyph-name="H" unicode="H" horiz-adv-x="1473" 
d="M1266 0h-103v719h-854v-719h-102v1462h102v-649h854v649h103v-1462z" />
    <glyph glyph-name="I" unicode="I" horiz-adv-x="516" 
d="M207 0v1462h102v-1462h-102z" />
    <glyph glyph-name="J" unicode="J" horiz-adv-x="506" 
d="M-33 -369q-92 0 -151 27v88q78 -20 149 -20q242 0 242 264v1472h102v-1462q0 -369 -342 -369z" />
    <glyph glyph-name="K" unicode="K" horiz-adv-x="1190" 
d="M309 0h-102v1462h102v-760l162 162l573 598h130l-599 -618l615 -844h-125l-561 772l-195 -172v-600z" />
    <glyph glyph-name="L" unicode="L" horiz-adv-x="1051" 
d="M207 0v1462h102v-1366h697v-96h-799z" />
    <glyph glyph-name="M" unicode="M" horiz-adv-x="1767" 
d="M305 1096v-1096h-98v1462h158l518 -1286h6l518 1286h154v-1462h-103v1108q0 116 12 240h-8l-547 -1348h-65l-545 1350h-8q8 -124 8 -254z" />
    <glyph glyph-name="N" unicode="N" horiz-adv-x="1477" 
d="M1270 0h-103l-866 1298h-8q12 -232 12 -350v-948h-98v1462h102l865 -1296h6q-9 180 -9 342v954h99v-1462z" />
    <glyph glyph-name="O" unicode="O" horiz-adv-x="1565" 
d="M240 732q0 -314 140 -485t403 -171t402.5 170t139.5 486t-139.5 485t-401.5 169t-403 -170t-141 -484zM1436 734q0 -348 -174 -551t-480 -203t-479.5 202t-173.5 552t175.5 550.5t480.5 200.5t478 -201.5t173 -549.5z" />
    <glyph glyph-name="P" unicode="P" horiz-adv-x="1198" 
d="M309 692h201q247 0 357 81.5t110 257.5t-104 257.5t-322 81.5h-242v-678zM1087 1042q0 -212 -144 -325t-408 -113h-226v-604h-102v1462h358q522 0 522 -420z" />
    <glyph glyph-name="Q" unicode="Q" horiz-adv-x="1565" 
d="M240 732q0 -314 140 -485t403 -171t402.5 170t139.5 486t-139.5 485t-401.5 169t-403 -170t-141 -484zM1436 733q0 -294 -126 -486.5t-349 -246.5l333 -348h-166l-282 330l-33 -2h-31q-305 0 -479 202t-174 552t175.5 550.5t480.5 200.5t478 -201.5t173 -550.5z" />
    <glyph glyph-name="R" unicode="R" horiz-adv-x="1217" 
d="M309 725h279q185 0 287 82.5t102 246.5t-100 240t-326 76h-242v-645zM1087 1059q0 -306 -313 -393l397 -666h-122l-377 637h-363v-637h-102v1462h348q272 0 402 -100.5t130 -302.5z" />
    <glyph glyph-name="S" unicode="S" horiz-adv-x="1116" 
d="M1014 377q0 -183 -134 -290t-380 -107t-389 59v102q158 -67 403 -67q180 0 285.5 82.5t105.5 216.5q0 83 -35 137.5t-114.5 100t-267.5 109.5t-273.5 154t-85.5 246t128.5 259.5t332.5 103.5t385 -78l-37 -88q-182 76 -346 76t-260 -75t-96 -204q0 -81 29.5 -133
t96.5 -93.5t234 -99.5t253 -114t125.5 -126.5t39.5 -170.5z" />
    <glyph glyph-name="T" unicode="T" horiz-adv-x="1073" 
d="M588 0h-103v1366h-475v96h1053v-96h-475v-1366z" />
    <glyph glyph-name="U" unicode="U" horiz-adv-x="1473" 
d="M1282 1462v-946q0 -252 -146 -394t-404 -142t-400 142.5t-142 397.5v942h103v-946q0 -211 116.5 -328.5t328.5 -117.5t327 115.5t115 320.5v956h102z" />
    <glyph glyph-name="V" unicode="V" horiz-adv-x="1182" 
d="M1071 1462h111l-547 -1462h-90l-545 1462h109l368 -995q84 -225 113 -338q20 75 79 233z" />
    <glyph glyph-name="W" unicode="W" horiz-adv-x="1827" 
d="M1372 0h-84l-321 1128q-40 139 -60 228q-16 -87 -45.5 -200t-322.5 -1156h-86l-402 1462h107l256 -942q15 -57 41.5 -155.5t44.5 -202.5q24 136 102 413l250 887h113l293 -1018q51 -176 73 -284q13 72 33.5 153t308.5 1149h103z" />
    <glyph glyph-name="X" unicode="X" horiz-adv-x="1102" 
d="M1102 0h-117l-432 682l-440 -682h-113l492 762l-447 700h115l395 -626l401 626h109l-453 -698z" />
    <glyph glyph-name="Y" unicode="Y" horiz-adv-x="1081" 
d="M594 0h-105v557l-489 905h117l426 -800l428 800h110l-487 -897v-565z" />
    <glyph glyph-name="Z" unicode="Z" horiz-adv-x="1180" 
d="M1098 0h-1016v76l856 1290h-817v96h954v-76l-858 -1290h881v-96z" />
    <glyph glyph-name="bracketleft" unicode="[" horiz-adv-x="653" 
d="M602 -324h-428v1786h428v-94h-330v-1597h330v-95z" />
    <glyph glyph-name="backslash" unicode="\" horiz-adv-x="698" 
d="M127 1462l547 -1462h-103l-546 1462h102z" />
    <glyph glyph-name="bracketright" unicode="]" horiz-adv-x="653" 
d="M51 -229h330v1597h-330v94h428v-1786h-428v95z" />
    <glyph glyph-name="asciicircum" unicode="^" 
d="M88 561l465 912h68l460 -912h-100l-395 791l-398 -791h-100z" />
    <glyph glyph-name="underscore" unicode="_" horiz-adv-x="842" 
d="M846 -266h-850v82h850v-82z" />
    <glyph glyph-name="grave" unicode="`" horiz-adv-x="1182" 
d="M776 1241h-69q-96 79 -188.5 171.5t-125.5 139.5v17h142q26 -48 98.5 -142t142.5 -170v-16z" />
    <glyph glyph-name="a" unicode="a" horiz-adv-x="1085" 
d="M442 70q174 0 274.5 99.5t100.5 276.5v107l-190 -8q-229 -11 -326.5 -71.5t-97.5 -175.5t62.5 -171.5t176.5 -56.5zM415 -20q-139 0 -228 82t-89 234t132.5 240t383.5 93l207 6v72q0 155 -62.5 234t-208.5 79t-308 -84l-37 86q179 84 356 84t265.5 -93t88.5 -290v-723
h-73l-25 172h-8q-82 -105 -168.5 -148.5t-225.5 -43.5z" />
    <glyph glyph-name="b" unicode="b" horiz-adv-x="1219" 
d="M639 1018q-192 0 -275 -110t-83 -363v-17q0 -246 86.5 -353t266.5 -107t270.5 124.5t90.5 354.5q0 471 -356 471zM635 1108q465 0 465 -563q0 -271 -121.5 -418t-341.5 -147q-116 0 -209 48t-147 136h-9l-28 -164h-62v1556h99v-391q0 -88 -4 -162l-3 -85h7
q120 190 354 190z" />
    <glyph glyph-name="c" unicode="c" horiz-adv-x="973" 
d="M616 -20q-233 0 -365 147t-132 413t137 417t375 151q141 0 270 -49l-27 -88q-141 47 -245 47q-200 0 -303 -123.5t-103 -349.5t103 -350.5t288 -124.5q148 0 275 53v-92q-104 -51 -273 -51z" />
    <glyph glyph-name="d" unicode="d" horiz-adv-x="1219" 
d="M586 1018q-362 0 -363 -488q0 -462 359 -462q184 0 270 107t86 353v17q0 252 -84 362.5t-268 110.5zM580 1108q118 0 204 -43t154 -147h6q-6 126 -6 247v391h98v-1556h-65l-25 166h-8q-124 -186 -352 -186t-347.5 140t-119.5 415t118 424t343 149z" />
    <glyph glyph-name="e" unicode="e" horiz-adv-x="1124" 
d="M586 1020q-151 0 -246 -103.5t-111 -298.5h672q0 189 -82 295.5t-233 106.5zM119 534q0 262 128.5 418t332.5 156t315 -134t111 -364v-80h-783q2 -224 104.5 -342t293.5 -118q93 0 163.5 13t178.5 56v-90q-159 -69 -342 -69q-237 0 -369.5 146t-132.5 408z" />
    <glyph glyph-name="f" unicode="f" horiz-adv-x="614" 
d="M586 1001h-256v-1001h-99v1001h-202v58l202 37v84q0 200 73.5 293.5t240.5 93.5q90 0 180 -27l-23 -86q-80 25 -159 25q-116 0 -164.5 -68.5t-48.5 -222.5v-101h256v-86z" />
    <glyph glyph-name="g" unicode="g" horiz-adv-x="1071" 
d="M233 752q0 -130 76.5 -199.5t208.5 -69.5t204.5 69t72.5 204t-74.5 204.5t-206.5 69.5t-206.5 -74t-74.5 -204zM150 -184q0 -224 333 -224q428 0 428 273q0 98 -67 142t-217 44h-178q-299 0 -299 -235zM285 250q0 -52 39.5 -76t132.5 -24h190q177 0 271 -71.5t94 -211.5
q0 -172 -139 -265.5t-371 -93.5t-344.5 79t-112.5 220q0 112 69.5 186t188.5 101q-49 21 -78.5 59.5t-29.5 88.5q0 109 139 192q-95 39 -148 122.5t-53 191.5q0 163 103.5 261.5t279.5 98.5q107 0 166 -21h348v-69l-225 -14q90 -112 90 -258t-104.5 -243t-280.5 -97
q-74 0 -104 6q-121 -64 -121 -162z" />
    <glyph glyph-name="h" unicode="h" horiz-adv-x="1208" 
d="M940 0v705q0 164 -69 238.5t-214 74.5q-195 0 -285.5 -98.5t-90.5 -319.5v-600h-99v1556h99v-495l-5 -139h7q61 98 154 142t231 44q370 0 370 -397v-711h-98z" />
    <glyph glyph-name="i" unicode="i" horiz-adv-x="463" 
d="M231 1292q-63 0 -63 96t64 97q64 0 65 -96q0 -45 -17.5 -71t-48.5 -26zM281 0h-99v1087h99v-1087z" />
    <glyph glyph-name="j" unicode="j" horiz-adv-x="463" 
d="M231 1292q-63 0 -63 96t64 97q64 0 65 -96q0 -45 -17.5 -71t-48.5 -26zM37 -492q-80 0 -135 25v86q69 -20 129 -20q151 0 151 176v1312h99v-1298q0 -135 -63.5 -208t-180.5 -73z" />
    <glyph glyph-name="k" unicode="k" horiz-adv-x="991" 
d="M281 0h-99v1556h99v-780l-7 -299h5l555 610h120l-428 -464l465 -623h-119l-413 549l-178 -162v-387z" />
    <glyph glyph-name="l" unicode="l" horiz-adv-x="463" 
d="M281 0h-99v1556h99v-1556z" />
    <glyph glyph-name="m" unicode="m" horiz-adv-x="1808" 
d="M1540 0v713q0 159 -62 232t-210 73q-308 0 -307 -381v-637h-101v743q0 275 -252 275q-171 0 -249 -99.5t-78 -318.5v-600h-99v1087h82l21 -149h6q45 81 128 125.5t183 44.5q257 0 330 -193h4q53 93 142.5 143t203.5 50q178 0 267 -95t89 -302v-711h-98z" />
    <glyph glyph-name="n" unicode="n" horiz-adv-x="1208" 
d="M940 0v705q0 164 -69 238.5t-214 74.5q-195 0 -285.5 -98.5t-90.5 -319.5v-600h-99v1087h84l19 -149h6q106 170 377 170q370 0 370 -397v-711h-98z" />
    <glyph glyph-name="o" unicode="o" horiz-adv-x="1200" 
d="M223 546q0 -225 98.5 -350.5t278.5 -125.5t278.5 126t98.5 350t-99.5 348t-279.5 124t-277.5 -123.5t-97.5 -348.5zM1081 543q0 -264 -129 -413.5t-356 -149.5q-143 0 -252 69t-167 198t-58 298q0 266 129.5 414.5t353.5 148.5t351.5 -150.5t127.5 -414.5z" />
    <glyph glyph-name="p" unicode="p" horiz-adv-x="1219" 
d="M632 68q180 0 271.5 124t91.5 347q0 479 -346 479q-190 0 -279 -104.5t-89 -340.5v-32q0 -255 85.5 -364t265.5 -109zM647 -20q-251 0 -366 188h-7l3 -84q4 -74 4 -162v-414h-99v1579h84l19 -155h6q112 176 345 176t348.5 -144.5t115.5 -416.5t-121.5 -419.5
t-331.5 -147.5z" />
    <glyph glyph-name="q" unicode="q" horiz-adv-x="1219" 
d="M223 530q1 -462 363 -462q184 0 268 109t84 366v12q0 245 -85 354t-266 109t-272.5 -124t-91.5 -364zM569 -20q-214 0 -332 142t-118 414t118 422t346 150t345 -174h6l18 153h84v-1579h-98v414q0 122 6 248h-6q-118 -190 -369 -190z" />
    <glyph glyph-name="r" unicode="r" horiz-adv-x="797" 
d="M590 1108q88 0 168 -14l-19 -95q-68 17 -141 17q-139 0 -228 -118t-89 -298v-600h-99v1087h84l10 -196h7q67 120 143 168.5t164 48.5z" />
    <glyph glyph-name="s" unicode="s" horiz-adv-x="954" 
d="M423 -20q-211 0 -339 67v107q164 -82 336 -82t255 53t83 139t-66 142t-224 112t-257.5 120.5t-99.5 196.5q0 131 102.5 202t282.5 71t338 -66l-37 -90q-160 66 -295 66t-213 -44t-78 -126t60.5 -132.5t222.5 -108.5t262 -121.5t100 -206.5q0 -142 -111 -220.5t-322 -78.5
z" />
    <glyph glyph-name="t" unicode="t" horiz-adv-x="686" 
d="M469 68q94 0 164 16v-80q-72 -24 -166 -24q-144 0 -212.5 77t-68.5 242v702h-161v58l161 45l50 246h51v-263h319v-86h-319v-688q0 -125 44 -185t138 -60z" />
    <glyph glyph-name="u" unicode="u" horiz-adv-x="1208" 
d="M268 1087v-704q0 -164 69 -238.5t214 -74.5q194 0 285.5 98t91.5 319v600h98v-1087h-84l-18 150h-6q-106 -170 -377 -170q-371 0 -371 397v710h98z" />
    <glyph glyph-name="v" unicode="v" horiz-adv-x="940" 
d="M420 0l-420 1087h102l281 -739q56 -142 84 -248h6q41 136 84 250l281 737h102l-420 -1087h-100z" />
    <glyph glyph-name="w" unicode="w" horiz-adv-x="1481" 
d="M1051 0l-238 727q-23 74 -59 217h-6l-66 -219l-242 -725h-98l-311 1087h106l174 -630q61 -234 80 -344h6q59 234 86 311l224 663h90l213 -661q72 -235 88 -311h6q8 65 80 348l166 624h100l-295 -1087h-104z" />
    <glyph glyph-name="x" unicode="x" horiz-adv-x="1020" 
d="M449 559l-379 528h114l324 -458l321 458h109l-373 -528l400 -559h-115l-342 485l-344 -485h-109z" />
    <glyph glyph-name="y" unicode="y" horiz-adv-x="940" 
d="M140 -492q-66 0 -136 21v86q58 -16 117 -16q107 0 157.5 81t137.5 320l-416 1087h102l230 -610q105 -281 133 -379h6q42 129 137 385l230 604h102l-487 -1263q-59 -154 -99 -208t-94 -81t-120 -27z" />
    <glyph glyph-name="z" unicode="z" horiz-adv-x="944" 
d="M858 0h-776v63l645 936h-598v88h727v-63l-649 -936h651v-88z" />
    <glyph glyph-name="braceleft" unicode="{" horiz-adv-x="723" 
d="M389 -27q0 -102 59.5 -152.5t202.5 -53.5v-91q-195 0 -277.5 75t-82.5 231v337q0 205 -230 209v80q122 2 176 51t54 148v350q0 299 360 305v-90q-138 -5 -200 -58t-62 -157v-305q0 -130 -44 -194t-142 -85v-8q97 -20 141.5 -83.5t44.5 -186.5v-322z" />
    <glyph glyph-name="bar" unicode="|" horiz-adv-x="1108" 
d="M508 1561h92v-2067h-92v2067z" />
    <glyph glyph-name="braceright" unicode="}" horiz-adv-x="723" 
d="M334 295q0 123 44.5 186.5t141.5 83.5v8q-97 20 -141.5 84t-44.5 195v305q0 103 -61.5 156.5t-200.5 58.5v90q174 0 267 -77.5t93 -227.5v-350q0 -100 54.5 -148.5t175.5 -50.5v-80q-230 -4 -230 -209v-337q0 -155 -82.5 -230.5t-277.5 -75.5v91q141 2 201.5 52.5
t60.5 153.5v322z" />
    <glyph glyph-name="asciitilde" unicode="~" 
d="M829 616q-120 0 -259 64t-242 65q-103 0 -217 -120v94q108 110 233 110q61 0 114.5 -13.5t167.5 -64.5t213 -51t220 125v-96q-110 -113 -230 -113z" />
    <glyph glyph-name="nonbreakingspace" unicode="&#xa0;" horiz-adv-x="532" 
 />
    <glyph glyph-name="exclamdown" unicode="&#xa1;" horiz-adv-x="492" 
d="M166 1010q0 98 81 98t81 -98q0 -53 -24 -76t-58 -23t-57 23t-23 76zM215 711h61l29 -1086h-119z" />
    <glyph glyph-name="cent" unicode="&#xa2;" 
d="M211 744q0 234 102.5 383t288.5 182v174h82v-166h14q131 0 275 -55l-31 -84q-134 51 -237 51q-187 0 -288.5 -122.5t-101.5 -352.5t100.5 -355t280.5 -125q131 0 267 58v-92q-110 -56 -267 -56h-12v-204h-82v210q-186 30 -288.5 175t-102.5 379z" />
    <glyph glyph-name="sterling" unicode="&#xa3;" 
d="M412 420q0 -233 -148 -324h809v-96h-995v84q110 21 171.5 110t61.5 224v258h-211v82h211v297q0 204 98 315t277 111t334 -68l-35 -86q-157 66 -297 66t-208 -81t-68 -253v-301h411v-82h-411v-256z" />
    <glyph glyph-name="currency" unicode="&#xa4;" 
d="M584 395q134 0 228.5 95.5t94.5 231.5t-94.5 233.5t-228.5 97.5t-229 -97t-95 -233t95 -232t229 -96zM991 721q0 -149 -90 -254l139 -141l-59 -60l-137 142q-110 -93 -262 -93t-258 93l-138 -142l-59 60l139 141q-90 107 -90 255t90 259l-139 141l59 60l138 -142
q103 93 259 93t261 -93l137 142l59 -60l-139 -141q90 -111 90 -260z" />
    <glyph glyph-name="yen" unicode="&#xa5;" 
d="M975 674v-82h-338v-205h338v-82h-338v-305h-105v305h-337v82h337v205h-337v82h278l-430 788h117l426 -796l428 796h110l-432 -788h283z" />
    <glyph glyph-name="brokenbar" unicode="&#xa6;" horiz-adv-x="1108" 
d="M508 258h92v-764h-92v764zM508 1561h92v-764h-92v764z" />
    <glyph glyph-name="section" unicode="&#xa7;" horiz-adv-x="1057" 
d="M246 828q0 -68 31.5 -107t105.5 -75t250 -99q82 41 126 98t44 120t-32 103t-108.5 77t-236.5 87q-81 -23 -130.5 -79.5t-49.5 -124.5zM474 -4q-189 0 -345 67v95q182 -78 338 -78t241 49.5t85 140.5q0 55 -35.5 101.5t-252.5 124.5q-216 79 -288 147.5t-72 160.5
t50.5 161.5t138.5 107.5q-86 47 -125 102t-39 136q0 117 102 183.5t276 66.5t335 -64l-35 -80q-161 60 -299 60t-209.5 -44.5t-71.5 -108.5t25.5 -99t85.5 -66t220 -85t232 -122t72 -170q0 -173 -186 -274q86 -42 129 -96t43 -136q0 -135 -113 -207.5t-302 -72.5z" />
    <glyph glyph-name="dieresis" unicode="&#xa8;" horiz-adv-x="1182" 
d="M717 1389q-1 86 63 86t64 -86t-64 -86t-63 86zM336 1389q0 86 64 86t64 -86t-64 -86t-64 86z" />
    <glyph glyph-name="copyright" unicode="&#xa9;" horiz-adv-x="1704" 
d="M193 730q0 -176 88.5 -328t240.5 -241t330 -89t329.5 88.5t240.5 240.5t89 328t-85.5 327t-239.5 243t-332 92t-330.5 -88.5t-241.5 -242.5t-89 -330zM100 732q0 199 100 374t275 276t376 101t376 -100t276 -274.5t101 -374.5t-97 -373t-272 -277t-383 -104t-382.5 103.5
t-272 276.5t-97.5 372zM594 733q0 -364 295 -364q84 0 198 43v-88q-102 -45 -208 -45q-187 0 -288.5 115t-101.5 327t111 336.5t297 124.5q119 0 227 -52l-37 -83q-98 45 -190 45q-142 0 -222.5 -94.5t-80.5 -264.5z" />
    <glyph glyph-name="ordfeminine" unicode="&#xaa;" horiz-adv-x="686" 
d="M168 1000q0 -123 146 -123q76 0 128 50t52 142v64l-88 -5q-238 -12 -238 -128zM494 1247q0 152 -154 152q-78 0 -186 -49l-33 73q117 56 231 56q228 0 228 -215v-451h-68l-25 72q-85 -84 -191 -84t-162 49t-56 144q0 190 321 206l95 4v43z" />
    <glyph glyph-name="guillemotleft" unicode="&#xab;" horiz-adv-x="885" 
d="M442 543l310 393l61 -43l-254 -363l254 -362l-61 -43l-310 391v27zM82 543l309 393l62 -43l-254 -363l254 -362l-62 -43l-309 391v27z" />
    <glyph glyph-name="logicalnot" unicode="&#xac;" 
d="M1038 764v-494h-82v412h-845v82h927z" />
    <glyph glyph-name="uni00AD" unicode="&#xad;" horiz-adv-x="659" 
d="M92 512v82h475v-82h-475z" />
    <glyph glyph-name="registered" unicode="&#xae;" horiz-adv-x="1704" 
d="M193 730q0 -176 88.5 -328t240.5 -241t330 -89t329.5 88.5t240.5 240.5t89 328t-85.5 327t-239.5 243t-332 92t-330.5 -88.5t-241.5 -242.5t-89 -330zM100 732q0 199 100 374t275 276t376 101t376 -100t276 -274.5t101 -374.5t-97 -373t-272 -277t-383 -104t-382.5 103.5
t-272 276.5t-97.5 372zM819 1171q301 0 301 -253q0 -164 -149 -234l237 -393h-121l-210 360h-168v-360h-101v880h211zM709 731h112q91 0 143 46.5t52 135.5q0 172 -197 172h-110v-354z" />
    <glyph glyph-name="overscore" unicode="&#xaf;" horiz-adv-x="1024" 
d="M1030 1556h-1036v82h1036v-82z" />
    <glyph glyph-name="degree" unicode="&#xb0;" horiz-adv-x="877" 
d="M229 1183q0 -90 61.5 -153t147.5 -63t147.5 62.5t61.5 154.5t-59.5 154.5t-149.5 62.5t-149.5 -64t-59.5 -154zM139 1184q0 132 86.5 215.5t212.5 83.5t212.5 -83.5t86.5 -215.5t-86.5 -215.5t-214.5 -83.5t-212.5 83.5t-84.5 215.5z" />
    <glyph glyph-name="plusminus" unicode="&#xb1;" 
d="M111 1v82h948v-82h-948zM625 764h434v-82h-434v-432h-82v432h-432v82h432v434h82v-434z" />
    <glyph glyph-name="twosuperior" unicode="&#xb2;" horiz-adv-x="688" 
d="M629 586h-576v78l242 237q125 121 172 193t47 146t-47 115.5t-139 41.5t-201 -82l-49 65q118 103 256 103t208 -63.5t70 -183.5t-81.5 -211t-348.5 -351h447v-88z" />
    <glyph glyph-name="threesuperior" unicode="&#xb3;" horiz-adv-x="688" 
d="M541 840q0 161 -238 161h-131v84h135q105 0 158 43.5t53 115.5t-47 112.5t-127 40.5q-128 0 -246 -78l-47 70q130 94 275 94t217.5 -60.5t72.5 -150.5q0 -171 -161 -219q186 -45 186 -211q0 -130 -88.5 -201.5t-240.5 -71.5t-271 60v88q137 -62 259 -62t181.5 49
t59.5 136z" />
    <glyph glyph-name="acute" unicode="&#xb4;" horiz-adv-x="1182" 
d="M393 1241v16q73 79 144.5 171.5t97.5 140.5h141v-17q-81 -117 -313 -311h-70z" />
    <glyph glyph-name="mu" unicode="&#xb5;" horiz-adv-x="1221" 
d="M563 -20q-187 0 -287 112q5 -92 5 -170v-414h-99v1579h99v-704q0 -164 69 -238.5t213 -74.5q194 0 285.5 98t91.5 319v600h98v-1087h-84l-18 150h-6q-50 -77 -150 -123.5t-217 -46.5z" />
    <glyph glyph-name="paragraph" unicode="&#xb6;" horiz-adv-x="1341" 
d="M1106 -260h-100v1722h-228v-1722h-100v819q-64 -18 -146 -18q-216 0 -317.5 124.5t-101.5 380.5t109 383t341 127h543v-1816z" />
    <glyph glyph-name="periodcentered" unicode="&#xb7;" horiz-adv-x="487" 
d="M162 721q0 98 81 98t81 -98t-81 -98t-81 98z" />
    <glyph glyph-name="cedilla" unicode="&#xb8;" horiz-adv-x="420" 
d="M135 -403q160 0 160 108q0 94 -193 121l93 174h96l-66 -117q168 -37 168 -174q0 -100 -67.5 -150.5t-188.5 -50.5q-68 0 -94 11v88q30 -10 92 -10z" />
    <glyph glyph-name="onesuperior" unicode="&#xb9;" horiz-adv-x="688" 
d="M442 1462v-876h-98v547q0 99 12 233q-26 -23 -233 -145l-47 77l274 164h92z" />
    <glyph glyph-name="ordmasculine" unicode="&#xba;" horiz-adv-x="739" 
d="M160 1141q0 -264 209 -264t209 264q0 131 -50 194.5t-159 63.5t-159 -63.5t-50 -194.5zM670 1142q0 -162 -80 -251.5t-223 -89.5t-220 86t-77 251t78 253t222 88t222 -87.5t78 -249.5z" />
    <glyph glyph-name="guillemotright" unicode="&#xbb;" horiz-adv-x="885" 
d="M442 518l-309 -393l-61 43l254 362l-254 363l61 43l309 -391v-27zM803 518l-309 -393l-62 43l254 362l-254 363l62 43l309 -391v-27z" />
    <glyph glyph-name="onequarter" unicode="&#xbc;" horiz-adv-x="1516" 
d="M425 1462v-876h-98v547q0 99 12 233q-26 -23 -233 -145l-47 77l274 164h92zM1148 1462l-811 -1462h-94l811 1462h94zM1173 320v221q0 132 8 232q-12 -23 -317 -453h309zM1392 242h-129v-241h-90v241h-413v60l407 581h96v-563h129v-78z" />
    <glyph glyph-name="onehalf" unicode="&#xbd;" horiz-adv-x="1516" 
d="M377 1462v-876h-98v547q0 99 12 233q-26 -23 -233 -145l-47 77l274 164h92zM1073 1462l-811 -1462h-94l811 1462h94zM1403 1h-576v78l242 237q125 121 172 193t47 146q0 73 -46 115t-140 42q-92 0 -201 -82l-49 65q118 103 256 103t208 -64t70 -183t-122 -255
q-42 -46 -308 -307h447v-88z" />
    <glyph glyph-name="threequarters" unicode="&#xbe;" horiz-adv-x="1516" 
d="M541 840q0 161 -238 161h-131v84h135q105 -1 158 43t53 116t-47 112t-127 41q-128 0 -246 -78l-47 70q130 94 275 94q146 0 218 -60q72 -61 72 -151q0 -171 -161 -219q186 -45 186 -211q-1 -130 -89 -202t-240 -71q-152 0 -271 60v88q137 -62 259 -62t182 49t59 136z
M1300 1462l-811 -1462h-94l811 1462h94zM1276 320v221q0 132 8 232q-12 -23 -317 -453h309zM1495 242h-129v-241h-90v241h-413v60l407 581h96v-563h129v-78z" />
    <glyph glyph-name="questiondown" unicode="&#xbf;" horiz-adv-x="862" 
d="M440 1010q0 98 81 98t81 -98q0 -53 -24 -76t-58 -23t-57 23t-23 76zM569 711v-37q0 -125 -39.5 -204.5t-136.5 -164.5l-90 -79q-73 -61 -104 -120.5t-31 -138.5q0 -124 82 -200t214 -76t240 46l64 27l37 -79q-111 -48 -185.5 -64t-152.5 -16q-184 0 -288.5 99t-104.5 269
q0 128 59 201t157 155t132.5 127.5t49.5 94t15 145.5v15h82z" />
    <glyph glyph-name="Agrave" unicode="&#xc0;" horiz-adv-x="1229" 
d="M354 608h523l-199 527q-25 62 -60 172q-27 -96 -59 -174zM911 516h-594l-204 -516h-113l588 1468h65l576 -1468h-115zM720 1579h-69q-97 79 -189 171t-125 140v17h142q27 -48 99 -142t142 -170v-16z" />
    <glyph glyph-name="Aacute" unicode="&#xc1;" horiz-adv-x="1229" 
d="M354 608h523l-199 527q-25 62 -60 172q-27 -96 -59 -174zM911 516h-594l-204 -516h-113l588 1468h65l576 -1468h-115zM504 1579v16q72 79 144 171t98 141h141v-17q-81 -117 -313 -311h-70z" />
    <glyph glyph-name="Acircumflex" unicode="&#xc2;" horiz-adv-x="1229" 
d="M354 608h523l-199 527q-25 62 -60 172q-27 -96 -59 -174zM911 516h-594l-204 -516h-113l588 1468h65l576 -1468h-115zM910 1579h-70q-122 101 -221 207q-108 -114 -221 -207h-70v16q151 163 242 312h98q68 -120 242 -312v-16z" />
    <glyph glyph-name="Atilde" unicode="&#xc3;" horiz-adv-x="1229" 
d="M354 608h523l-199 527q-25 62 -60 172q-27 -96 -59 -174zM911 516h-594l-204 -516h-113l588 1468h65l576 -1468h-115zM784 1663q93 0 125 156h76q-16 -116 -69 -177t-128 -61t-180 90q-32 26 -62 46t-70 20q-84 0 -116 -156h-73q10 111 63 175t137 63q48 0 88 -25t78 -56
t70 -53t61 -22z" />
    <glyph glyph-name="Adieresis" unicode="&#xc4;" horiz-adv-x="1229" 
d="M354 608h523l-199 527q-25 62 -60 172q-27 -96 -59 -174zM911 516h-594l-204 -516h-113l588 1468h65l576 -1468h-115zM748 1727q0 86 64 86t63 -86q1 -86 -63 -86t-64 86zM367 1727q-1 86 63 86t64 -86t-64 -86t-63 86z" />
    <glyph glyph-name="Aring" unicode="&#xc5;" horiz-adv-x="1229" 
d="M354 608h523l-199 527q-25 62 -60 172q-27 -96 -59 -174zM402 1608q0 96 60 154t157 59q97 0 157 -59t60 -154t-60 -153q-40 -39 -98 -52l551 -1403h-115l-203 516h-594l-204 -516h-113l562 1403q-59 12 -109 61q-51 48 -51 144zM482 1608q0 -64 38 -102t99 -37
q61 -1 99 37t38 103t-39 103t-99 37q-60 0 -98 -38q-38 -39 -38 -103z" />
    <glyph glyph-name="AE" unicode="&#xc6;" horiz-adv-x="1653" 
d="M811 608v760h-100l-334 -760h434zM1528 0h-717v516h-475l-227 -516h-111l653 1462h877v-94h-615v-553h576v-94h-576v-627h615v-94z" />
    <glyph glyph-name="Ccedilla" unicode="&#xc7;" horiz-adv-x="1272" 
d="M653 -403q160 0 160 108q0 94 -193 121l85 158q-247 25 -399 195q-177 199 -177 556q1 223 85 393t242 262t371 93q212 0 381 -80l-41 -92q-160 80 -336 80q-275 0 -433 -176q-158 -175 -158 -485t149 -483t426 -173q184 0 338 47v-90q-143 -50 -355 -51l-55 -97
q168 -37 168 -174q1 -101 -67 -151t-189 -50q-68 0 -94 11v88q30 -10 92 -10z" />
    <glyph glyph-name="Egrave" unicode="&#xc8;" horiz-adv-x="1130" 
d="M1006 0h-799v1462h799v-94h-697v-553h658v-94h-658v-627h697v-94zM697 1579h-69q-96 79 -188 171t-126 140v17h142q26 -48 98 -142t143 -170v-16z" />
    <glyph glyph-name="Eacute" unicode="&#xc9;" horiz-adv-x="1130" 
d="M1006 0h-799v1462h799v-94h-697v-553h658v-94h-658v-627h697v-94zM463 1579v16q73 79 145 171t97 141h141v-17q-81 -117 -313 -311h-70z" />
    <glyph glyph-name="Ecircumflex" unicode="&#xca;" horiz-adv-x="1130" 
d="M1006 0h-799v1462h799v-94h-697v-553h658v-94h-658v-627h697v-94zM897 1579h-70q-122 101 -221 207q-108 -114 -221 -207h-70v16q151 163 242 312h98q68 -120 242 -312v-16z" />
    <glyph glyph-name="Edieresis" unicode="&#xcb;" horiz-adv-x="1130" 
d="M1006 0h-799v1462h799v-94h-697v-553h658v-94h-658v-627h697v-94zM735 1727q-1 86 63 86t64 -86t-64 -86t-63 86zM354 1727q0 86 64 86t63 -86q1 -86 -63 -86t-64 86z" />
    <glyph glyph-name="Igrave" unicode="&#xcc;" horiz-adv-x="516" 
d="M207 0v1462h102v-1462h-102zM320 1579h-69q-97 79 -189 171t-125 140v17h142q27 -48 99 -142t142 -170v-16z" />
    <glyph glyph-name="Iacute" unicode="&#xcd;" horiz-adv-x="516" 
d="M207 0v1462h102v-1462h-102zM191 1579v16q73 79 145 171t97 141h141v-17q-81 -117 -313 -311h-70z" />
    <glyph glyph-name="Icircumflex" unicode="&#xce;" horiz-adv-x="516" 
d="M207 0v1462h102v-1462h-102zM550 1579h-70q-122 101 -221 207q-108 -114 -221 -207h-70v16q151 163 242 312h98q68 -120 242 -312v-16z" />
    <glyph glyph-name="Idieresis" unicode="&#xcf;" horiz-adv-x="516" 
d="M207 0v1462h102v-1462h-102zM386 1727q0 86 64 86t63 -86q1 -86 -63 -86t-64 86zM5 1727q-1 86 63 86t64 -86t-64 -86t-63 86z" />
    <glyph glyph-name="Eth" unicode="&#xd0;" horiz-adv-x="1466" 
d="M1206 741q0 314 -159.5 472.5t-468.5 158.5h-269v-600h406v-94h-406v-588h242q655 0 655 651zM1317 736q0 -360 -193 -548t-567 -188h-350v678h-160v94h160v690h395q350 0 532.5 -183t182.5 -543z" />
    <glyph glyph-name="Ntilde" unicode="&#xd1;" horiz-adv-x="1477" 
d="M1270 0h-103l-866 1298h-8q12 -232 12 -350v-948h-98v1462h102l865 -1296h6q-9 180 -9 342v954h99v-1462zM897 1663q93 0 125 156h76q-16 -116 -69 -177t-128 -61t-180 90q-33 26 -63 46t-68 20q-84 0 -117 -156h-73q10 111 63 175t137 63q48 0 88 -25t78 -56t70 -53
t61 -22z" />
    <glyph glyph-name="Ograve" unicode="&#xd2;" horiz-adv-x="1565" 
d="M240 732q0 -314 140 -484q140 -172 403 -172t403 170t139 486q1 316 -139 486q-140 168 -402 168t-402 -170q-142 -170 -142 -484zM1436 734q0 -348 -174 -552q-174 -202 -480 -202t-479 202q-174 202 -174 552q-1 350 175 550t481 201t478 -201t173 -550zM885 1579h-69
q-96 79 -188 171t-126 140v17h142q26 -48 98 -142t143 -170v-16z" />
    <glyph glyph-name="Oacute" unicode="&#xd3;" horiz-adv-x="1565" 
d="M240 732q0 -314 140 -484q140 -172 403 -172t403 170t139 486q1 316 -139 486q-140 168 -402 168t-402 -170q-142 -170 -142 -484zM1436 734q0 -348 -174 -552q-174 -202 -480 -202t-479 202q-174 202 -174 552q-1 350 175 550t481 201t478 -201t173 -550zM686 1579v16
q72 79 144 171t98 141h141v-17q-81 -117 -313 -311h-70z" />
    <glyph glyph-name="Ocircumflex" unicode="&#xd4;" horiz-adv-x="1565" 
d="M240 732q0 -314 140 -484q140 -172 403 -172t403 170t139 486q1 316 -139 486q-140 168 -402 168t-402 -170q-142 -170 -142 -484zM1436 734q0 -348 -174 -552q-174 -202 -480 -202t-479 202q-174 202 -174 552q-1 350 175 550t481 201t478 -201t173 -550zM1074 1579h-70
q-122 101 -221 207q-108 -114 -221 -207h-70v16q151 163 242 312h98q68 -120 242 -312v-16z" />
    <glyph glyph-name="Otilde" unicode="&#xd5;" horiz-adv-x="1565" 
d="M240 732q0 -314 140 -484q140 -172 403 -172t403 170t139 486q1 316 -139 486q-140 168 -402 168t-402 -170q-142 -170 -142 -484zM1436 734q0 -348 -174 -552q-174 -202 -480 -202t-479 202q-174 202 -174 552q-1 350 175 550t481 201t478 -201t173 -550zM940 1663
q93 0 125 156h76q-16 -116 -69 -177t-128 -61t-180 90q-32 26 -62 46t-70 20q-84 0 -116 -156h-73q10 111 63 175t137 63q48 0 88 -25t78 -56t70 -53t61 -22z" />
    <glyph glyph-name="Odieresis" unicode="&#xd6;" horiz-adv-x="1565" 
d="M240 732q0 -314 140 -484q140 -172 403 -172t403 170t139 486q1 316 -139 486q-140 168 -402 168t-402 -170q-142 -170 -142 -484zM1436 734q0 -348 -174 -552q-174 -202 -480 -202t-479 202q-174 202 -174 552q-1 350 175 550t481 201t478 -201t173 -550zM910 1727
q0 86 64 86t63 -86q1 -86 -63 -86t-64 86zM529 1727q-1 86 63 86t64 -86t-64 -86t-63 86z" />
    <glyph glyph-name="multiply" unicode="&#xd7;" 
d="M584 780l409 408l58 -58l-408 -407l406 -408l-58 -57l-407 408l-406 -408l-57 57l405 408l-407 407l57 58z" />
    <glyph glyph-name="Oslash" unicode="&#xd8;" horiz-adv-x="1565" 
d="M240 734q0 -312 139 -484l739 1034q-133 102 -334 102q-261 0 -402.5 -170t-141.5 -482zM1325 732q0 316 -139 487l-742 -1037q133 -106 338 -106q264 0 403.5 170t139.5 486zM1436 740q0 -356 -174 -558t-480 -202q-236 0 -395 120l-86 -120l-74 59l90 127
q-188 200 -188 559t175.5 559.5t479.5 200.5q232 0 392 -121l108 152l72 -60l-111 -153q191 -207 191 -563z" />
    <glyph glyph-name="Ugrave" unicode="&#xd9;" horiz-adv-x="1473" 
d="M1282 1462v-946q0 -252 -146 -394t-404 -142t-400 142t-142 398v942h103v-946q0 -210 117 -328q116 -118 328 -118t327 116t115 320v956h102zM833 1579h-69q-96 79 -188 171t-126 140v17h142q26 -48 98 -142t143 -170v-16z" />
    <glyph glyph-name="Uacute" unicode="&#xda;" horiz-adv-x="1473" 
d="M1282 1462v-946q0 -252 -146 -394t-404 -142t-400 142t-142 398v942h103v-946q0 -210 117 -328q116 -118 328 -118t327 116t115 320v956h102zM633 1579v16q73 79 145 171t97 141h141v-17q-81 -117 -313 -311h-70z" />
    <glyph glyph-name="Ucircumflex" unicode="&#xdb;" horiz-adv-x="1473" 
d="M1282 1462v-946q0 -252 -146 -394t-404 -142t-400 142t-142 398v942h103v-946q0 -210 117 -328q116 -118 328 -118t327 116t115 320v956h102zM1026 1579h-70q-122 101 -221 207q-108 -114 -221 -207h-70v16q151 163 242 312h98q68 -120 242 -312v-16z" />
    <glyph glyph-name="Udieresis" unicode="&#xdc;" horiz-adv-x="1473" 
d="M1282 1462v-946q0 -252 -146 -394t-404 -142t-400 142t-142 398v942h103v-946q0 -210 117 -328q116 -118 328 -118t327 116t115 320v956h102zM862 1727q0 86 64 86t63 -86q1 -86 -63 -86t-64 86zM481 1727q-1 86 63 86t64 -86t-64 -86t-63 86z" />
    <glyph glyph-name="Yacute" unicode="&#xdd;" horiz-adv-x="1081" 
d="M594 0h-105v557l-489 905h117l426 -800l428 800h110l-487 -897v-565zM434 1579v16q72 79 144 171t98 141h141v-17q-81 -117 -313 -311h-70z" />
    <glyph glyph-name="Thorn" unicode="&#xde;" horiz-adv-x="1198" 
d="M309 428h201q247 0 357 81.5t110 257.5t-104 257.5t-322 81.5h-242v-678zM1087 778q0 -212 -144 -325t-408 -113h-226v-340h-102v1462h102v-264h256q522 0 522 -420z" />
    <glyph glyph-name="germandbls" unicode="&#xdf;" horiz-adv-x="1194" 
d="M739 -20q-177 0 -282 67v107q65 -38 148.5 -62t152.5 -24q114 0 174.5 55t60.5 149t-39.5 155t-157.5 142t-166 141t-48 133t32.5 123t106.5 108t106.5 106t32.5 106q0 93 -70 143t-208 50t-219.5 -69t-81.5 -196v-1214h-99v1206q0 173 104 267t292 94t285.5 -72.5
t97.5 -210.5t-139 -250q-81 -64 -110.5 -100t-29.5 -78t22 -78.5t137 -117.5q115 -80 183 -154t68 -214q0 -141 -88 -226.5t-265 -85.5z" />
    <glyph glyph-name="agrave" unicode="&#xe0;" horiz-adv-x="1085" 
d="M442 70q174 0 274 100t101 276v107l-190 -8q-229 -11 -327 -71t-97 -176t63 -172t176 -56zM415 -20q-139 0 -228 82t-89 234t132 240t384 93l207 6v72q0 155 -63 234q-62 79 -208 79t-308 -84l-37 86q179 84 356 84t265 -93t89 -290v-723h-73l-25 172h-8
q-83 -104 -169 -148t-225 -44zM638 1241h-69q-97 79 -189 171t-125 140v17h142q27 -48 99 -142t142 -170v-16z" />
    <glyph glyph-name="aacute" unicode="&#xe1;" horiz-adv-x="1085" 
d="M442 70q174 0 274 100t101 276v107l-190 -8q-229 -11 -327 -71t-97 -176t63 -172t176 -56zM415 -20q-139 0 -228 82t-89 234t132 240t384 93l207 6v72q0 155 -63 234q-62 79 -208 79t-308 -84l-37 86q179 84 356 84t265 -93t89 -290v-723h-73l-25 172h-8
q-83 -104 -169 -148t-225 -44zM422 1241v16q72 79 144 171t98 141h141v-17q-81 -117 -313 -311h-70z" />
    <glyph glyph-name="acircumflex" unicode="&#xe2;" horiz-adv-x="1085" 
d="M442 70q174 0 274 100t101 276v107l-190 -8q-229 -11 -327 -71t-97 -176t63 -172t176 -56zM415 -20q-139 0 -228 82t-89 234t132 240t384 93l207 6v72q0 155 -63 234q-62 79 -208 79t-308 -84l-37 86q179 84 356 84t265 -93t89 -290v-723h-73l-25 172h-8
q-83 -104 -169 -148t-225 -44zM833 1241h-70q-122 101 -221 207q-108 -114 -221 -207h-70v16q151 163 242 312h98q68 -120 242 -312v-16z" />
    <glyph glyph-name="atilde" unicode="&#xe3;" horiz-adv-x="1085" 
d="M442 70q174 0 274 100t101 276v107l-190 -8q-229 -11 -327 -71t-97 -176t63 -172t176 -56zM415 -20q-139 0 -228 82t-89 234t132 240t384 93l207 6v72q0 155 -63 234q-62 79 -208 79t-308 -84l-37 86q179 84 356 84t265 -93t89 -290v-723h-73l-25 172h-8
q-83 -104 -169 -148t-225 -44zM697 1325q93 0 125 156h76q-16 -116 -69 -177t-128 -61t-180 90q-33 26 -63 46t-68 20q-84 0 -117 -156h-73q10 111 63 175t137 63q48 0 88 -25t78 -56t70 -53t61 -22z" />
    <glyph glyph-name="adieresis" unicode="&#xe4;" horiz-adv-x="1085" 
d="M442 70q174 0 274 100t101 276v107l-190 -8q-229 -11 -327 -71t-97 -176t63 -172t176 -56zM415 -20q-139 0 -228 82t-89 234t132 240t384 93l207 6v72q0 155 -63 234q-62 79 -208 79t-308 -84l-37 86q179 84 356 84t265 -93t89 -290v-723h-73l-25 172h-8
q-83 -104 -169 -148t-225 -44zM663 1389q-1 86 63 86t64 -86t-64 -86t-63 86zM282 1389q0 86 64 86t63 -86q1 -86 -63 -86t-64 86z" />
    <glyph glyph-name="aring" unicode="&#xe5;" horiz-adv-x="1085" 
d="M442 70q174 0 274 100t101 276v107l-190 -8q-229 -11 -327 -71t-97 -176t63 -172t176 -56zM415 -20q-139 0 -228 82t-89 234t132 240t384 93l207 6v72q0 155 -63 234q-62 79 -208 79t-308 -84l-37 86q179 84 356 84t265 -93t89 -290v-723h-73l-25 172h-8
q-83 -104 -169 -148t-225 -44zM405 1454q-1 -64 37 -102t100 -37q62 -1 100 37t37 103q0 65 -39 103q-40 38 -100 37q-60 0 -98 -38q-38 -39 -37 -103zM759 1454q0 -95 -60 -153t-157 -58t-157 58q-60 57 -60 153t60 154t157 59q97 0 157 -59t60 -154z" />
    <glyph glyph-name="ae" unicode="&#xe6;" horiz-adv-x="1731" 
d="M1217 1020q-284 0 -314 -402h604q0 188 -77.5 295t-212.5 107zM434 70q169 0 266 99.5t97 276.5v107l-187 -8q-219 -11 -313 -71.5t-94 -175.5t61 -171.5t170 -56.5zM1243 -20q-295 0 -397 256q-68 -133 -168 -194.5t-254 -61.5t-240 82.5t-86 231.5t125 238t377 97
l201 6v72q0 155 -61.5 234t-203.5 79t-300 -84l-37 86q173 84 346 84q261 0 325 -211q111 213 347 213q184 0 289.5 -134.5t105.5 -363.5v-80h-715q0 -460 348 -460q85 0 150 12t174 57v-90q-92 -41 -165 -55t-161 -14z" />
    <glyph glyph-name="ccedilla" unicode="&#xe7;" horiz-adv-x="973" 
d="M465 -403q160 0 160 108q0 94 -193 121l86 161q-164 25 -267 140q-132 147 -132 413t137 418q137 150 375 150q141 0 270 -49l-27 -88q-141 47 -245 47q-200 0 -303 -124t-103 -349q0 -227 103 -351t288 -124q148 0 275 53v-92q-104 -51 -273 -51h-6l-55 -97
q168 -37 168 -174q1 -101 -67 -151t-189 -50q-68 0 -94 11v88q30 -10 92 -10z" />
    <glyph glyph-name="egrave" unicode="&#xe8;" horiz-adv-x="1124" 
d="M586 1020q-151 0 -246 -104t-111 -298h672q0 190 -82 296t-233 106zM119 534q0 262 128 418q129 156 333 156t315 -134t111 -364v-80h-783q3 -224 105 -342t293 -118q93 0 163 13t179 56v-90q-159 -69 -342 -69q-237 0 -369 146t-133 408zM685 1241h-69q-96 79 -188 171
t-126 140v17h142q26 -48 98 -142t143 -170v-16z" />
    <glyph glyph-name="eacute" unicode="&#xe9;" horiz-adv-x="1124" 
d="M586 1020q-151 0 -246 -104t-111 -298h672q0 190 -82 296t-233 106zM119 534q0 262 128 418q129 156 333 156t315 -134t111 -364v-80h-783q3 -224 105 -342t293 -118q93 0 163 13t179 56v-90q-159 -69 -342 -69q-237 0 -369 146t-133 408zM452 1241v16q72 79 144 171
t98 141h141v-17q-81 -117 -313 -311h-70z" />
    <glyph glyph-name="ecircumflex" unicode="&#xea;" horiz-adv-x="1124" 
d="M586 1020q-151 0 -246 -104t-111 -298h672q0 190 -82 296t-233 106zM119 534q0 262 128 418q129 156 333 156t315 -134t111 -364v-80h-783q3 -224 105 -342t293 -118q93 0 163 13t179 56v-90q-159 -69 -342 -69q-237 0 -369 146t-133 408zM872 1241h-70
q-122 101 -221 207q-108 -114 -221 -207h-70v16q151 163 242 312h98q68 -120 242 -312v-16z" />
    <glyph glyph-name="edieresis" unicode="&#xeb;" horiz-adv-x="1124" 
d="M586 1020q-151 0 -246 -104t-111 -298h672q0 190 -82 296t-233 106zM119 534q0 262 128 418q129 156 333 156t315 -134t111 -364v-80h-783q3 -224 105 -342t293 -118q93 0 163 13t179 56v-90q-159 -69 -342 -69q-237 0 -369 146t-133 408zM712 1389q0 86 64 86t63 -86
q1 -86 -63 -86t-64 86zM331 1389q-1 86 63 86t64 -86t-64 -86t-63 86z" />
    <glyph glyph-name="igrave" unicode="&#xec;" horiz-adv-x="463" 
d="M281 0h-99v1087h99v-1087zM349 1241h-69q-96 79 -188 171t-126 140v17h142q26 -48 98 -142t143 -170v-16z" />
    <glyph glyph-name="iacute" unicode="&#xed;" horiz-adv-x="463" 
d="M281 0h-99v1087h99v-1087zM107 1241v16q73 79 145 171t97 141h141v-17q-81 -117 -313 -311h-70z" />
    <glyph glyph-name="icircumflex" unicode="&#xee;" horiz-adv-x="463" 
d="M281 0h-99v1087h99v-1087zM524 1241h-70q-122 101 -221 207q-108 -114 -221 -207h-70v16q151 163 242 312h98q68 -120 242 -312v-16z" />
    <glyph glyph-name="idieresis" unicode="&#xef;" horiz-adv-x="463" 
d="M281 0h-99v1087h99v-1087zM360 1389q0 86 64 86t63 -86q1 -86 -63 -86t-64 86zM-21 1389q-1 86 63 86t64 -86t-64 -86t-63 86z" />
    <glyph glyph-name="eth" unicode="&#xf0;" horiz-adv-x="1174" 
d="M950 557q0 146 -97 228.5t-275 82.5q-358 0 -357 -405q0 -186 94.5 -289.5t270.5 -103.5t270 123t94 364zM748 1343q307 -301 307 -807q0 -252 -123.5 -404t-343.5 -152t-345.5 130t-125.5 360t126.5 359t331.5 129t347 -129l4 2q-64 270 -269 459l-270 -157l-49 77
l244 146q-86 62 -199 119l45 81q147 -69 248 -145l225 137l49 -84z" />
    <glyph glyph-name="ntilde" unicode="&#xf1;" horiz-adv-x="1208" 
d="M940 0v705q0 165 -69 239t-214 74q-195 0 -285 -98t-91 -320v-600h-99v1087h84l19 -149h6q106 170 377 170q370 0 370 -397v-711h-98zM779 1325q93 0 125 156h76q-16 -116 -69 -177t-128 -61t-180 90q-33 26 -63 46t-68 20q-84 0 -117 -156h-73q10 111 63 175t137 63
q48 0 88 -25t78 -56t70 -53t61 -22z" />
    <glyph glyph-name="ograve" unicode="&#xf2;" horiz-adv-x="1200" 
d="M223 546q1 -224 99 -350t278 -126t278 126t99 350t-99 348t-280 124t-278 -124t-97 -348zM1081 543q0 -263 -129 -413t-356 -150q-143 0 -252 69t-167 198t-58 298q0 267 129 415q130 148 354 148t352 -150t127 -415zM718 1241h-69q-97 79 -189 171t-125 140v17h142
q27 -48 99 -142t142 -170v-16z" />
    <glyph glyph-name="oacute" unicode="&#xf3;" horiz-adv-x="1200" 
d="M223 546q1 -224 99 -350t278 -126t278 126t99 350t-99 348t-280 124t-278 -124t-97 -348zM1081 543q0 -263 -129 -413t-356 -150q-143 0 -252 69t-167 198t-58 298q0 267 129 415q130 148 354 148t352 -150t127 -415zM499 1241v16q73 79 145 171t97 141h141v-17
q-81 -117 -313 -311h-70z" />
    <glyph glyph-name="ocircumflex" unicode="&#xf4;" horiz-adv-x="1200" 
d="M223 546q1 -224 99 -350t278 -126t278 126t99 350t-99 348t-280 124t-278 -124t-97 -348zM1081 543q0 -263 -129 -413t-356 -150q-143 0 -252 69t-167 198t-58 298q0 267 129 415q130 148 354 148t352 -150t127 -415zM891 1241h-70q-122 101 -221 207
q-108 -114 -221 -207h-70v16q151 163 242 312h98q68 -120 242 -312v-16z" />
    <glyph glyph-name="otilde" unicode="&#xf5;" horiz-adv-x="1200" 
d="M223 546q1 -224 99 -350t278 -126t278 126t99 350t-99 348t-280 124t-278 -124t-97 -348zM1081 543q0 -263 -129 -413t-356 -150q-143 0 -252 69t-167 198t-58 298q0 267 129 415q130 148 354 148t352 -150t127 -415zM761 1325q93 0 125 156h76q-16 -116 -69 -177
t-128 -61t-180 90q-33 26 -63 46t-68 20q-84 0 -117 -156h-73q10 111 63 175t137 63q48 0 88 -25t78 -56t70 -53t61 -22z" />
    <glyph glyph-name="odieresis" unicode="&#xf6;" horiz-adv-x="1200" 
d="M223 546q1 -224 99 -350t278 -126t278 126t99 350t-99 348t-280 124t-278 -124t-97 -348zM1081 543q0 -263 -129 -413t-356 -150q-143 0 -252 69t-167 198t-58 298q0 267 129 415q130 148 354 148t352 -150t127 -415zM727 1389q-1 86 63 86t64 -86t-64 -86t-63 86z
M346 1389q0 86 64 86t63 -86q1 -86 -63 -86t-64 86z" />
    <glyph glyph-name="divide" unicode="&#xf7;" 
d="M504 371q0 98 81 98t81 -98q0 -53 -24 -76t-58 -23t-57 23t-23 76zM504 1075q0 99 81 99t81 -99q0 -52 -24 -75t-58 -23t-57 23t-23 75zM111 682v82h948v-82h-948z" />
    <glyph glyph-name="oslash" unicode="&#xf8;" horiz-adv-x="1200" 
d="M977 528q0 207 -72 326l-543 -702q94 -82 238 -82q180 0 278.5 125.5t98.5 332.5zM223 558q0 -213 78 -335l543 705q-98 90 -262 90t-261.5 -123.5t-97.5 -336.5zM1081 534q0 -255 -129 -404.5t-356 -149.5q-173 0 -291 98l-86 -113l-72 58l93 120q-121 153 -121 411
t129 406t354 148q179 0 301 -104l96 124l74 -55l-104 -137q112 -147 112 -402z" />
    <glyph glyph-name="ugrave" unicode="&#xf9;" horiz-adv-x="1208" 
d="M268 1087v-704q0 -165 69 -239t214 -74q193 0 285 98t92 319v600h98v-1087h-84l-18 150h-6q-106 -170 -377 -170q-371 0 -371 397v710h98zM687 1241h-69q-96 79 -188 171t-126 140v17h142q26 -48 98 -142t143 -170v-16z" />
    <glyph glyph-name="uacute" unicode="&#xfa;" horiz-adv-x="1208" 
d="M268 1087v-704q0 -165 69 -239t214 -74q193 0 285 98t92 319v600h98v-1087h-84l-18 150h-6q-106 -170 -377 -170q-371 0 -371 397v710h98zM495 1241v16q73 79 145 171t97 141h141v-17q-81 -117 -313 -311h-70z" />
    <glyph glyph-name="ucircumflex" unicode="&#xfb;" horiz-adv-x="1208" 
d="M268 1087v-704q0 -165 69 -239t214 -74q193 0 285 98t92 319v600h98v-1087h-84l-18 150h-6q-106 -170 -377 -170q-371 0 -371 397v710h98zM895 1241h-70q-122 101 -221 207q-108 -114 -221 -207h-70v16q151 163 242 312h98q68 -120 242 -312v-16z" />
    <glyph glyph-name="udieresis" unicode="&#xfc;" horiz-adv-x="1208" 
d="M268 1087v-704q0 -165 69 -239t214 -74q193 0 285 98t92 319v600h98v-1087h-84l-18 150h-6q-106 -170 -377 -170q-371 0 -371 397v710h98zM731 1389q-1 86 63 86t64 -86t-64 -86t-63 86zM350 1389q0 86 64 86t63 -86q1 -86 -63 -86t-64 86z" />
    <glyph glyph-name="yacute" unicode="&#xfd;" horiz-adv-x="940" 
d="M140 -492q-66 0 -136 21v86q58 -16 117 -16q107 1 169 99q40 63 126 302l-416 1087h102l230 -610q105 -281 133 -379h6q42 129 137 385l230 604h102l-487 -1263q-59 -154 -99 -208t-94 -81t-120 -27zM361 1241v16q73 79 145 171t97 141h141v-17q-81 -117 -313 -311h-70z
" />
    <glyph glyph-name="thorn" unicode="&#xfe;" horiz-adv-x="1219" 
d="M632 68q180 0 271.5 124t91.5 347q0 479 -348 479q-193 0 -279.5 -105t-86.5 -354v-18q0 -255 85.5 -364t265.5 -109zM649 1108q220 0 335.5 -144.5t115.5 -416.5t-121.5 -419.5t-331.5 -147.5q-251 0 -366 188h-7l3 -84q4 -74 4 -162v-414h-99v2048h99v-391l-7 -247h7
q114 190 368 190z" />
    <glyph glyph-name="ydieresis" unicode="&#xff;" horiz-adv-x="940" 
d="M140 -492q-66 0 -136 21v86q58 -16 117 -16q107 1 169 99q40 63 126 302l-416 1087h102l230 -610q105 -281 133 -379h6q42 129 137 385l230 604h102l-487 -1263q-59 -154 -99 -208t-94 -81t-120 -27zM595 1389q-1 86 63 86t64 -86t-64 -86t-63 86zM214 1389q0 86 64 86
t63 -86q1 -86 -63 -86t-64 86z" />
    <glyph glyph-name="Amacron" unicode="&#x100;" horiz-adv-x="1229" 
d="M354 608h523l-199 527q-25 62 -60 172q-27 -96 -59 -174zM911 516h-594l-204 -516h-113l588 1468h65l576 -1468h-115zM342 1671h555v-82h-555v82z" />
    <glyph glyph-name="amacron" unicode="&#x101;" horiz-adv-x="1085" 
d="M442 70q174 0 274 100t101 276v107l-190 -8q-229 -11 -327 -71t-97 -176t63 -172t176 -56zM415 -20q-139 0 -228 82t-89 234t132 240t384 93l207 6v72q0 155 -63 234q-62 79 -208 79t-308 -84l-37 86q179 84 356 84t265 -93t89 -290v-723h-73l-25 172h-8
q-83 -104 -169 -148t-225 -44zM274 1333h555v-82h-555v82z" />
    <glyph glyph-name="Abreve" unicode="&#x102;" horiz-adv-x="1229" 
d="M354 608h523l-199 527q-25 62 -60 172q-27 -96 -59 -174zM911 516h-594l-204 -516h-113l588 1468h65l576 -1468h-115zM614 1579q-250 0 -272 246h82q14 -87 60 -125t135 -37q89 -1 135 37t61 125h80q-31 -246 -281 -246z" />
    <glyph glyph-name="abreve" unicode="&#x103;" horiz-adv-x="1085" 
d="M442 70q174 0 274 100t101 276v107l-190 -8q-229 -11 -327 -71t-97 -176t63 -172t176 -56zM415 -20q-139 0 -228 82t-89 234t132 240t384 93l207 6v72q0 155 -63 234q-62 79 -208 79t-308 -84l-37 86q179 84 356 84t265 -93t89 -290v-723h-73l-25 172h-8
q-83 -104 -169 -148t-225 -44zM550 1241q-250 0 -273 246h82q15 -87 61 -125t134 -37q88 -1 134 37t62 125h80q-30 -246 -280 -246z" />
    <glyph glyph-name="Aogonek" unicode="&#x104;" horiz-adv-x="1229" 
d="M354 608h523l-199 527q-25 62 -60 172q-27 -96 -59 -174zM962 -264q0 146 152 264l-203 516h-594l-204 -516h-113l588 1468h65l576 -1468h-25q-72 -64 -108 -120t-35 -128q0 -110 106 -110q49 0 82 12v-84q-40 -16 -114 -16q-73 0 -123 48t-50 134z" />
    <glyph glyph-name="aogonek" unicode="&#x105;" horiz-adv-x="1085" 
d="M442 70q174 0 274.5 99.5t100.5 276.5v107l-190 -8q-229 -11 -326.5 -71.5t-97.5 -175.5t62.5 -171.5t176.5 -56.5zM673 -264q0 144 167 277l-23 159h-8q-82 -105 -168.5 -148.5t-225.5 -43.5t-228 82t-89 234t132.5 240t383.5 93l207 6v72q0 155 -62.5 234t-208.5 79
t-308 -84l-37 86q179 84 356 84t265.5 -93t88.5 -290v-723q-72 -63 -107.5 -119.5t-35.5 -128.5q0 -110 106 -110q49 0 82 12v-84q-40 -16 -114 -16t-123.5 47.5t-49.5 134.5z" />
    <glyph glyph-name="Cacute" unicode="&#x106;" horiz-adv-x="1272" 
d="M831 1391q-275 0 -433 -176q-158 -175 -158 -485t149 -483t426 -173q184 0 338 47v-90q-145 -51 -362 -51q-308 0 -485 199t-177 556q1 223 85 393t242 262t371 93q212 0 381 -80l-41 -92q-160 80 -336 80zM657 1579v16q73 79 145 171t97 141h141v-17q-81 -117 -313 -311
h-70z" />
    <glyph glyph-name="cacute" unicode="&#x107;" horiz-adv-x="973" 
d="M616 -20q-233 0 -365 147t-132 413t137 418q137 150 375 150q141 0 270 -49l-27 -88q-141 47 -245 47q-200 0 -303 -124t-103 -349q0 -227 103 -351t288 -124q148 0 275 53v-92q-104 -51 -273 -51zM444 1241v16q72 79 144 171t98 141h141v-17q-81 -117 -313 -311h-70z
" />
    <glyph glyph-name="Ccircumflex" unicode="&#x108;" horiz-adv-x="1272" 
d="M831 1391q-275 0 -433 -176q-158 -175 -158 -485t149 -483t426 -173q184 0 338 47v-90q-145 -51 -362 -51q-308 0 -485 199t-177 556q1 223 85 393t242 262t371 93q212 0 381 -80l-41 -92q-160 80 -336 80zM1055 1579h-70q-122 101 -221 207q-108 -114 -221 -207h-70v16
q151 163 242 312h98q68 -120 242 -312v-16z" />
    <glyph glyph-name="ccircumflex" unicode="&#x109;" horiz-adv-x="973" 
d="M616 -20q-233 0 -365 147t-132 413t137 418q137 150 375 150q141 0 270 -49l-27 -88q-141 47 -245 47q-200 0 -303 -124t-103 -349q0 -227 103 -351t288 -124q148 0 275 53v-92q-104 -51 -273 -51zM872 1241h-70q-122 101 -221 207q-108 -114 -221 -207h-70v16
q151 163 242 312h98q68 -120 242 -312v-16z" />
    <glyph glyph-name="Cdot" unicode="&#x10a;" horiz-adv-x="1272" 
d="M831 1391q-275 0 -433 -176q-158 -175 -158 -485t149 -483t426 -173q184 0 338 47v-90q-145 -51 -362 -51q-308 0 -485 199t-177 556q1 223 85 393t242 262t371 93q212 0 381 -80l-41 -92q-160 80 -336 80zM781 1630q-64 0 -64 96q1 96 65 97q64 0 64 -96q0 -45 -17 -71
t-48 -26z" />
    <glyph glyph-name="cdot" unicode="&#x10b;" horiz-adv-x="973" 
d="M616 -20q-233 0 -365 147t-132 413t137 418q137 150 375 150q141 0 270 -49l-27 -88q-141 47 -245 47q-200 0 -303 -124t-103 -349q0 -227 103 -351t288 -124q148 0 275 53v-92q-104 -51 -273 -51zM586 1292q-64 0 -64 96t64 97q64 0 65 -96q0 -45 -17 -71t-48 -26z" />
    <glyph glyph-name="Ccaron" unicode="&#x10c;" horiz-adv-x="1272" 
d="M831 1391q-275 0 -433 -176q-158 -175 -158 -485t149 -483t426 -173q184 0 338 47v-90q-145 -51 -362 -51q-308 0 -485 199t-177 556q1 223 85 393t242 262t371 93q212 0 381 -80l-41 -92q-160 80 -336 80zM469 1907h70q114 -94 221 -207q108 114 221 207h70v-17
q-170 -188 -242 -311h-98q-76 128 -242 311v17z" />
    <glyph glyph-name="ccaron" unicode="&#x10d;" horiz-adv-x="973" 
d="M616 -20q-233 0 -365 147t-132 413t137 418q137 150 375 150q141 0 270 -49l-27 -88q-141 47 -245 47q-200 0 -303 -124t-103 -349q0 -227 103 -351t288 -124q148 0 275 53v-92q-104 -51 -273 -51zM290 1569h70q114 -94 221 -207q108 114 221 207h70v-17
q-170 -188 -242 -311h-98q-76 128 -242 311v17z" />
    <glyph glyph-name="Dcaron" unicode="&#x10e;" horiz-adv-x="1446" 
d="M1206 741q0 315 -160 473t-468 158h-269v-1282h242q655 0 655 651zM1317 736q0 -360 -193 -548t-567 -188h-350v1462h395q350 0 532 -183t183 -543zM379 1907h70q114 -94 221 -207q108 114 221 207h70v-17q-170 -188 -242 -311h-98q-76 128 -242 311v17z" />
    <glyph glyph-name="dcaron" unicode="&#x10f;" horiz-adv-x="1219" 
d="M586 1018q-362 0 -363 -488q0 -462 359 -462q184 0 270 107t86 353v17q0 253 -84 363t-268 110zM580 1108q118 0 204 -43t154 -147h6q-6 126 -6 247v391h98v-1556h-65l-25 166h-8q-124 -186 -352 -186t-348 140q-119 140 -119 415t118 424t343 149zM1141 1229v16
q21 45 48 139t38 172h112v-14q-39 -154 -145 -313h-53z" />
    <glyph glyph-name="Dcroat" unicode="&#x110;" horiz-adv-x="1466" 
d="M1206 741q0 315 -160 473t-468 158h-269v-600h406v-94h-406v-588h242q655 0 655 651zM1317 736q0 -360 -193 -548t-567 -188h-350v678h-160v94h160v690h395q350 0 532 -183t183 -543z" />
    <glyph glyph-name="dcroat" unicode="&#x111;" horiz-adv-x="1219" 
d="M586 1018q-362 0 -363 -488q0 -462 359 -462q184 0 270 107t86 353v17q0 252 -84 362.5t-268 110.5zM580 1108q118 0 204 -43t154 -147h6q-6 126 -6 247v107h-473v82h473v202h98v-202h156v-82h-156v-1272h-65l-25 166h-8q-124 -186 -352 -186t-347.5 140t-119.5 415
t118 424t343 149z" />
    <glyph glyph-name="Emacron" unicode="&#x112;" horiz-adv-x="1130" 
d="M1006 0h-799v1462h799v-94h-697v-553h658v-94h-658v-627h697v-94zM322 1671h555v-82h-555v82z" />
    <glyph glyph-name="emacron" unicode="&#x113;" horiz-adv-x="1124" 
d="M586 1020q-151 0 -246 -104t-111 -298h672q0 190 -82 296t-233 106zM119 534q0 262 128 418q129 156 333 156t315 -134t111 -364v-80h-783q3 -224 105 -342t293 -118q93 0 163 13t179 56v-90q-159 -69 -342 -69q-237 0 -369 146t-133 408zM309 1333h555v-82h-555v82z" />
    <glyph glyph-name="Ebreve" unicode="&#x114;" horiz-adv-x="1130" 
d="M1006 0h-799v1462h799v-94h-697v-553h658v-94h-658v-627h697v-94zM594 1579q-250 0 -273 246h82q15 -87 61 -125t134 -37q88 -1 134 37t62 125h80q-30 -246 -280 -246z" />
    <glyph glyph-name="ebreve" unicode="&#x115;" horiz-adv-x="1124" 
d="M586 1020q-151 0 -246 -104t-111 -298h672q0 190 -82 296t-233 106zM119 534q0 262 128 418q129 156 333 156t315 -134t111 -364v-80h-783q3 -224 105 -342t293 -118q93 0 163 13t179 56v-90q-159 -69 -342 -69q-237 0 -369 146t-133 408zM578 1241q-250 0 -272 246h82
q14 -87 60 -125t135 -37q89 -1 135 37t61 125h80q-31 -246 -281 -246z" />
    <glyph glyph-name="Edotaccent" unicode="&#x116;" horiz-adv-x="1130" 
d="M1006 0h-799v1462h799v-94h-697v-553h658v-94h-658v-627h697v-94zM607 1601q-64 1 -64 97q1 96 65 96t64 -96q0 -45 -17 -71t-48 -26z" />
    <glyph glyph-name="edotaccent" unicode="&#x117;" horiz-adv-x="1124" 
d="M586 1020q-151 0 -246 -104t-111 -298h672q0 190 -82 296t-233 106zM119 534q0 262 128 418q129 156 333 156t315 -134t111 -364v-80h-783q3 -224 105 -342t293 -118q93 0 163 13t179 56v-90q-159 -69 -342 -69q-237 0 -369 146t-133 408zM576 1292q-64 0 -64 96t64 97
q64 0 65 -96q0 -45 -17 -71t-48 -26z" />
    <glyph glyph-name="Eogonek" unicode="&#x118;" horiz-adv-x="1130" 
d="M655 -264q0 146 152 264h-600v1462h799v-94h-697v-553h658v-94h-658v-627h697v-94h-109q-71 -64 -107 -120t-36 -128q0 -110 106 -110q49 0 82 12v-84q-40 -16 -114 -16t-124 48t-49 134z" />
    <glyph glyph-name="eogonek" unicode="&#x119;" horiz-adv-x="1124" 
d="M586 1020q-151 0 -246 -104t-111 -298h672q0 190 -82 296t-233 106zM119 534q0 262 128 418q129 156 333 156t315 -134t111 -364v-80h-783q3 -224 105 -342t293 -118q93 0 163 13t179 56v-90q-49 -21 -94 -35q-53 -50 -85 -102q-32 -51 -32 -123q0 -110 106 -110
q49 0 82 12v-84q-40 -16 -114 -16q-74 -1 -124 47t-49 126q0 121 97 224q-60 -8 -129 -8q-237 0 -369 146t-133 408z" />
    <glyph glyph-name="Ecaron" unicode="&#x11a;" horiz-adv-x="1130" 
d="M1006 0h-799v1462h799v-94h-697v-553h658v-94h-658v-627h697v-94zM307 1907h70q114 -94 221 -207q108 114 221 207h70v-17q-170 -188 -242 -311h-98q-76 128 -242 311v17z" />
    <glyph glyph-name="ecaron" unicode="&#x11b;" horiz-adv-x="1124" 
d="M586 1020q-151 0 -246 -104t-111 -298h672q0 190 -82 296t-233 106zM119 534q0 262 128 418q129 156 333 156t315 -134t111 -364v-80h-783q3 -224 105 -342t293 -118q93 0 163 13t179 56v-90q-159 -69 -342 -69q-237 0 -369 146t-133 408zM284 1569h70q114 -94 221 -207
q108 114 221 207h70v-17q-170 -188 -242 -311h-98q-76 128 -242 311v17z" />
    <glyph glyph-name="Gcircumflex" unicode="&#x11c;" horiz-adv-x="1481" 
d="M782 737h539v-667q-212 -90 -477 -90q-346 0 -530 196t-185 553q-1 223 91 395t262 267q170 94 401 94q230 0 420 -88l-41 -92q-190 88 -394 88q-288 -1 -458 -179t-170 -494t161 -484q161 -166 473 -166q202 0 343 57v514h-435v96zM1094 1579h-70q-122 101 -221 207
q-108 -114 -221 -207h-70v16q151 163 242 312h98q68 -120 242 -312v-16z" />
    <glyph glyph-name="gcircumflex" unicode="&#x11d;" horiz-adv-x="1071" 
d="M233 752q1 -130 77 -200t208 -69q132 0 204 69t73 204q-1 134 -75 204t-206 70t-206 -74t-75 -204zM150 -184q0 -224 333 -224q428 0 428 273q0 98 -67 142t-217 44h-178q-299 0 -299 -235zM285 250q-1 -52 39 -76t133 -24h190q177 0 271 -72t94 -211q0 -171 -140 -265
t-370 -94q-232 0 -344 79t-113 220q-1 112 69 186t189 101q-49 22 -79 60t-29 88q0 109 139 192q-95 38 -148 122t-53 192q-1 164 103 262t280 98q107 0 166 -21h348v-69l-225 -14q90 -112 90 -258q-1 -146 -105 -242q-104 -98 -280 -98q-74 0 -104 6q-121 -64 -121 -162z
M812 1241h-70q-122 101 -221 207q-108 -114 -221 -207h-70v16q151 163 242 312h98q68 -120 242 -312v-16z" />
    <glyph glyph-name="Gbreve" unicode="&#x11e;" horiz-adv-x="1481" 
d="M782 737h539v-667q-212 -90 -477 -90q-346 0 -530 196t-185 553q-1 223 91 395t262 267q170 94 401 94q230 0 420 -88l-41 -92q-190 88 -394 88q-288 -1 -458 -179t-170 -494t161 -484q161 -166 473 -166q202 0 343 57v514h-435v96zM796 1579q-250 0 -272 246h82
q14 -87 60 -125t135 -37q89 -1 135 37t61 125h80q-31 -246 -281 -246z" />
    <glyph glyph-name="gbreve" unicode="&#x11f;" horiz-adv-x="1071" 
d="M233 752q1 -130 77 -200t208 -69q132 0 204 69t73 204q-1 134 -75 204t-206 70t-206 -74t-75 -204zM150 -184q0 -224 333 -224q428 0 428 273q0 98 -67 142t-217 44h-178q-299 0 -299 -235zM285 250q-1 -52 39 -76t133 -24h190q177 0 271 -72t94 -211q0 -171 -140 -265
t-370 -94q-232 0 -344 79t-113 220q-1 112 69 186t189 101q-49 22 -79 60t-29 88q0 109 139 192q-95 38 -148 122t-53 192q-1 164 103 262t280 98q107 0 166 -21h348v-69l-225 -14q90 -112 90 -258q-1 -146 -105 -242q-104 -98 -280 -98q-74 0 -104 6q-121 -64 -121 -162z
M510 1241q-250 0 -272 246h82q14 -87 60 -125t135 -37q89 -1 135 37t61 125h80q-31 -246 -281 -246z" />
    <glyph glyph-name="Gdot" unicode="&#x120;" horiz-adv-x="1481" 
d="M782 737h539v-667q-212 -90 -477 -90q-346 0 -530 196t-185 553q-1 223 91 395t262 267q170 94 401 94q230 0 420 -88l-41 -92q-190 88 -394 88q-288 -1 -458 -179t-170 -494t161 -484q161 -166 473 -166q202 0 343 57v514h-435v96zM817 1630q-64 0 -64 96q1 96 65 97
q64 0 64 -96q0 -45 -17 -71t-48 -26z" />
    <glyph glyph-name="gdot" unicode="&#x121;" horiz-adv-x="1071" 
d="M233 752q1 -130 77 -200t208 -69q132 0 204 69t73 204q-1 134 -75 204t-206 70t-206 -74t-75 -204zM150 -184q0 -224 333 -224q428 0 428 273q0 98 -67 142t-217 44h-178q-299 0 -299 -235zM285 250q-1 -52 39 -76t133 -24h190q177 0 271 -72t94 -211q0 -171 -140 -265
t-370 -94q-232 0 -344 79t-113 220q-1 112 69 186t189 101q-49 22 -79 60t-29 88q0 109 139 192q-95 38 -148 122t-53 192q-1 164 103 262t280 98q107 0 166 -21h348v-69l-225 -14q90 -112 90 -258q-1 -146 -105 -242q-104 -98 -280 -98q-74 0 -104 6q-121 -64 -121 -162z
M527 1292q-64 0 -64 96q1 96 65 97q64 0 64 -96q0 -45 -17 -71t-48 -26z" />
    <glyph glyph-name="Gcommaaccent" unicode="&#x122;" horiz-adv-x="1481" 
d="M782 737h539v-667q-212 -90 -477 -90q-346 0 -530 196t-185 553q-1 223 91 395t262 267q170 94 401 94q230 0 420 -88l-41 -92q-190 88 -394 88q-288 -1 -458 -179t-170 -494t161 -484q161 -166 473 -166q202 0 343 57v514h-435v96zM881 -125v-14q-47 -169 -145 -314h-54
v17q59 128 86 311h113z" />
    <glyph glyph-name="gcommaaccent" unicode="&#x123;" horiz-adv-x="1071" 
d="M233 752q1 -130 77 -200t208 -69q132 0 204 69t73 204q-1 134 -75 204t-206 70t-206 -74t-75 -204zM150 -184q0 -224 333 -224q428 0 428 273q0 98 -67 142t-217 44h-178q-299 0 -299 -235zM285 250q-1 -52 39 -76t133 -24h190q177 0 271 -72t94 -211q0 -171 -140 -265
t-370 -94q-232 0 -344 79t-113 220q-1 112 69 186t189 101q-49 22 -79 60t-29 88q0 109 139 192q-95 38 -148 122t-53 192q-1 164 103 262t280 98q107 0 166 -21h348v-69l-225 -14q90 -112 90 -258q-1 -146 -105 -242q-104 -98 -280 -98q-74 0 -104 6q-121 -64 -121 -162z
M471 1241v14q19 77 61 165t84 149h53v-17q-27 -58 -53 -159t-33 -152h-112z" />
    <glyph glyph-name="Hcircumflex" unicode="&#x124;" horiz-adv-x="1473" 
d="M1266 0h-103v719h-854v-719h-102v1462h102v-649h854v649h103v-1462zM1026 1579h-70q-122 101 -221 207q-108 -114 -221 -207h-70v16q151 163 242 312h98q68 -120 242 -312v-16z" />
    <glyph glyph-name="hcircumflex" unicode="&#x125;" horiz-adv-x="1208" 
d="M940 0v705q0 165 -69 239t-214 74q-195 0 -285 -98t-91 -320v-600h-99v1556h99v-495l-5 -139h7q61 98 154 142t231 44q370 0 370 -397v-711h-98zM895 1634h-70q-122 101 -221 207q-108 -114 -221 -207h-70v16q151 163 242 312h98q68 -120 242 -312v-16z" />
    <glyph glyph-name="Hbar" unicode="&#x126;" horiz-adv-x="1473" 
d="M1163 813v285h-854v-285h854zM207 1192v270h102v-270h854v270h103v-270h207v-94h-207v-1098h-103v719h-854v-719h-102v1098h-207v94h207z" />
    <glyph glyph-name="hbar" unicode="&#x127;" horiz-adv-x="1208" 
d="M940 0v674q0 164 -69 238.5t-214 74.5q-197 0 -286.5 -98t-89.5 -320v-569h-99v1272h-155v82h155v202h99v-202h473v-82h-473v-242l-5 -139h7q61 98 154 142t231 44q370 0 370 -397v-680h-98z" />
    <glyph glyph-name="Itilde" unicode="&#x128;" horiz-adv-x="516" 
d="M207 0v1462h102v-1462h-102zM419 1663q93 0 125 156h76q-16 -116 -69 -177t-128 -61t-180 90q-33 26 -63 46t-68 20q-84 0 -117 -156h-73q10 111 63 175t137 63q48 0 88 -25t78 -56t70 -53t61 -22z" />
    <glyph glyph-name="itilde" unicode="&#x129;" horiz-adv-x="463" 
d="M281 0h-99v1087h99v-1087zM390 1325q93 0 125 156h76q-16 -116 -69 -177t-128 -61t-180 90q-32 26 -62 46t-70 20q-84 0 -116 -156h-73q10 111 63 175t137 63q48 0 88 -25t78 -56t70 -53t61 -22z" />
    <glyph glyph-name="Imacron" unicode="&#x12a;" horiz-adv-x="516" 
d="M207 0v1462h102v-1462h-102zM-17 1671h555v-82h-555v82z" />
    <glyph glyph-name="imacron" unicode="&#x12b;" horiz-adv-x="463" 
d="M281 0h-99v1087h99v-1087zM-44 1333h555v-82h-555v82z" />
    <glyph glyph-name="Ibreve" unicode="&#x12c;" horiz-adv-x="516" 
d="M207 0v1462h102v-1462h-102zM254 1579q-250 0 -272 246h82q14 -87 60 -125t135 -37q89 -1 135 37t61 125h80q-31 -246 -281 -246z" />
    <glyph glyph-name="ibreve" unicode="&#x12d;" horiz-adv-x="463" 
d="M281 0h-99v1087h99v-1087zM228 1241q-250 0 -272 246h82q14 -87 60 -125t135 -37q89 -1 135 37t61 125h80q-31 -246 -281 -246z" />
    <glyph glyph-name="Iogonek" unicode="&#x12e;" horiz-adv-x="516" 
d="M65 -264q0 146 152 264h-10v1462h102v-1462h-2q-71 -64 -107 -120t-36 -128q0 -110 106 -110q49 0 82 12v-84q-40 -16 -114 -16t-124 48t-49 134z" />
    <glyph glyph-name="iogonek" unicode="&#x12f;" horiz-adv-x="463" 
d="M231 1292q-63 0 -63 96t64 97q64 0 65 -96q1 -45 -17 -71t-49 -26zM39 -264q0 146 152 264h-9v1087h99v-1087q-71 -64 -107 -120t-36 -128q0 -110 106 -110q49 0 82 12v-84q-40 -16 -114 -16t-124 48t-49 134z" />
    <glyph glyph-name="Idotaccent" unicode="&#x130;" horiz-adv-x="516" 
d="M207 0v1462h102v-1462h-102zM258 1630q-64 0 -64 96t64 97q64 0 65 -96q0 -45 -17 -71t-48 -26z" />
    <glyph glyph-name="dotlessi" unicode="&#x131;" horiz-adv-x="463" 
d="M281 0h-99v1087h99v-1087z" />
    <glyph glyph-name="IJ" unicode="&#x132;" horiz-adv-x="1022" 
d="M207 0v1462h102v-1462h-102zM483 -369q-92 0 -151 27v88q78 -20 149 -20q242 0 242 264v1472h102v-1462q0 -369 -342 -369z" />
    <glyph glyph-name="ij" unicode="&#x133;" horiz-adv-x="926" 
d="M231 1292q-63 0 -63 96t64 97q64 0 65 -96q1 -45 -17 -71t-49 -26zM281 0h-99v1087h99v-1087zM694 1292q-63 0 -63 96q1 96 65 97q64 0 64 -96q0 -45 -18 -71t-48 -26zM500 -492q-80 0 -135 25v86q69 -20 129 -20q151 0 151 176v1312h99v-1298q0 -135 -64 -208t-180 -73z
" />
    <glyph glyph-name="Jcircumflex" unicode="&#x134;" horiz-adv-x="506" 
d="M-33 -369q-92 0 -151 27v88q78 -20 149 -20q242 0 242 264v1472h102v-1462q0 -369 -342 -369zM548 1579h-70q-122 101 -221 207q-108 -114 -221 -207h-70v16q151 163 242 312h98q68 -120 242 -312v-16z" />
    <glyph glyph-name="jcircumflex" unicode="&#x135;" horiz-adv-x="463" 
d="M37 -492q-80 0 -135 25v86q69 -20 129 -20q151 0 151 176v1312h99v-1298q1 -135 -63 -208t-181 -73zM524 1241h-70q-122 101 -221 207q-108 -114 -221 -207h-70v16q151 163 242 312h98q68 -120 242 -312v-16z" />
    <glyph glyph-name="Kcommaaccent" unicode="&#x136;" horiz-adv-x="1190" 
d="M309 0h-102v1462h102v-760l162 162l573 598h130l-599 -618l615 -844h-125l-561 772l-195 -172v-600zM723 -125v-14q-47 -169 -145 -314h-54v17q59 128 86 311h113z" />
    <glyph glyph-name="kcommaaccent" unicode="&#x137;" horiz-adv-x="991" 
d="M281 0h-99v1556h99v-780l-7 -299h5l555 610h120l-428 -464l465 -623h-119l-413 549l-178 -162v-387zM635 -125v-14q-47 -169 -145 -314h-54v17q59 128 86 311h113z" />
    <glyph glyph-name="kgreenlandic" unicode="&#x138;" horiz-adv-x="991" 
d="M281 0h-99v1087h99v-311l-7 -299h5l555 610h120l-428 -464l465 -623h-119l-413 549l-178 -162v-387z" />
    <glyph glyph-name="Lacute" unicode="&#x139;" horiz-adv-x="1051" 
d="M207 0v1462h102v-1366h697v-96h-799zM226 1579v16q72 79 144 171t98 141h141v-17q-81 -117 -313 -311h-70z" />
    <glyph glyph-name="lacute" unicode="&#x13a;" horiz-adv-x="463" 
d="M281 0h-99v1556h99v-1556zM136 1636v16q72 80 144 172t98 140h141v-17q-81 -117 -313 -311h-70z" />
    <glyph glyph-name="Lcommaaccent" unicode="&#x13b;" horiz-adv-x="1051" 
d="M207 0v1462h102v-1366h697v-96h-799zM660 -125v-14q-47 -169 -145 -314h-54v17q59 128 86 311h113z" />
    <glyph glyph-name="lcommaaccent" unicode="&#x13c;" horiz-adv-x="463" 
d="M281 0h-99v1556h99v-1556zM296 -125v-14q-47 -169 -145 -314h-54v17q59 128 86 311h113z" />
    <glyph glyph-name="Lcaron" unicode="&#x13d;" horiz-adv-x="1051" 
d="M207 0v1462h102v-1366h697v-96h-799zM676 1136v16q21 46 48 140t38 171h112v-14q-39 -154 -145 -313h-53z" />
    <glyph glyph-name="lcaron" unicode="&#x13e;" horiz-adv-x="463" 
d="M281 0h-99v1556h99v-1556zM386 1229v16q21 45 48 139t38 172h112v-14q-39 -154 -145 -313h-53z" />
    <glyph glyph-name="Ldot" unicode="&#x13f;" horiz-adv-x="1051" 
d="M207 0v1462h102v-1366h697v-96h-799zM756 631q-64 1 -64 97t64 96t65 -96q0 -45 -17 -71t-48 -26z" />
    <glyph glyph-name="ldot" unicode="&#x140;" horiz-adv-x="477" 
d="M281 0h-99v1556h99v-1556zM469 580q-64 0 -64 96q1 96 65 97q64 0 64 -96q0 -45 -17 -71t-48 -26z" />
    <glyph glyph-name="Lslash" unicode="&#x141;" horiz-adv-x="1051" 
d="M207 0v551l-137 -86l-41 74l178 112v811h102v-747l324 205l47 -76l-371 -230v-518h697v-96h-799z" />
    <glyph glyph-name="lslash" unicode="&#x142;" horiz-adv-x="463" 
d="M281 0h-99v653l-129 -86l-45 72l174 115v802h99v-739l153 103l43 -70l-196 -131v-719z" />
    <glyph glyph-name="Nacute" unicode="&#x143;" horiz-adv-x="1477" 
d="M1270 0h-103l-866 1298h-8q12 -232 12 -350v-948h-98v1462h102l865 -1296h6q-9 180 -9 342v954h99v-1462zM618 1579v16q72 79 144 171t98 141h141v-17q-81 -117 -313 -311h-70z" />
    <glyph glyph-name="nacute" unicode="&#x144;" horiz-adv-x="1208" 
d="M940 0v705q0 165 -69 239t-214 74q-195 0 -285 -98t-91 -320v-600h-99v1087h84l19 -149h6q106 170 377 170q370 0 370 -397v-711h-98zM489 1241v16q73 79 145 171t97 141h141v-17q-81 -117 -313 -311h-70z" />
    <glyph glyph-name="Ncommaaccent" unicode="&#x145;" horiz-adv-x="1477" 
d="M1270 0h-103l-866 1298h-8q12 -232 12 -350v-948h-98v1462h102l865 -1296h6q-9 180 -9 342v954h99v-1462zM797 -125v-14q-47 -169 -145 -314h-54v17q59 128 86 311h113z" />
    <glyph glyph-name="ncommaaccent" unicode="&#x146;" horiz-adv-x="1208" 
d="M940 0v705q0 165 -69 239t-214 74q-195 0 -285 -98t-91 -320v-600h-99v1087h84l19 -149h6q106 170 377 170q370 0 370 -397v-711h-98zM674 -125v-14q-47 -169 -145 -314h-54v17q59 128 86 311h113z" />
    <glyph glyph-name="Ncaron" unicode="&#x147;" horiz-adv-x="1477" 
d="M1270 0h-103l-866 1298h-8q12 -232 12 -350v-948h-98v1462h102l865 -1296h6q-9 180 -9 342v954h99v-1462zM446 1907h70q114 -94 221 -207q108 114 221 207h70v-17q-170 -188 -242 -311h-98q-76 128 -242 311v17z" />
    <glyph glyph-name="ncaron" unicode="&#x148;" horiz-adv-x="1208" 
d="M940 0v705q0 165 -69 239t-214 74q-195 0 -285 -98t-91 -320v-600h-99v1087h84l19 -149h6q106 170 377 170q370 0 370 -397v-711h-98zM313 1569h70q114 -94 221 -207q108 114 221 207h70v-17q-170 -188 -242 -311h-98q-76 128 -242 311v17z" />
    <glyph glyph-name="napostrophe" unicode="&#x149;" horiz-adv-x="1284" 
d="M1016 0v705q0 165 -69 239t-214 74q-195 0 -285 -98t-91 -320v-600h-99v1087h84l19 -149h6q106 170 377 170q370 0 370 -397v-711h-98zM1 961q70 231 110 501h117l12 -20q-75 -265 -174 -481h-65z" />
    <glyph glyph-name="Eng" unicode="&#x14a;" horiz-adv-x="1477" 
d="M1270 0q0 -369 -342 -369q-93 0 -152 27v88q78 -20 150 -20q241 0 241 264v10l-866 1298h-8q12 -232 12 -350v-948h-98v1462h102l865 -1296h6q-9 180 -9 342v954h99v-1462z" />
    <glyph glyph-name="eng" unicode="&#x14b;" horiz-adv-x="1208" 
d="M795 -492q-79 0 -136 25v86q69 -20 129 -20q152 0 152 176v930q0 164 -73 238.5t-243 74.5t-256.5 -99.5t-86.5 -318.5v-600h-99v1087h84l19 -149h6q54 87 147 128.5t205 41.5q201 0 298 -99t97 -298v-922q0 -134 -62.5 -207.5t-180.5 -73.5z" />
    <glyph glyph-name="Omacron" unicode="&#x14c;" horiz-adv-x="1565" 
d="M240 732q0 -314 140 -484q140 -172 403 -172t403 170t139 486q1 316 -139 486q-140 168 -402 168t-402 -170q-142 -170 -142 -484zM1436 734q0 -348 -174 -552q-174 -202 -480 -202t-479 202q-174 202 -174 552q-1 350 175 550t481 201t478 -201t173 -550zM506 1671h555
v-82h-555v82z" />
    <glyph glyph-name="omacron" unicode="&#x14d;" horiz-adv-x="1200" 
d="M223 546q1 -224 99 -350t278 -126t278 126t99 350t-99 348t-280 124t-278 -124t-97 -348zM1081 543q0 -263 -129 -413t-356 -150q-143 0 -252 69t-167 198t-58 298q0 267 129 415q130 148 354 148t352 -150t127 -415zM324 1333h555v-82h-555v82z" />
    <glyph glyph-name="Obreve" unicode="&#x14e;" horiz-adv-x="1565" 
d="M240 732q0 -314 140 -484q140 -172 403 -172t403 170t139 486q1 316 -139 486q-140 168 -402 168t-402 -170q-142 -170 -142 -484zM1436 734q0 -348 -174 -552q-174 -202 -480 -202t-479 202q-174 202 -174 552q-1 350 175 550t481 201t478 -201t173 -550zM778 1579
q-250 0 -272 246h82q14 -87 60 -125t135 -37q89 -1 135 37t61 125h80q-31 -246 -281 -246z" />
    <glyph glyph-name="obreve" unicode="&#x14f;" horiz-adv-x="1200" 
d="M223 546q1 -224 99 -350t278 -126t278 126t99 350t-99 348t-280 124t-278 -124t-97 -348zM1081 543q0 -263 -129 -413t-356 -150q-143 0 -252 69t-167 198t-58 298q0 267 129 415q130 148 354 148t352 -150t127 -415zM596 1241q-250 0 -273 246h82q15 -87 61 -125
t134 -37q88 -1 134 37t62 125h80q-30 -246 -280 -246z" />
    <glyph glyph-name="Ohungarumlaut" unicode="&#x150;" horiz-adv-x="1565" 
d="M240 732q0 -314 140 -484q140 -172 403 -172t403 170t139 486q1 316 -139 486q-140 168 -402 168t-402 -170q-142 -170 -142 -484zM1436 734q0 -348 -174 -552q-174 -202 -480 -202t-479 202q-174 202 -174 552q-1 350 175 550t481 201t478 -201t173 -550zM1196 1907v-17
q-135 -202 -254 -311h-70v16q31 33 67 90t121 222h136zM858 1907v-17q-135 -202 -254 -311h-70v16q31 33 67 90t121 222h136z" />
    <glyph glyph-name="ohungarumlaut" unicode="&#x151;" horiz-adv-x="1200" 
d="M223 546q1 -224 99 -350t278 -126t278 126t99 350t-99 348t-280 124t-278 -124t-97 -348zM1081 543q0 -263 -129 -413t-356 -150q-143 0 -252 69t-167 198t-58 298q0 267 129 415q130 148 354 148t352 -150t127 -415zM1004 1569v-17q-135 -202 -254 -311h-70v16
q31 33 67 90t121 222h136zM666 1569v-17q-135 -202 -254 -311h-70v16q31 33 67 90t121 222h136z" />
    <glyph glyph-name="OE" unicode="&#x152;" horiz-adv-x="1839" 
d="M782 80q109 0 174 18v1266q-62 16 -172 16q-262 0 -403 -167t-141 -481t140.5 -483t401.5 -169zM1714 0h-756q-76 -16 -176 -16q-305 0 -479 200t-174 549t174.5 547.5t480.5 198.5q78 0 183 -17h747v-94h-655v-553h616v-94h-616v-627h655v-94z" />
    <glyph glyph-name="oe" unicode="&#x153;" horiz-adv-x="1942" 
d="M1404 1020q-150 0 -237 -104t-102 -298h653q0 189 -82 295.5t-232 106.5zM223 546q0 -225 98.5 -350.5t275.5 -125.5t268 122.5t91 349.5t-93 351.5t-269 124.5t-273.5 -123.5t-97.5 -348.5zM119 545q0 266 129 414.5t354 148.5q294 0 408 -279q110 279 399 279
q192 0 303 -134t111 -364v-80h-762q2 -230 100.5 -345t276.5 -115q93 0 163.5 13t178.5 56v-90q-159 -69 -342 -69q-320 0 -432 266q-123 -266 -410 -266q-143 0 -252 69t-167 198t-58 298z" />
    <glyph glyph-name="Racute" unicode="&#x154;" horiz-adv-x="1217" 
d="M309 725h279q185 1 287 83t102 246t-100 240t-326 76h-242v-645zM1087 1059q0 -306 -313 -393l397 -666h-122l-377 637h-363v-637h-102v1462h348q272 0 402 -100t130 -303zM491 1579v16q73 79 145 171t97 141h141v-17q-81 -117 -313 -311h-70z" />
    <glyph glyph-name="racute" unicode="&#x155;" horiz-adv-x="797" 
d="M590 1108q88 0 168 -14l-19 -95q-68 17 -141 17q-139 0 -228 -118t-89 -298v-600h-99v1087h84l10 -196h7q67 121 143 169t164 48zM339 1241v16q73 79 145 171t97 141h141v-17q-81 -117 -313 -311h-70z" />
    <glyph glyph-name="Rcommaaccent" unicode="&#x156;" horiz-adv-x="1217" 
d="M309 725h279q185 1 287 83t102 246t-100 240t-326 76h-242v-645zM1087 1059q0 -306 -313 -393l397 -666h-122l-377 637h-363v-637h-102v1462h348q272 0 402 -100t130 -303zM723 -125v-14q-47 -169 -145 -314h-54v17q59 128 86 311h113z" />
    <glyph glyph-name="rcommaaccent" unicode="&#x157;" horiz-adv-x="797" 
d="M590 1108q88 0 168 -14l-19 -95q-68 17 -141 17q-139 0 -228 -118t-89 -298v-600h-99v1087h84l10 -196h7q67 121 143 169t164 48zM308 -125v-14q-47 -169 -145 -314h-54v17q59 128 86 311h113z" />
    <glyph glyph-name="Rcaron" unicode="&#x158;" horiz-adv-x="1217" 
d="M309 725h279q185 1 287 83t102 246t-100 240t-326 76h-242v-645zM1087 1059q0 -306 -313 -393l397 -666h-122l-377 637h-363v-637h-102v1462h348q272 0 402 -100t130 -303zM313 1907h70q114 -94 221 -207q108 114 221 207h70v-17q-170 -188 -242 -311h-98
q-76 128 -242 311v17z" />
    <glyph glyph-name="rcaron" unicode="&#x159;" horiz-adv-x="797" 
d="M590 1108q88 0 168 -14l-19 -95q-68 17 -141 17q-139 0 -228 -118t-89 -298v-600h-99v1087h84l10 -196h7q67 121 143 169t164 48zM163 1569h70q114 -94 221 -207q108 114 221 207h70v-17q-170 -188 -242 -311h-98q-76 128 -242 311v17z" />
    <glyph glyph-name="Sacute" unicode="&#x15a;" horiz-adv-x="1116" 
d="M1014 377q0 -183 -134 -290t-380 -107t-389 59v102q158 -67 403 -67q180 0 286 82t105 217q0 83 -35 137t-114 100q-80 46 -268 110t-274 154t-85 246t129 260t332 103q204 0 385 -78l-37 -88q-182 76 -346 76t-260 -75t-96 -204q0 -81 30 -133q30 -51 96 -93
q67 -42 234 -100t253 -114q85 -56 125 -126t40 -171zM456 1579v16q72 79 144 171t98 141h141v-17q-81 -117 -313 -311h-70z" />
    <glyph glyph-name="sacute" unicode="&#x15b;" horiz-adv-x="954" 
d="M423 -20q-211 0 -339 67v107q164 -82 336 -82t254 54q84 54 84 138q0 86 -66 142t-224 112t-224 100q-133 86 -133 217q1 131 103 202t282 71t338 -66l-37 -90q-160 66 -295 66t-213 -44t-78 -126q1 -82 61 -132q60 -51 222 -109q162 -59 228 -101q134 -85 134 -227
q0 -143 -111 -221t-322 -78zM351 1241v16q73 79 145 171t97 141h141v-17q-81 -117 -313 -311h-70z" />
    <glyph glyph-name="Scircumflex" unicode="&#x15c;" horiz-adv-x="1116" 
d="M1014 377q0 -183 -134 -290t-380 -107t-389 59v102q158 -67 403 -67q180 0 286 82t105 217q0 83 -35 137t-114 100q-80 46 -268 110t-274 154t-85 246t129 260t332 103q204 0 385 -78l-37 -88q-182 76 -346 76t-260 -75t-96 -204q0 -81 30 -133q30 -51 96 -93
q67 -42 234 -100t253 -114q85 -56 125 -126t40 -171zM862 1579h-70q-122 101 -221 207q-108 -114 -221 -207h-70v16q151 163 242 312h98q68 -120 242 -312v-16z" />
    <glyph glyph-name="scircumflex" unicode="&#x15d;" horiz-adv-x="954" 
d="M423 -20q-211 0 -339 67v107q164 -82 336 -82t254 54q84 54 84 138q0 86 -66 142t-224 112t-224 100q-133 86 -133 217q1 131 103 202t282 71t338 -66l-37 -90q-160 66 -295 66t-213 -44t-78 -126q1 -82 61 -132q60 -51 222 -109q162 -59 228 -101q134 -85 134 -227
q0 -143 -111 -221t-322 -78zM778 1241h-70q-122 101 -221 207q-108 -114 -221 -207h-70v16q151 163 242 312h98q68 -120 242 -312v-16z" />
    <glyph glyph-name="Scedilla" unicode="&#x15e;" horiz-adv-x="1116" 
d="M461 -403q160 0 160 108q0 94 -193 121l82 154q-259 1 -399 59v102q158 -67 403 -67q180 0 286 82t105 217q0 83 -35 137t-114 100q-80 46 -268 110t-274 154t-85 246t129 260t332 103q204 0 385 -78l-37 -88q-182 76 -346 76t-260 -75t-96 -204q0 -81 30 -133
q30 -51 96 -93q67 -42 234 -100t253 -114q85 -56 125 -126t40 -171q0 -183 -134 -290q-107 -85 -272 -103l-57 -101q168 -37 168 -174q1 -101 -67 -151t-189 -50q-68 0 -94 11v88q30 -10 92 -10z" />
    <glyph glyph-name="scedilla" unicode="&#x15f;" horiz-adv-x="954" 
d="M371 -403q160 0 160 108q0 94 -193 121l82 154q-211 1 -336 67v107q164 -82 336 -82t254 54q84 54 84 138q0 86 -66 142t-224 112t-224 100q-133 86 -133 217q1 131 103 202t282 71t338 -66l-37 -90q-160 66 -295 66t-213 -44t-78 -126q1 -82 61 -132q60 -51 222 -109
q162 -59 228 -101q134 -85 134 -227q0 -143 -111 -221q-86 -61 -227 -74l-57 -101q168 -37 168 -174q1 -101 -67 -151t-189 -50q-68 0 -94 11v88q30 -10 92 -10z" />
    <glyph glyph-name="Scaron" unicode="&#x160;" horiz-adv-x="1116" 
d="M1014 377q0 -183 -134 -290t-380 -107t-389 59v102q158 -67 403 -67q180 0 286 82t105 217q0 83 -35 137t-114 100q-80 46 -268 110t-274 154t-85 246t129 260t332 103q204 0 385 -78l-37 -88q-182 76 -346 76t-260 -75t-96 -204q0 -81 30 -133q30 -51 96 -93
q67 -42 234 -100t253 -114q85 -56 125 -126t40 -171zM277 1907h70q114 -94 221 -207q108 114 221 207h70v-17q-170 -188 -242 -311h-98q-76 128 -242 311v17z" />
    <glyph glyph-name="scaron" unicode="&#x161;" horiz-adv-x="954" 
d="M423 -20q-211 0 -339 67v107q164 -82 336 -82t254 54q84 54 84 138q0 86 -66 142t-224 112t-224 100q-133 86 -133 217q1 131 103 202t282 71t338 -66l-37 -90q-160 66 -295 66t-213 -44t-78 -126q1 -82 61 -132q60 -51 222 -109q162 -59 228 -101q134 -85 134 -227
q0 -143 -111 -221t-322 -78zM177 1569h70q114 -94 221 -207q108 114 221 207h70v-17q-170 -188 -242 -311h-98q-76 128 -242 311v17z" />
    <glyph glyph-name="Tcedilla" unicode="&#x162;" horiz-adv-x="1073" 
d="M428 -403q160 0 160 108q0 94 -193 121l93 174h-3v1366h-475v96h1053v-96h-475v-1366h-4l-66 -117q168 -37 168 -174q0 -101 -68 -151t-188 -50q-68 0 -94 11v88q30 -10 92 -10z" />
    <glyph glyph-name="tcedilla" unicode="&#x163;" horiz-adv-x="686" 
d="M332 -403q160 0 160 108q0 94 -193 121l86 161q-83 16 -131 70q-68 77 -68 242v702h-161v58l161 45l50 246h51v-263h319v-86h-319v-688q0 -125 44 -185t138 -60t164 16v-80q-68 -23 -156 -24l-55 -97q168 -37 168 -174q0 -101 -68 -151t-188 -50q-68 0 -94 11v88
q30 -10 92 -10z" />
    <glyph glyph-name="Tcaron" unicode="&#x164;" horiz-adv-x="1073" 
d="M588 0h-103v1366h-475v96h1053v-96h-475v-1366zM247 1907h70q114 -94 221 -207q108 114 221 207h70v-17q-170 -188 -242 -311h-98q-76 128 -242 311v17z" />
    <glyph glyph-name="tcaron" unicode="&#x165;" horiz-adv-x="686" 
d="M469 68q94 0 164 16v-80q-72 -24 -166 -24q-145 0 -213 77t-68 242v702h-161v58l161 45l50 246h51v-263h319v-86h-319v-688q0 -125 44 -185t138 -60zM480 1229v16q21 45 48 139t38 172h112v-14q-39 -154 -145 -313h-53z" />
    <glyph glyph-name="Tbar" unicode="&#x166;" horiz-adv-x="1073" 
d="M588 793h354v-95h-354v-698h-103v698h-358v95h358v573h-475v96h1053v-96h-475v-573z" />
    <glyph glyph-name="tbar" unicode="&#x167;" horiz-adv-x="686" 
d="M41 688h145v313h-161v58l161 45l50 246h51v-263h319v-86h-319v-313h309v-86h-309v-289q0 -125 44 -185t138 -60t164 16v-80q-72 -24 -166 -24q-144 0 -212.5 77t-68.5 242v303h-145v86z" />
    <glyph glyph-name="Utilde" unicode="&#x168;" horiz-adv-x="1473" 
d="M1282 1462v-946q0 -252 -146 -394t-404 -142t-400 142t-142 398v942h103v-946q0 -210 117 -328q116 -118 328 -118t327 116t115 320v956h102zM893 1663q93 0 125 156h76q-16 -116 -69 -177t-128 -61t-180 90q-33 26 -63 46t-68 20q-84 0 -117 -156h-73q10 111 63 175
t137 63q48 0 88 -25t78 -56t70 -53t61 -22z" />
    <glyph glyph-name="utilde" unicode="&#x169;" horiz-adv-x="1208" 
d="M268 1087v-704q0 -165 69 -239t214 -74q193 0 285 98t92 319v600h98v-1087h-84l-18 150h-6q-106 -170 -377 -170q-371 0 -371 397v710h98zM765 1325q93 0 125 156h76q-16 -116 -69 -177t-128 -61t-180 90q-33 26 -63 46t-68 20q-84 0 -117 -156h-73q10 111 63 175t137 63
q48 0 88 -25t78 -56t70 -53t61 -22z" />
    <glyph glyph-name="Umacron" unicode="&#x16a;" horiz-adv-x="1473" 
d="M1282 1462v-946q0 -252 -146 -394t-404 -142t-400 142t-142 398v942h103v-946q0 -210 117 -328q116 -118 328 -118t327 116t115 320v956h102zM459 1671h555v-82h-555v82z" />
    <glyph glyph-name="umacron" unicode="&#x16b;" horiz-adv-x="1208" 
d="M268 1087v-704q0 -165 69 -239t214 -74q193 0 285 98t92 319v600h98v-1087h-84l-18 150h-6q-106 -170 -377 -170q-371 0 -371 397v710h98zM328 1333h555v-82h-555v82z" />
    <glyph glyph-name="Ubreve" unicode="&#x16c;" horiz-adv-x="1473" 
d="M1282 1462v-946q0 -252 -146 -394t-404 -142t-400 142t-142 398v942h103v-946q0 -210 117 -328q116 -118 328 -118t327 116t115 320v956h102zM730 1579q-250 0 -272 246h82q14 -87 60 -125t135 -37q89 -1 135 37t61 125h80q-31 -246 -281 -246z" />
    <glyph glyph-name="ubreve" unicode="&#x16d;" horiz-adv-x="1208" 
d="M268 1087v-704q0 -165 69 -239t214 -74q193 0 285 98t92 319v600h98v-1087h-84l-18 150h-6q-106 -170 -377 -170q-371 0 -371 397v710h98zM600 1241q-250 0 -273 246h82q15 -87 61 -125t134 -37q88 -1 134 37t62 125h80q-30 -246 -280 -246z" />
    <glyph glyph-name="Uring" unicode="&#x16e;" horiz-adv-x="1473" 
d="M1282 1462v-946q0 -252 -146 -394t-404 -142t-400 142t-142 398v942h103v-946q0 -210 117 -328q116 -118 328 -118t327 116t115 320v956h102zM598 1792q0 -64 38 -102t99 -37q61 -1 99 37t38 103t-39 103t-99 37q-60 0 -98 -38q-38 -39 -38 -103zM952 1792
q0 -95 -60 -153t-157 -58t-157 58q-60 57 -60 153t60 154t157 59q97 0 157 -59t60 -154z" />
    <glyph glyph-name="uring" unicode="&#x16f;" horiz-adv-x="1208" 
d="M268 1087v-704q0 -165 69 -239t214 -74q193 0 285 98t92 319v600h98v-1087h-84l-18 150h-6q-106 -170 -377 -170q-371 0 -371 397v710h98zM467 1454q-1 -64 37 -102t100 -37q62 -1 100 37t37 103q0 65 -39 103q-40 38 -100 37q-60 0 -98 -38q-38 -39 -37 -103zM821 1454
q0 -95 -60 -153t-157 -58t-157 58q-60 57 -60 153t60 154t157 59q97 0 157 -59t60 -154z" />
    <glyph glyph-name="Uhungarumlaut" unicode="&#x170;" horiz-adv-x="1473" 
d="M1282 1462v-946q0 -252 -146 -394t-404 -142t-400 142t-142 398v942h103v-946q0 -210 117 -328q116 -118 328 -118t327 116t115 320v956h102zM1137 1907v-17q-135 -202 -254 -311h-70v16q31 33 67 90t121 222h136zM799 1907v-17q-135 -202 -254 -311h-70v16q31 33 67 90
t121 222h136z" />
    <glyph glyph-name="uhungarumlaut" unicode="&#x171;" horiz-adv-x="1208" 
d="M268 1087v-704q0 -165 69 -239t214 -74q193 0 285 98t92 319v600h98v-1087h-84l-18 150h-6q-106 -170 -377 -170q-371 0 -371 397v710h98zM1008 1569v-17q-135 -202 -254 -311h-70v16q31 33 67 90t121 222h136zM670 1569v-17q-135 -202 -254 -311h-70v16q31 33 67 90
t121 222h136z" />
    <glyph glyph-name="Uogonek" unicode="&#x172;" horiz-adv-x="1473" 
d="M598 -264q0 132 128 244q-252 1 -394 143t-142 397v942h103v-946q0 -210 117 -328q116 -118 328 -118t327 116t115 320v956h102v-946q0 -252 -146 -394q-118 -115 -313 -137q-60 -55 -93 -108t-33 -125q0 -110 106 -110q49 0 82 12v-84q-40 -16 -114 -16q-73 0 -123 48
t-50 134z" />
    <glyph glyph-name="uogonek" unicode="&#x173;" horiz-adv-x="1208" 
d="M541 -20q-371 0 -371 397v710h98v-704q0 -164 69 -238.5t214 -74.5q194 0 285.5 98t91.5 319v600h98v-1087q-72 -63 -107.5 -119.5t-35.5 -128.5q0 -110 106 -110q49 0 82 12v-84q-40 -16 -114 -16t-123.5 47.5t-49.5 134.5q0 147 157 268l-17 146h-6
q-106 -170 -377 -170z" />
    <glyph glyph-name="Wcircumflex" unicode="&#x174;" horiz-adv-x="1827" 
d="M1372 0h-84l-321 1128q-40 139 -60 228q-15 -87 -45 -200t-323 -1156h-86l-402 1462h107l256 -942q15 -58 28 -106q40 -148 58 -252q24 136 102 413l250 887h113l293 -1018q51 -176 73 -284q13 72 33 153t309 1149h103zM1200 1579h-70q-122 101 -221 207
q-108 -114 -221 -207h-70v16q151 163 242 312h98q68 -120 242 -312v-16z" />
    <glyph glyph-name="wcircumflex" unicode="&#x175;" horiz-adv-x="1481" 
d="M1051 0l-238 727q-23 74 -59 217h-6l-66 -219l-242 -725h-98l-311 1087h106l174 -630q61 -234 80 -344h6q59 234 86 311l224 663h90l213 -661q72 -235 88 -311h6q8 65 80 348l166 624h100l-295 -1087h-104zM1041 1241h-70q-122 101 -221 207q-108 -114 -221 -207h-70v16
q151 163 242 312h98q68 -120 242 -312v-16z" />
    <glyph glyph-name="Ycircumflex" unicode="&#x176;" horiz-adv-x="1081" 
d="M594 0h-105v557l-489 905h117l426 -800l428 800h110l-487 -897v-565zM833 1579h-70q-122 101 -221 207q-108 -114 -221 -207h-70v16q151 163 242 312h98q68 -120 242 -312v-16z" />
    <glyph glyph-name="ycircumflex" unicode="&#x177;" horiz-adv-x="940" 
d="M140 -492q-66 0 -136 21v86q58 -16 117 -16q107 1 169 99q40 63 126 302l-416 1087h102l230 -610q105 -281 133 -379h6q42 129 137 385l230 604h102l-487 -1263q-59 -154 -99 -208t-94 -81t-120 -27zM761 1241h-70q-122 101 -221 207q-108 -114 -221 -207h-70v16
q151 163 242 312h98q68 -120 242 -312v-16z" />
    <glyph glyph-name="Ydieresis" unicode="&#x178;" horiz-adv-x="1081" 
d="M594 0h-105v557l-489 905h117l426 -800l428 800h110l-487 -897v-565zM669 1727q-1 86 63 86t64 -86t-64 -86t-63 86zM288 1727q0 86 64 86t63 -86q1 -86 -63 -86t-64 86z" />
    <glyph glyph-name="Zacute" unicode="&#x179;" horiz-adv-x="1180" 
d="M1098 0h-1016v76l856 1290h-817v96h954v-76l-858 -1290h881v-96zM481 1579v16q73 79 145 171t97 141h141v-17q-81 -117 -313 -311h-70z" />
    <glyph glyph-name="zacute" unicode="&#x17a;" horiz-adv-x="944" 
d="M858 0h-776v63l645 936h-598v88h727v-63l-649 -936h651v-88zM380 1241v16q72 79 144 171t98 141h141v-17q-81 -117 -313 -311h-70z" />
    <glyph glyph-name="Zdotaccent" unicode="&#x17b;" horiz-adv-x="1180" 
d="M1098 0h-1016v76l856 1290h-817v96h954v-76l-858 -1290h881v-96zM590 1630q-64 0 -64 96t64 97q64 0 65 -96q0 -45 -17 -71t-48 -26z" />
    <glyph glyph-name="zdotaccent" unicode="&#x17c;" horiz-adv-x="944" 
d="M858 0h-776v63l645 936h-598v88h727v-63l-649 -936h651v-88zM490 1292q-64 0 -64 96t64 97q64 0 65 -96q0 -45 -17 -71t-48 -26z" />
    <glyph glyph-name="Zcaron" unicode="&#x17d;" horiz-adv-x="1180" 
d="M1098 0h-1016v76l856 1290h-817v96h954v-76l-858 -1290h881v-96zM309 1907h70q114 -94 221 -207q108 114 221 207h70v-17q-170 -188 -242 -311h-98q-76 128 -242 311v17z" />
    <glyph glyph-name="zcaron" unicode="&#x17e;" horiz-adv-x="944" 
d="M858 0h-776v63l645 936h-598v88h727v-63l-649 -936h651v-88zM198 1569h70q114 -94 221 -207q108 114 221 207h70v-17q-170 -188 -242 -311h-98q-76 128 -242 311v17z" />
    <glyph glyph-name="longs" unicode="&#x17f;" horiz-adv-x="627" 
d="M281 0h-99v1180q0 203 74.5 295t239.5 92q90 0 180 -27l-23 -86q-80 25 -159 25q-116 0 -164.5 -68.5t-48.5 -222.5v-1188z" />
    <glyph glyph-name="florin" unicode="&#x192;" 
d="M303 854v59l207 37v146q0 201 76.5 294t240.5 93q82 0 183 -31l-25 -86q-89 29 -160 29q-115 0 -166 -67.5t-51 -223.5v-162h281v-88h-281v-1028q0 -155 -71 -236.5t-207 -81.5q-85 0 -140 19v90q78 -18 144 -18q176 0 176 217v1038h-207z" />
    <glyph glyph-name="Ohorn" unicode="&#x1a0;" horiz-adv-x="1565" 
d="M240 732q0 -314 140 -485t403 -171t402.5 170t139.5 486t-139.5 485t-401.5 169t-403 -170t-141 -484zM1436 733q0 -348 -174 -550.5t-480 -202.5t-479.5 202t-173.5 552t175.5 550.5t492.5 200.5t487 -230q81 21 120.5 92t39.5 209h104l13 -18q-19 -282 -232 -352
q107 -182 107 -453z" />
    <glyph glyph-name="ohorn" unicode="&#x1a1;" horiz-adv-x="1200" 
d="M223 546q0 -225 98.5 -350.5t278.5 -125.5t278.5 126t98.5 350t-99.5 348t-279.5 124t-277.5 -123.5t-97.5 -348.5zM1081 545q0 -266 -129 -415.5t-356 -149.5q-143 0 -252 69t-167 198t-58 298q0 266 129 414.5t351 148.5t351 -147q72 24 107.5 92t38.5 202h100l12 -18
q-11 -144 -62 -225t-147 -119q82 -137 82 -348z" />
    <glyph glyph-name="Uhorn" unicode="&#x1af;" horiz-adv-x="1497" 
d="M1282 1462v-207q89 19 130.5 89t41.5 212h105l12 -18q-12 -167 -85.5 -254.5t-203.5 -112.5v-655q0 -252 -146 -394t-404 -142t-400 142.5t-142 397.5v942h103v-946q0 -211 116.5 -328.5t328.5 -117.5t327 115.5t115 320.5v956h102z" />
    <glyph glyph-name="uhorn" unicode="&#x1b0;" horiz-adv-x="1262" 
d="M268 1087v-704q0 -164 73 -238.5t243 -74.5t257 99t87 318v600h98v-122q127 21 151.5 106t24.5 195h101l12 -19q-9 -123 -59.5 -229t-229.5 -137v-881h-84l-18 150h-6q-52 -82 -143.5 -126t-209.5 -44q-201 0 -298 98t-97 299v710h98z" />
    <glyph glyph-name="uni01F0" unicode="&#x1f0;" horiz-adv-x="463" 
d="M37 -492q-80 0 -135 25v86q69 -20 129 -20q151 0 151 176v1312h99v-1298q1 -135 -63 -208t-181 -73zM-58 1569h70q114 -94 221 -207q108 114 221 207h70v-17q-170 -188 -242 -311h-98q-76 128 -242 311v17z" />
    <glyph glyph-name="Aringacute" unicode="&#x1fa;" horiz-adv-x="1229" 
d="M893 1962v-16q-44 -61 -121.5 -141t-140.5 -132h-70v17q103 111 191 272h141zM481 1410q0 -64 37.5 -102t99.5 -38t100 37.5t38 102.5t-39 102.5t-99 37.5t-98.5 -38t-38.5 -102zM885 539l-207 454q-24 52 -60 154q-23 -70 -63 -160l-209 -448h539zM836 1418
q0 -168 -150 -212l553 -1206h-115l-200 446h-617l-209 -446h-110l565 1206q-68 17 -110 69t-42 141t59.5 147.5t157.5 58.5t158 -58t60 -146z" />
    <glyph glyph-name="aringacute" unicode="&#x1fb;" horiz-adv-x="1085" 
d="M403 1412q0 -65 38 -102.5t100 -37.5t99.5 37.5t37.5 102.5t-39 102.5t-99 37.5t-98.5 -37.5t-38.5 -102.5zM758 1411q0 -95 -60 -153t-157 -58t-157 58t-60 154t60 154t157 58t157 -59t60 -154zM793 1962v-14q-35 -45 -112.5 -120t-145.5 -128h-68v12q97 101 188 250
h138zM442 70q174 0 274.5 99.5t100.5 276.5v107l-190 -8q-229 -11 -326.5 -71.5t-97.5 -175.5t62.5 -171.5t176.5 -56.5zM415 -20q-139 0 -228 82t-89 234t132.5 240t383.5 93l207 6v72q0 155 -62.5 234t-208.5 79t-308 -84l-37 86q179 84 356 84t265.5 -93t88.5 -290v-723
h-73l-25 172h-8q-82 -105 -168.5 -148.5t-225.5 -43.5z" />
    <glyph glyph-name="AEacute" unicode="&#x1fc;" horiz-adv-x="1653" 
d="M811 608v760h-100l-334 -760h434zM1528 0h-717v516h-475l-227 -516h-111l653 1462h877v-94h-615v-553h576v-94h-576v-627h615v-94zM891 1579v16q73 79 145 171t97 141h141v-17q-81 -117 -313 -311h-70z" />
    <glyph glyph-name="aeacute" unicode="&#x1fd;" horiz-adv-x="1731" 
d="M1217 1020q-284 0 -314 -402h604q1 188 -77 295t-213 107zM434 70q169 0 266 100t97 276v107l-187 -8q-219 -11 -313 -71t-94 -176t61 -172t170 -56zM1243 -20q-295 0 -397 256q-68 -132 -168 -194t-254 -62t-240 82t-86 232q0 149 125 238t377 97l201 6v72
q1 155 -61 234t-204 79t-300 -84l-37 86q173 84 346 84q261 0 325 -211q111 213 347 213q183 0 289 -134t106 -364v-80h-715q0 -460 348 -460q85 0 150 12t174 57v-90q-92 -41 -165 -55t-161 -14zM774 1241v16q72 79 144 171t98 141h141v-17q-81 -117 -313 -311h-70z" />
    <glyph glyph-name="Oslashacute" unicode="&#x1fe;" horiz-adv-x="1565" 
d="M240 734q0 -312 139 -484l739 1034q-133 102 -334 102q-260 0 -402 -170t-142 -482zM1325 732q0 316 -139 487l-742 -1037q133 -106 338 -106q264 0 404 170t139 486zM1436 740q0 -356 -174 -558t-480 -202q-236 0 -395 120l-86 -120l-74 59l90 127q-188 200 -188 559
q-1 359 175 559t480 201q232 0 392 -121l108 152l72 -60l-111 -153q191 -207 191 -563zM686 1579v16q72 79 144 171t98 141h141v-17q-81 -117 -313 -311h-70z" />
    <glyph glyph-name="oslashacute" unicode="&#x1ff;" horiz-adv-x="1200" 
d="M977 528q0 207 -72 326l-543 -702q94 -82 238 -82q180 0 278 126t99 332zM223 558q0 -213 78 -335l543 705q-98 90 -262 90t-262 -124t-97 -336zM1081 534q0 -254 -129 -404t-356 -150q-173 0 -291 98l-86 -113l-72 58l93 120q-121 153 -121 411t129 406t354 148
q179 0 301 -104l96 124l74 -55l-104 -137q112 -147 112 -402zM499 1241v16q73 79 145 171t97 141h141v-17q-81 -117 -313 -311h-70z" />
    <glyph glyph-name="Scommaaccent" unicode="&#x218;" horiz-adv-x="1116" 
d="M1014 377q0 -183 -134 -290t-380 -107t-389 59v102q158 -67 403 -67q180 0 286 82t105 217q0 83 -35 137t-114 100q-80 46 -268 110t-274 154t-85 246t129 260t332 103q204 0 385 -78l-37 -88q-182 76 -346 76t-260 -75t-96 -204q0 -81 30 -133q30 -51 96 -93
q67 -42 234 -100t253 -114q85 -56 125 -126t40 -171zM627 -125v-14q-47 -169 -145 -314h-54v17q59 128 86 311h113z" />
    <glyph glyph-name="scommaaccent" unicode="&#x219;" horiz-adv-x="954" 
d="M423 -20q-211 0 -339 67v107q164 -82 336 -82t254 54q84 54 84 138q0 86 -66 142t-224 112t-224 100q-133 86 -133 217q1 131 103 202t282 71t338 -66l-37 -90q-160 66 -295 66t-213 -44t-78 -126q1 -82 61 -132q60 -51 222 -109q162 -59 228 -101q134 -85 134 -227
q0 -143 -111 -221t-322 -78zM525 -125v-14q-47 -169 -145 -314h-54v17q59 128 86 311h113z" />
    <glyph glyph-name="Tcommaaccent" unicode="&#x21a;" horiz-adv-x="1073" 
d="M588 0h-103v1366h-475v96h1053v-96h-475v-1366zM602 -125v-14q-47 -169 -145 -314h-54v17q59 128 86 311h113z" />
    <glyph glyph-name="tcommaaccent" unicode="&#x21b;" horiz-adv-x="686" 
d="M469 68q94 0 164 16v-80q-72 -24 -166 -24q-145 0 -213 77t-68 242v702h-161v58l161 45l50 246h51v-263h319v-86h-319v-688q0 -125 44 -185t138 -60zM462 -125v-14q-47 -169 -145 -314h-54v17q59 128 86 311h113z" />
    <glyph glyph-name="dotlessj" unicode="&#x237;" horiz-adv-x="463" 
d="M37 -492q-80 0 -135 25v86q69 -20 129 -20q151 0 151 176v1312h99v-1298q0 -135 -63.5 -208t-180.5 -73z" />
    <glyph glyph-name="uni02BC" unicode="&#x2bc;" horiz-adv-x="297" 
d="M29 961q70 231 110 501h117l12 -20q-75 -265 -174 -481h-65z" />
    <glyph glyph-name="circumflex" unicode="&#x2c6;" horiz-adv-x="1182" 
d="M881 1241h-70q-122 101 -221 207q-108 -114 -221 -207h-70v16q151 163 242 312h98q68 -120 242 -312v-16z" />
    <glyph glyph-name="caron" unicode="&#x2c7;" horiz-adv-x="1182" 
d="M299 1569h70q114 -94 221 -207q108 114 221 207h70v-17q-170 -188 -242 -311h-98q-76 128 -242 311v17z" />
    <glyph glyph-name="macron" unicode="&#x2c9;" horiz-adv-x="1141" 
d="M293 1333h555v-82h-555v82z" />
    <glyph glyph-name="breve" unicode="&#x2d8;" horiz-adv-x="1182" 
d="M584 1241q-250 0 -273 246h82q14 -87 60.5 -124.5t134.5 -37.5t134.5 37.5t61.5 124.5h80q-30 -246 -280 -246z" />
    <glyph glyph-name="dotaccent" unicode="&#x2d9;" horiz-adv-x="483" 
d="M242 1292q-64 0 -64 96t64 97q64 0 65 -96q0 -45 -17 -71t-48 -26z" />
    <glyph glyph-name="ring" unicode="&#x2da;" horiz-adv-x="1182" 
d="M451 1454q0 -64 37.5 -101.5t99.5 -37.5t99.5 37.5t37.5 102.5t-39.5 102.5t-99.5 37.5t-97.5 -38.5t-37.5 -102.5zM805 1454q0 -95 -60 -153t-157 -58t-157 57.5t-60 153.5t60 154.5t157 58.5t157 -59t60 -154z" />
    <glyph glyph-name="ogonek" unicode="&#x2db;" horiz-adv-x="356" 
d="M63 -264q0 146 152 264h90q-72 -63 -107.5 -119.5t-35.5 -128.5q0 -110 106 -110q49 0 82 12v-84q-40 -16 -114 -16t-123.5 47.5t-49.5 134.5z" />
    <glyph glyph-name="tilde" unicode="&#x2dc;" horiz-adv-x="1182" 
d="M780 1325q93 0 125 156h76q-16 -116 -69 -177t-128 -61t-180 90q-32 26 -63 46t-69 20q-84 0 -116 -156h-73q10 111 63 174.5t137 63.5q48 0 88 -25t78 -56t70 -53t61 -22z" />
    <glyph glyph-name="hungarumlaut" unicode="&#x2dd;" horiz-adv-x="1182" 
d="M920 1569v-17q-135 -202 -254 -311h-70v16q31 33 67 90t121 222h136zM582 1569v-17q-135 -202 -254 -311h-70v16q31 33 67 90t121 222h136z" />
    <glyph glyph-name="uni02F3" unicode="&#x2f3;" horiz-adv-x="682" 
d="M203 -340q0 -64 37.5 -101.5t99.5 -37.5t99.5 37.5t37.5 102.5t-39.5 102.5t-99.5 37.5t-97.5 -38.5t-37.5 -102.5zM557 -340q0 -95 -60 -153t-157 -58t-157 57.5t-60 153.5t60 154.5t157 58.5t157 -59t60 -154z" />
    <glyph glyph-name="uni0300" unicode="&#x300;" horiz-adv-x="0" 
d="M-501 1241h-69q-96 79 -188 171t-126 140v17h142q26 -48 98 -142t143 -170v-16z" />
    <glyph glyph-name="uni0301" unicode="&#x301;" horiz-adv-x="0" 
d="M-708 1241v16q72 79 144 171t98 141h141v-17q-81 -117 -313 -311h-70z" />
    <glyph glyph-name="uni0303" unicode="&#x303;" horiz-adv-x="0" 
d="M-446 1325q93 0 125 156h76q-16 -116 -69 -177t-128 -61t-180 90q-32 26 -62 46t-70 20q-84 0 -116 -156h-73q10 111 63 175t137 63q48 0 88 -25t78 -56t70 -53t61 -22z" />
    <glyph glyph-name="hook" unicode="&#x309;" horiz-adv-x="0" 
d="M-510 1501q0 96 -145 96q-48 0 -93 -8v78q52 12 107 12q108 0 168.5 -45.5t60.5 -128.5q0 -140 -168 -176l-10 -121h-80l-10 178q170 29 170 115z" />
    <glyph glyph-name="uni030F" unicode="&#x30f;" horiz-adv-x="0" 
d="M-688 1241h-70q-57 50 -131.5 142.5t-122.5 168.5v17h135q126 -245 189 -312v-16zM-350 1241h-70q-57 50 -131.5 142.5t-122.5 168.5v17h135q125 -244 189 -312v-16z" />
    <glyph glyph-name="dotbelow" unicode="&#x323;" horiz-adv-x="0" 
d="M-598 -324q-64 0 -64 96t65 97q65 0 65 -96q0 -45 -17.5 -71t-48.5 -26z" />
    <glyph glyph-name="tonos" unicode="&#x384;" horiz-adv-x="1182" 
d="M748 1651v-17q-18 -77 -63 -191t-97 -202h-58v16q69 179 99 394h119z" />
    <glyph glyph-name="dieresistonos" unicode="&#x385;" horiz-adv-x="1182" 
d="M744 1389q0 86 64 86t64 -86t-64 -86t-64 86zM308 1389q0 86 64 86t64 -86t-64 -86t-64 86zM758 1716v-18q-21 -52 -72.5 -145t-101.5 -164h-58v16q75 164 115 311h117z" />
    <glyph glyph-name="Alphatonos" unicode="&#x386;" horiz-adv-x="1229" 
d="M354 608h523l-199 527q-25 62 -60 172q-27 -96 -59 -174zM911 516h-594l-204 -516h-113l588 1468h65l576 -1468h-115zM294 1546v-17q-18 -77 -63 -191t-97 -202h-58v16q69 179 99 394h119z" />
    <glyph glyph-name="anoteleia" unicode="&#x387;" horiz-adv-x="487" 
d="M162 721q0 98 81 98t81 -98t-81 -98t-81 98z" />
    <glyph glyph-name="Epsilontonos" unicode="&#x388;" horiz-adv-x="1221" 
d="M1096 0h-799v1462h799v-94h-697v-553h658v-94h-658v-627h697v-94zM178 1546v-17q-18 -77 -63 -191t-97 -202h-58v16q69 179 99 394h119z" />
    <glyph glyph-name="Etatonos" unicode="&#x389;" horiz-adv-x="1563" 
d="M1356 0h-103v719h-854v-719h-102v1462h102v-649h854v649h103v-1462zM178 1546v-17q-18 -77 -63 -191t-97 -202h-58v16q69 179 99 394h119z" />
    <glyph glyph-name="Iotatonos" unicode="&#x38a;" horiz-adv-x="602" 
d="M293 0v1462h102v-1462h-102zM178 1546v-17q-18 -77 -63 -191t-97 -202h-58v16q69 179 99 394h119z" />
    <glyph glyph-name="Omicrontonos" unicode="&#x38c;" horiz-adv-x="1577" 
d="M252 732q0 -314 140 -484q140 -172 403 -172t403 170t139 486q1 316 -139 486q-140 168 -402 168t-402 -170q-142 -170 -142 -484zM1448 734q0 -348 -174 -552q-174 -202 -480 -202t-479 202q-174 202 -174 552q-1 350 175 550t481 201t478 -201t173 -550zM178 1546v-17
q-18 -77 -63 -191t-97 -202h-58v16q69 179 99 394h119z" />
    <glyph glyph-name="Upsilontonos" unicode="&#x38e;" horiz-adv-x="1321" 
d="M834 0h-105v557l-489 905h117l426 -800l428 800h110l-487 -897v-565zM178 1546v-17q-18 -77 -63 -191t-97 -202h-58v16q69 179 99 394h119z" />
    <glyph glyph-name="Omegatonos" unicode="&#x38f;" horiz-adv-x="1608" 
d="M816 1393q-254 1 -402 -151t-148 -396t90 -414q90 -172 313 -360v-72h-567v94h407q-133 118 -205 224q-148 218 -149 503q0 200 80 351q79 151 229 232t349 81q311 0 485 -174t174 -488q0 -209 -80 -384t-270 -345h403v-94h-565v72q215 175 308 350t93 421t-146 398
q-145 152 -399 152zM178 1546v-17q-18 -77 -63 -191t-97 -202h-58v16q69 179 99 394h119z" />
    <glyph glyph-name="iotadieresistonos" unicode="&#x390;" horiz-adv-x="629" 
d="M166 303v784h98v-774q0 -133 46 -189t153 -56q65 0 129 16v-84q-57 -20 -139 -20q-151 0 -219 80t-68 243zM386 1389q0 86 64 86t63 -86q1 -86 -63 -86t-64 86zM-50 1389q0 86 64 86t63 -86q1 -86 -63 -86t-64 86zM399 1716v-18q-21 -52 -73 -145t-101 -164h-58v16
q75 164 115 311h117z" />
    <glyph glyph-name="Alpha" unicode="&#x391;" horiz-adv-x="1229" 
d="M354 608h523l-199 527q-25 62 -60 172q-27 -96 -59 -174zM911 516h-594l-204 -516h-113l588 1468h65l576 -1468h-115z" />
    <glyph glyph-name="Beta" unicode="&#x392;" horiz-adv-x="1284" 
d="M309 721v-631h344q406 0 406 330q0 301 -428 301h-322zM309 811h322q205 1 299 69t94 214t-106 212t-314 66h-295v-561zM207 1462h401q271 0 398 -92t127 -278q1 -128 -77 -212t-227 -108v-6q175 -26 257 -110t83 -236q0 -202 -134 -311t-380 -109h-448v1462z" />
    <glyph glyph-name="Gamma" unicode="&#x393;" horiz-adv-x="1028" 
d="M309 0h-102v1462h801v-94h-699v-1368z" />
    <glyph glyph-name="uni0394" unicode="&#x394;" 
d="M580 1315q-53 -153 -441 -1219h889q-391 1054 -448 1219zM1149 0h-1129v59l521 1403h80l528 -1405v-57z" />
    <glyph glyph-name="Epsilon" unicode="&#x395;" horiz-adv-x="1130" 
d="M1006 0h-799v1462h799v-94h-697v-553h658v-94h-658v-627h697v-94z" />
    <glyph glyph-name="Zeta" unicode="&#x396;" horiz-adv-x="1180" 
d="M1098 0h-1016v76l856 1290h-817v96h954v-76l-858 -1290h881v-96z" />
    <glyph glyph-name="Eta" unicode="&#x397;" horiz-adv-x="1473" 
d="M1266 0h-103v719h-854v-719h-102v1462h102v-649h854v649h103v-1462z" />
    <glyph glyph-name="Theta" unicode="&#x398;" horiz-adv-x="1565" 
d="M240 732q0 -314 140 -485t403 -171t402.5 170t139.5 486t-139.5 485t-401.5 169t-403 -170t-141 -484zM1436 734q0 -348 -174 -551t-480 -203t-479.5 202t-173.5 552t175.5 550.5t480.5 200.5t478 -201.5t173 -549.5zM449 793h665v-95h-665v95z" />
    <glyph glyph-name="Iota" unicode="&#x399;" horiz-adv-x="516" 
d="M207 0v1462h102v-1462h-102z" />
    <glyph glyph-name="Kappa" unicode="&#x39a;" horiz-adv-x="1190" 
d="M309 0h-102v1462h102v-760l162 162l573 598h130l-599 -618l615 -844h-125l-561 772l-195 -172v-600z" />
    <glyph glyph-name="Lambda" unicode="&#x39b;" horiz-adv-x="1229" 
d="M113 0h-113l596 1468h49l584 -1468h-115l-436 1120q-23 60 -60 172q-29 -100 -59 -174z" />
    <glyph glyph-name="Mu" unicode="&#x39c;" horiz-adv-x="1767" 
d="M305 1096v-1096h-98v1462h158l518 -1286h6l518 1286h154v-1462h-103v1108q0 116 12 240h-8l-547 -1348h-65l-545 1350h-8q8 -124 8 -254z" />
    <glyph glyph-name="Nu" unicode="&#x39d;" horiz-adv-x="1477" 
d="M1270 0h-103l-866 1298h-8q12 -232 12 -350v-948h-98v1462h102l865 -1296h6q-9 180 -9 342v954h99v-1462z" />
    <glyph glyph-name="Xi" unicode="&#x39e;" horiz-adv-x="1087" 
d="M1047 94v-94h-1006v94h1006zM82 1462h924v-94h-924v94zM164 815h760v-94h-760v94z" />
    <glyph glyph-name="Omicron" unicode="&#x39f;" horiz-adv-x="1565" 
d="M240 732q0 -314 140 -484q140 -172 403 -172t403 170t139 486q1 316 -139 486q-140 168 -402 168t-402 -170q-142 -170 -142 -484zM1436 734q0 -348 -174 -552q-174 -202 -480 -202t-479 202q-174 202 -174 552q-1 350 175 550t481 201t478 -201t173 -550z" />
    <glyph glyph-name="Pi" unicode="&#x3a0;" horiz-adv-x="1462" 
d="M1255 0h-102v1366h-844v-1366h-102v1462h1048v-1462z" />
    <glyph glyph-name="Rho" unicode="&#x3a1;" horiz-adv-x="1198" 
d="M309 692h201q247 0 357 82t110 257t-104 257t-322 82h-242v-678zM1087 1042q0 -212 -144 -325t-408 -113h-226v-604h-102v1462h358q522 0 522 -420z" />
    <glyph glyph-name="Sigma" unicode="&#x3a3;" horiz-adv-x="1128" 
d="M61 0v84l533 676l-520 620v82h964v-94h-647l-182 2l514 -604l-530 -672h905v-94h-1037z" />
    <glyph glyph-name="Tau" unicode="&#x3a4;" horiz-adv-x="1073" 
d="M588 0h-103v1366h-475v96h1053v-96h-475v-1366z" />
    <glyph glyph-name="Upsilon" unicode="&#x3a5;" horiz-adv-x="1081" 
d="M594 0h-105v557l-489 905h117l426 -800l428 800h110l-487 -897v-565z" />
    <glyph glyph-name="Phi" unicode="&#x3a6;" horiz-adv-x="1561" 
d="M729 1219h-41q-219 0 -343 -122t-124 -341t128.5 -343t363.5 -124h16v930zM831 289h15q236 0 364.5 124.5t128.5 348.5t-120 340.5t-345 116.5h-43v-930zM729 1483h102v-180h43q275 0 425.5 -141t150.5 -392q0 -358 -206 -461.5t-402 -103.5h-11v-225h-102v225h-18
q-193 0 -396.5 103t-203.5 450q0 156 70 281.5t201 194.5t310 69h37v180z" />
    <glyph glyph-name="Chi" unicode="&#x3a7;" horiz-adv-x="1102" 
d="M1102 0h-117l-432 682l-440 -682h-113l492 762l-447 700h115l395 -626l401 626h109l-453 -698z" />
    <glyph glyph-name="Psi" unicode="&#x3a8;" horiz-adv-x="1565" 
d="M1421 979q0 -526 -571 -526h-27v-453h-102v453h-27q-571 0 -571 526v483h102v-479q0 -226 117 -333t356 -107h23v919h102v-919h23q239 0 356 107t117 333v479h102v-483z" />
    <glyph glyph-name="uni03A9" unicode="&#x3a9;" horiz-adv-x="1587" 
d="M796 1393q-254 0 -402 -151.5t-148 -395.5t90.5 -415t312.5 -359v-72h-567v94h407q-133 118 -243.5 280.5t-110.5 446.5q0 200 80 351t229.5 232t348.5 81q311 0 485 -174t174 -488q0 -209 -80.5 -384t-269.5 -345h403v-94h-565v72q215 175 308 350t93 421t-145.5 398
t-399.5 152z" />
    <glyph glyph-name="Iotadieresis" unicode="&#x3aa;" horiz-adv-x="516" 
d="M207 0v1462h102v-1462h-102zM386 1727q0 86 64 86t63 -86q1 -86 -63 -86t-64 86zM5 1727q-1 86 63 86t64 -86t-64 -86t-63 86z" />
    <glyph glyph-name="Upsilondieresis" unicode="&#x3ab;" horiz-adv-x="1081" 
d="M594 0h-105v557l-489 905h117l426 -800l428 800h110l-487 -897v-565zM669 1727q-1 86 63 86t64 -86t-64 -86t-63 86zM288 1727q0 86 64 86t63 -86q1 -86 -63 -86t-64 86z" />
    <glyph glyph-name="alphatonos" unicode="&#x3ac;" horiz-adv-x="1208" 
d="M119 540q1 274 121 421t346 147q254 0 358 -234h6q4 52 18 120t25 93h74q-41 -134 -41 -391v-495q0 -142 90 -142q37 0 64 11v-72q-29 -18 -82 -18q-146 0 -164 188h-8q-121 -188 -347 -188q-227 0 -343 143t-117 417zM578 68q180 0 265 108t85 354v35q0 237 -86 345
t-260 108q-176 0 -268 -124t-91 -353q0 -473 355 -473zM785 1651v-17q-18 -77 -63 -191t-97 -202h-58v16q69 179 99 394h119z" />
    <glyph glyph-name="epsilontonos" unicode="&#x3ad;" horiz-adv-x="928" 
d="M672 618v-86h-140q-169 0 -251 -62t-82 -172q0 -108 87 -168t244 -60q76 0 140 14t174 66v-93q-136 -77 -330 -77t-307 81t-113 226q0 224 248 284v9q-215 63 -215 239q0 133 103 211t283 78t339 -68l-37 -84q-149 64 -297 64q-288 0 -287 -201q0 -201 326 -201h115z
M669 1651v-17q-18 -77 -63 -191t-97 -202h-58v16q69 179 99 394h119z" />
    <glyph glyph-name="etatonos" unicode="&#x3ae;" horiz-adv-x="1208" 
d="M940 -492v1197q0 165 -72 239t-244 74q-170 0 -256 -100t-87 -318v-600h-99v1087h84l19 -149h6q54 86 147 128t205 42q201 0 298 -99t97 -298v-1203h-98zM779 1651v-17q-18 -77 -63 -191t-97 -202h-58v16q69 179 99 394h119z" />
    <glyph glyph-name="iotatonos" unicode="&#x3af;" horiz-adv-x="629" 
d="M166 303v784h98v-774q0 -133 46 -189t153 -56q65 0 129 16v-84q-57 -20 -139 -20q-151 0 -219 80t-68 243zM389 1651v-17q-18 -77 -63 -191t-97 -202h-58v16q69 179 99 394h119z" />
    <glyph glyph-name="upsilondieresistonos" unicode="&#x3b0;" horiz-adv-x="1219" 
d="M1085 568q1 -290 -121 -439t-352 -149t-338 125t-108 387v595h98v-606q0 -201 82 -307t268 -106q371 0 371 536q0 240 -59 483h98q61 -229 61 -519zM761 1389q-1 86 63 86t64 -86t-64 -86t-63 86zM325 1389q-1 86 63 86t64 -86t-64 -86t-63 86zM774 1716v-18
q-20 -52 -72 -145t-102 -164h-58v16q75 164 115 311h117z" />
    <glyph glyph-name="alpha" unicode="&#x3b1;" horiz-adv-x="1208" 
d="M119 540q0 274 120.5 421t346.5 147q254 0 358 -234h6q4 52 18.5 119.5t24.5 93.5h74q-41 -134 -41 -391v-495q0 -142 90 -142q37 0 64 11v-72q-29 -18 -82 -18q-146 0 -164 188h-8q-121 -188 -347 -188q-227 0 -343.5 143t-116.5 417zM578 68q180 0 265 108.5t85 353.5
v35q0 237 -85 345t-261 108t-267.5 -123.5t-91.5 -353.5q0 -473 355 -473z" />
    <glyph glyph-name="beta" unicode="&#x3b2;" horiz-adv-x="1245" 
d="M657 66q181 0 286.5 91t105.5 255q0 364 -392 364h-118v88h106q164 0 249 81.5t85 229.5t-87 226t-257 78t-262 -97t-92 -284v-928q195 -104 376 -104zM638 1567q214 0 329.5 -102t115.5 -283q0 -140 -72.5 -232.5t-213.5 -118.5v-6q176 -24 261 -124t85 -294
t-132.5 -306.5t-336.5 -112.5t-393 100v-580h-99v1586q0 224 121 348.5t335 124.5z" />
    <glyph glyph-name="gamma" unicode="&#x3b3;" horiz-adv-x="983" 
d="M360 -492q0 92 30 238.5t73 265.5l-453 1075h103l268 -645l125 -313h6l86 238l272 720h103l-404 -1040q-44 -116 -74.5 -269t-35.5 -270h-99z" />
    <glyph glyph-name="delta" unicode="&#x3b4;" horiz-adv-x="1190" 
d="M967 473q0 135 -70.5 232t-237.5 182q-148 -36 -293 -113t-145 -334q0 -172 101.5 -272t275.5 -100t271.5 104.5t97.5 300.5zM291 1301q0 111 93.5 188.5t242.5 77.5q97 0 187.5 -20.5t213.5 -80.5l-45 -86q-112 57 -191.5 78t-175.5 21t-159.5 -50.5t-63.5 -134.5
t52.5 -141t228.5 -159t251 -172.5t110.5 -153.5t35.5 -197q0 -229 -126.5 -360t-346.5 -131t-350.5 124.5t-130.5 324.5t109.5 324t346.5 187q-158 89 -220 169.5t-62 191.5z" />
    <glyph glyph-name="epsilon" unicode="&#x3b5;" horiz-adv-x="928" 
d="M672 618v-86h-140q-169 0 -251 -63t-82 -171t87 -168t244 -60q76 0 140 14t174 66v-93q-136 -77 -330 -77t-307 81t-113 226q0 224 248 284v9q-215 63 -215 239q0 133 103 211t283 78t339 -68l-37 -84q-149 64 -297 64q-288 0 -287 -201q0 -201 326 -201h115z" />
    <glyph glyph-name="zeta" unicode="&#x3b6;" horiz-adv-x="956" 
d="M883 -129q0 -118 -113 -272h-96q114 155 114 258q0 49 -38.5 89.5t-242.5 78.5t-296 142t-92 292q0 271 138 452.5t225.5 275.5t293.5 290q-105 -7 -364 -7h-230v86h717v-75q-256 -236 -401.5 -407.5t-210 -313.5t-64.5 -276t29 -197.5t95.5 -103t208.5 -70.5t205.5 -60
t92.5 -72t29 -110z" />
    <glyph glyph-name="eta" unicode="&#x3b7;" horiz-adv-x="1208" 
d="M940 -492v1197q0 164 -73 238.5t-243 74.5t-256.5 -99.5t-86.5 -318.5v-600h-99v1087h84l19 -149h6q54 87 147 128.5t205 41.5q201 0 298 -99t97 -298v-1203h-98z" />
    <glyph glyph-name="theta" unicode="&#x3b8;" horiz-adv-x="1167" 
d="M579 1491q-175 0 -262.5 -164.5t-99.5 -480.5h731q-12 328 -103 486.5t-266 158.5zM582 68q353 0 368 692h-733q12 -692 365 -692zM586 1579q463 1 463 -799t-469 -800q-461 0 -461 800q0 392 119.5 595.5t347.5 203.5z" />
    <glyph glyph-name="iota" unicode="&#x3b9;" horiz-adv-x="629" 
d="M166 303v784h98v-774q0 -134 46.5 -189.5t152.5 -55.5q65 0 129 16v-84q-57 -20 -139 -20q-152 0 -219.5 80t-67.5 243z" />
    <glyph glyph-name="kappa" unicode="&#x3ba;" horiz-adv-x="991" 
d="M281 0h-99v1087h99v-311l-7 -299h5l555 610h120l-428 -464l465 -623h-119l-413 549l-178 -162v-387z" />
    <glyph glyph-name="lambda" unicode="&#x3bb;" horiz-adv-x="1030" 
d="M213 1489q-46 0 -104 -12v75q63 17 123 17t103.5 -23t77.5 -76.5t81 -185.5l401 -1139q15 -43 33 -64.5t48 -21.5t54 11v-74q-30 -16 -80 -16t-83.5 32t-59.5 105l-172 489q-96 280 -123 389h-4q-32 -95 -76.5 -202t-339.5 -793h-104l477 1092l-55 165q-35 107 -60 148.5
t-58 62.5t-79 21z" />
    <glyph glyph-name="uni03BC" unicode="&#x3bc;" horiz-adv-x="1221" 
d="M563 -20q-187 0 -287 112q5 -92 5 -170v-414h-99v1579h99v-704q0 -165 69 -239t213 -74q193 0 285 98t92 319v600h98v-1087h-84l-18 150h-6q-50 -78 -150 -124t-217 -46z" />
    <glyph glyph-name="nu" unicode="&#x3bd;" horiz-adv-x="1051" 
d="M872 1087h95q0 -352 -110 -607.5t-349 -479.5h-102l-408 1087h102q332 -895 367 -999h6q399 369 399 999z" />
    <glyph glyph-name="xi" unicode="&#x3be;" horiz-adv-x="940" 
d="M188 1114q0 131 85 226.5t245 138.5q-69 -9 -248 -9h-88v86h670v-79h-16q-155 0 -286 -47t-201 -128.5t-70 -183.5q0 -254 380 -254h150v-84h-150q-200 0 -318 -96.5t-118 -263.5t98.5 -223.5t267.5 -92.5t231.5 -87t62.5 -159t-113 -259h-96q114 157 114 256
q0 50 -37.5 91t-241.5 79t-297 137.5t-93 251.5t80 255.5t225 145.5v10q-236 70 -236 289z" />
    <glyph glyph-name="omicron" unicode="&#x3bf;" horiz-adv-x="1200" 
d="M223 546q1 -224 99 -350t278 -126t278 126t99 350t-99 348t-280 124t-278 -124t-97 -348zM1081 543q0 -263 -129 -413t-356 -150q-143 0 -252 69t-167 198t-58 298q0 267 129 415q130 148 354 148t352 -150t127 -415z" />
    <glyph glyph-name="pi" unicode="&#x3c0;" horiz-adv-x="1253" 
d="M1085 68q42 0 68 12v-84q-37 -16 -82 -16q-91 0 -142.5 58t-51.5 171v792h-533v-1001h-98v1001h-221v58l165 28h1006v-86h-221v-778q0 -155 110 -155z" />
    <glyph glyph-name="rho" unicode="&#x3c1;" horiz-adv-x="1196" 
d="M596 68q376 0 377 479q0 232 -85.5 351.5t-267.5 119.5t-264 -110.5t-82 -344.5v-373q136 -122 322 -122zM586 -20q-186 0 -316 106h-2l3 -94l3 -187v-297h-98v1059q0 268 114 404.5t336 136.5t336.5 -142t114.5 -420t-124.5 -422t-366.5 -144z" />
    <glyph glyph-name="sigma1" unicode="&#x3c2;" horiz-adv-x="973" 
d="M223 514q0 -141 52 -248t315 -162q161 -34 227 -86t66 -138t-31 -148t-82 -133h-96q114 153 114 260q0 65 -59 100t-211 65t-275.5 119t-123.5 370t134 438t380 157q138 0 268 -49l-27 -88q-141 47 -245 47q-406 0 -406 -504z" />
    <glyph glyph-name="sigma" unicode="&#x3c3;" horiz-adv-x="1202" 
d="M709 1001q-486 0 -486 -467q0 -229 97 -346.5t275 -117.5t276 116t98 318q0 297 -181 497h-79zM1073 535q0 -266 -127.5 -410.5t-351.5 -144.5t-349.5 142t-125.5 408t149.5 411.5t436.5 145.5h448v-86h-254q174 -200 174 -466z" />
    <glyph glyph-name="tau" unicode="&#x3c4;" horiz-adv-x="913" 
d="M848 1087v-86h-430v-677q0 -131 54.5 -194.5t174.5 -63.5q75 0 146 20v-84q-57 -22 -168 -22q-153 0 -230.5 85t-77.5 246v690h-297v58l162 28h666z" />
    <glyph glyph-name="upsilon" unicode="&#x3c5;" horiz-adv-x="1219" 
d="M1085 568q0 -290 -121.5 -439t-351.5 -149t-338 125t-108 387v595h98v-606q0 -201 82.5 -307t267.5 -106q371 0 371 536q0 240 -59 483h98q61 -229 61 -519z" />
    <glyph glyph-name="phi" unicode="&#x3c6;" horiz-adv-x="1389" 
d="M1165 607q0 177 -69.5 294t-182.5 117q-88 0 -133 -69.5t-45 -196.5v-684q128 11 226.5 75.5t151 175.5t52.5 288zM637 -20q-518 34 -518 584q0 278 200 526l80 -56q-102 -138 -139 -248t-37 -233q0 -449 414 -485v682q0 358 283 358q165 0 257.5 -140.5t92.5 -385.5
q0 -180 -66 -311.5t-186.5 -205.5t-282.5 -85v-472h-98v472z" />
    <glyph glyph-name="chi" unicode="&#x3c7;" horiz-adv-x="1053" 
d="M139 1102q44 0 72 -14.5t50 -43.5t42 -77t217 -545l344 665h111l-406 -765l193 -472q54 -134 90 -197t102 -63q42 0 80 9v-76q-38 -15 -96 -15t-98.5 24.5t-74 77t-89.5 193.5l-170 428l-414 -723h-112l477 826l-228 563q-27 67 -53 96t-58 29t-69 -8v71q46 17 90 17z
" />
    <glyph glyph-name="psi" unicode="&#x3c8;" horiz-adv-x="1477" 
d="M1243 593q0 241 -59 494h96q63 -225 63 -497t-142.5 -431.5t-412.5 -176.5v-474h-98v474q-257 12 -390.5 155.5t-133.5 411.5v538h98v-540q0 -221 110 -340.5t316 -132.5v1480h98v-1480q224 17 339.5 147.5t115.5 371.5z" />
    <glyph glyph-name="omega" unicode="&#x3c9;" horiz-adv-x="1503" 
d="M1384 548q0 -284 -91 -426t-259 -142q-113 0 -177 51.5t-99 146.5h-10q-39 -103 -104.5 -150.5t-170.5 -47.5q-168 0 -261 140t-93 425t123 542h102q-66 -154 -93.5 -286.5t-27.5 -316.5t66.5 -299t182.5 -115q230 0 230 290v324h99v-324q0 -136 58.5 -213t175.5 -77
t181 116t64 300t-27.5 315t-93.5 286h103q122 -255 122 -539z" />
    <glyph glyph-name="iotadieresis" unicode="&#x3ca;" horiz-adv-x="629" 
d="M166 303v784h98v-774q0 -133 46 -189t153 -56q65 0 129 16v-84q-57 -20 -139 -20q-151 0 -219 80t-68 243zM384 1389q0 86 64 86t63 -86q1 -86 -63 -86t-64 86zM3 1389q-1 86 63 86t64 -86t-64 -86t-63 86z" />
    <glyph glyph-name="upsilondieresis" unicode="&#x3cb;" horiz-adv-x="1219" 
d="M1085 568q1 -290 -121 -439t-352 -149t-338 125t-108 387v595h98v-606q0 -201 82 -307t268 -106q371 0 371 536q0 240 -59 483h98q61 -229 61 -519zM727 1389q-1 86 63 86t64 -86t-64 -86t-63 86zM346 1389q0 86 64 86t63 -86q1 -86 -63 -86t-64 86z" />
    <glyph glyph-name="omicrontonos" unicode="&#x3cc;" horiz-adv-x="1200" 
d="M223 546q1 -224 99 -350t278 -126t278 126t99 350t-99 348t-280 124t-278 -124t-97 -348zM1081 543q0 -263 -129 -413t-356 -150q-143 0 -252 69t-167 198t-58 298q0 267 129 415q130 148 354 148t352 -150t127 -415zM771 1651v-17q-18 -77 -63 -191t-97 -202h-58v16
q69 179 99 394h119z" />
    <glyph glyph-name="upsilontonos" unicode="&#x3cd;" horiz-adv-x="1219" 
d="M1085 568q1 -290 -121 -439t-352 -149t-338 125t-108 387v595h98v-606q0 -201 82 -307t268 -106q371 0 371 536q0 240 -59 483h98q61 -229 61 -519zM771 1651v-17q-18 -77 -63 -191t-97 -202h-58v16q69 179 99 394h119z" />
    <glyph glyph-name="omegatonos" unicode="&#x3ce;" horiz-adv-x="1503" 
d="M1384 548q0 -284 -91 -426t-259 -142q-113 0 -177 52t-99 146h-10q-38 -102 -104 -150t-171 -48q-168 0 -261 140t-93 425t123 542h102q-66 -155 -94 -287t-27 -316q0 -184 67 -300q66 -114 182 -114q230 0 230 290v324h99v-324q1 -136 59 -213t175 -77t181 116t64 300
t-28 316q-28 130 -93 285h103q122 -255 122 -539zM910 1651v-17q-18 -77 -63 -191t-97 -202h-58v16q69 179 99 394h119z" />
    <glyph glyph-name="uni03D1" unicode="&#x3d1;" horiz-adv-x="1208" 
d="M571 1489q-108 0 -167.5 -55t-59.5 -156q0 -157 151.5 -240.5t434.5 -85.5q-32 252 -127.5 394.5t-231.5 142.5zM545 -20q-365 0 -365 350q0 62 16 182t15 165q0 46 -22.5 70.5t-59.5 24.5t-92 -22l-27 75q62 31 138 31t120.5 -48t44.5 -120t-15 -178t-15 -186
q0 -254 258 -254q401 0 401 686q0 56 -4 108q-332 3 -511 108t-179 300q0 143 85.5 225t231.5 82q187 0 309 -161.5t162 -465.5h142v-90h-136q5 -65 5 -104q0 -375 -130 -576.5t-372 -201.5z" />
    <glyph glyph-name="uni03D2" unicode="&#x3d2;" horiz-adv-x="1104" 
d="M1042 1475q31 0 62 -11v-90q-26 6 -60 6t-100.5 -80t-349.5 -757v-543h-105v557l-489 905h117l426 -800l50 113q140 320 210 461t121 190t118 49z" />
    <glyph glyph-name="uni03D6" unicode="&#x3d6;" horiz-adv-x="1587" 
d="M246 432q0 -362 245 -362q120 0 177 76t57 208v221h98v-221q0 -134 60.5 -209t167.5 -75q252 0 252 362q0 334 -148 569h-737q-172 -293 -172 -569zM1059 -20q-106 0 -174.5 49t-108.5 159h-4q-37 -107 -103 -157.5t-180 -50.5q-171 0 -259.5 114.5t-88.5 337.5
q0 142 41.5 271.5t139.5 297.5h-302v58l168 28h1334v-86h-267q81 -143 116.5 -273t35.5 -296q0 -221 -88.5 -336.5t-259.5 -115.5z" />
    <glyph glyph-name="uni0400" unicode="&#x400;" horiz-adv-x="1130" 
d="M1006 0h-799v1462h799v-94h-697v-553h658v-94h-658v-627h697v-94zM697 1579h-69q-96 79 -188 171t-126 140v17h142q26 -48 98 -142t143 -170v-16z" />
    <glyph glyph-name="afii10023" unicode="&#x401;" horiz-adv-x="1130" 
d="M1006 0h-799v1462h799v-94h-697v-553h658v-94h-658v-627h697v-94zM735 1727q-1 86 63 86t64 -86t-64 -86t-63 86zM354 1727q0 86 64 86t63 -86q1 -86 -63 -86t-64 86z" />
    <glyph glyph-name="afii10051" unicode="&#x402;" horiz-adv-x="1425" 
d="M928 -20q-94 0 -142 18v100q58 -18 154 -18t155.5 71.5t59.5 204.5v160q0 146 -69.5 207t-227.5 61h-409v-784h-103v1366h-336v96h955v-96h-516v-487h438q190 0 281.5 -88t91.5 -271v-160q0 -183 -86 -281.5t-246 -98.5z" />
    <glyph glyph-name="afii10052" unicode="&#x403;" horiz-adv-x="1028" 
d="M309 0h-102v1462h801v-94h-699v-1368zM483 1579v16q73 79 145 171t97 141h141v-17q-81 -117 -313 -311h-70z" />
    <glyph glyph-name="afii10053" unicode="&#x404;" horiz-adv-x="1272" 
d="M831 1391q-256 0 -412.5 -153t-176.5 -425h776v-94h-780q6 -311 156 -478t421 -167q184 0 338 47v-90q-145 -51 -362 -51q-308 0 -485 199t-177 556q0 223 84.5 393t243 262.5t370.5 92.5t381 -80l-41 -92q-160 80 -336 80z" />
    <glyph glyph-name="afii10054" unicode="&#x405;" horiz-adv-x="1116" 
d="M1014 377q0 -183 -134 -290t-380 -107t-389 59v102q158 -67 403 -67q180 0 286 82t105 217q0 83 -35 137t-114 100q-80 46 -268 110t-274 154t-85 246t129 260t332 103q204 0 385 -78l-37 -88q-182 76 -346 76t-260 -75t-96 -204q0 -81 30 -133q30 -51 96 -93
q67 -42 234 -100t253 -114q85 -56 125 -126t40 -171z" />
    <glyph glyph-name="afii10055" unicode="&#x406;" horiz-adv-x="516" 
d="M207 0v1462h102v-1462h-102z" />
    <glyph glyph-name="afii10056" unicode="&#x407;" horiz-adv-x="516" 
d="M207 0v1462h102v-1462h-102zM386 1727q0 86 64 86t63 -86q1 -86 -63 -86t-64 86zM5 1727q-1 86 63 86t64 -86t-64 -86t-63 86z" />
    <glyph glyph-name="afii10057" unicode="&#x408;" horiz-adv-x="506" 
d="M-33 -369q-92 0 -151 27v88q78 -20 149 -20q242 0 242 264v1472h102v-1462q0 -369 -342 -369z" />
    <glyph glyph-name="afii10058" unicode="&#x409;" horiz-adv-x="1874" 
d="M1067 90h190q202 0 298 80.5t96 247.5t-94 238t-314 71h-176v-637zM1761 424q0 -205 -126 -314.5t-355 -109.5h-315v1366h-402q-71 -507 -112 -763.5t-79.5 -385.5t-97.5 -184.5t-139 -55.5t-135 25v92q61 -22 119 -22t97 51t90 250.5t171 1088.5h590v-645h195
q250 0 374.5 -94t124.5 -299z" />
    <glyph glyph-name="afii10059" unicode="&#x40a;" horiz-adv-x="1939" 
d="M1133 90h190q201 0 297 79.5t96 247.5t-94 239t-313 71h-176v-637zM1133 817h194q249 0 374.5 -94.5t125.5 -298.5t-126 -314t-355 -110h-316v723h-721v-723h-102v1462h102v-645h721v645h103v-645z" />
    <glyph glyph-name="afii10060" unicode="&#x40b;" horiz-adv-x="1430" 
d="M449 879h450q189 0 275 -85t86 -274v-520h-105v526q0 145 -60 201.5t-210 56.5h-436v-784h-103v1366h-336v96h981v-96h-542v-487z" />
    <glyph glyph-name="afii10061" unicode="&#x40c;" horiz-adv-x="1171" 
d="M309 0h-102v1462h102v-708l703 708h135l-707 -708l731 -754h-139l-723 745v-745zM553 1579v16q73 79 145 171t97 141h141v-17q-81 -117 -313 -311h-70z" />
    <glyph glyph-name="uni040D" unicode="&#x40d;" horiz-adv-x="1477" 
d="M207 1462h98v-956q0 -102 -8 -342h6l864 1298h103v-1462h-99v950q0 162 13 350h-8l-867 -1300h-102v1462zM852 1579h-69q-97 79 -189 171t-125 140v17h142q27 -48 99 -142t142 -170v-16z" />
    <glyph glyph-name="afii10062" unicode="&#x40e;" horiz-adv-x="1204" 
d="M266 -20q-108 0 -182 30v103q86 -37 170 -37t136 24t95 80q44 54 107 182l-582 1100h121l447 -854q35 -69 63 -143h4l25 61l420 936h114l-469 -1028q-45 -98 -86 -182t-91 -144t-117 -94t-175 -34zM623 1579q-149 1 -227 67t-91 214h88q15 -110 68 -156t163 -45
q110 0 164 47t66 154h88q-21 -281 -319 -281z" />
    <glyph glyph-name="afii10145" unicode="&#x40f;" horiz-adv-x="1462" 
d="M1255 0h-475v-369h-98v369h-475v1462h102v-1366h844v1366h102v-1462z" />
    <glyph glyph-name="afii10017" unicode="&#x410;" horiz-adv-x="1229" 
d="M354 608h523l-199 527q-25 62 -60 172q-27 -96 -59 -174zM911 516h-594l-204 -516h-113l588 1468h65l576 -1468h-115z" />
    <glyph glyph-name="afii10018" unicode="&#x411;" horiz-adv-x="1219" 
d="M309 90h299q197 0 292 79.5t95 247.5t-96 239t-311 71h-279v-637zM602 817q252 0 378 -95.5t126 -299.5t-124.5 -313t-356.5 -109h-418v1462h821v-96h-719v-549h293z" />
    <glyph glyph-name="afii10019" unicode="&#x412;" horiz-adv-x="1284" 
d="M309 721v-631h344q406 0 406 330q0 301 -428 301h-322zM309 811h322q205 1 299 69t94 214t-106 212t-314 66h-295v-561zM207 1462h401q271 0 398 -92t127 -278q1 -128 -77 -212t-227 -108v-6q175 -26 257 -110t83 -236q0 -202 -134 -311t-380 -109h-448v1462z" />
    <glyph glyph-name="afii10020" unicode="&#x413;" horiz-adv-x="1028" 
d="M309 0h-102v1462h801v-94h-699v-1368z" />
    <glyph glyph-name="afii10021" unicode="&#x414;" horiz-adv-x="1337" 
d="M1022 96v1270h-430q-24 -315 -126 -679t-233 -591h789zM1276 -369h-98v369h-1065v-369h-99v465h105q148 257 260 652.5t125 713.5h622v-1366h150v-465z" />
    <glyph glyph-name="afii10022" unicode="&#x415;" horiz-adv-x="1130" 
d="M1006 0h-799v1462h799v-94h-697v-553h658v-94h-658v-627h697v-94z" />
    <glyph glyph-name="afii10024" unicode="&#x416;" horiz-adv-x="1597" 
d="M748 1462h102v-708l588 708h127l-594 -710l626 -752h-135l-612 741v-741h-102v741l-613 -741h-135l625 745l-592 717h127l588 -708v708z" />
    <glyph glyph-name="afii10025" unicode="&#x417;" horiz-adv-x="1145" 
d="M920 403q0 308 -449 308h-217v96h225q212 0 313 80t101 216t-92.5 211t-222.5 75t-223 -31.5t-201 -108.5l-58 80q202 154 463 154q205 0 323.5 -98t118.5 -265q0 -286 -303 -352v-6q332 -71 332 -356q0 -201 -141.5 -313.5t-391.5 -112.5t-415 86v104q198 -96 403 -96
q204 0 319.5 86.5t115.5 242.5z" />
    <glyph glyph-name="afii10026" unicode="&#x418;" horiz-adv-x="1477" 
d="M207 1462h98v-956q0 -102 -8 -342h6l864 1298h103v-1462h-99v950q0 162 13 350h-8l-867 -1300h-102v1462z" />
    <glyph glyph-name="afii10027" unicode="&#x419;" horiz-adv-x="1477" 
d="M207 1462h98v-956q0 -102 -8 -342h6l864 1298h103v-1462h-99v950q0 162 13 350h-8l-867 -1300h-102v1462zM737 1579q-149 1 -227 67t-91 214h88q15 -110 68 -156t163 -45q110 0 164 47t66 154h88q-21 -281 -319 -281z" />
    <glyph glyph-name="afii10028" unicode="&#x41a;" horiz-adv-x="1171" 
d="M309 0h-102v1462h102v-708l703 708h135l-707 -708l731 -754h-139l-723 745v-745z" />
    <glyph glyph-name="afii10029" unicode="&#x41b;" horiz-adv-x="1395" 
d="M1188 0h-103v1366h-530q-96 -797 -146 -1001t-101 -296t-191 -92q-67 0 -117 25v92q61 -22 113 -22q87 0 153.5 148t202.5 1242h719v-1462z" />
    <glyph glyph-name="afii10030" unicode="&#x41c;" horiz-adv-x="1767" 
d="M305 1096v-1096h-98v1462h158l518 -1286h6l518 1286h154v-1462h-103v1108q0 116 12 240h-8l-547 -1348h-65l-545 1350h-8q8 -124 8 -254z" />
    <glyph glyph-name="afii10031" unicode="&#x41d;" horiz-adv-x="1473" 
d="M1266 0h-103v719h-854v-719h-102v1462h102v-649h854v649h103v-1462z" />
    <glyph glyph-name="afii10032" unicode="&#x41e;" horiz-adv-x="1565" 
d="M240 732q0 -314 140 -484q140 -172 403 -172t403 170t139 486q1 316 -139 486q-140 168 -402 168t-402 -170q-142 -170 -142 -484zM1436 734q0 -348 -174 -552q-174 -202 -480 -202t-479 202q-174 202 -174 552q-1 350 175 550t481 201t478 -201t173 -550z" />
    <glyph glyph-name="afii10033" unicode="&#x41f;" horiz-adv-x="1462" 
d="M1255 0h-102v1366h-844v-1366h-102v1462h1048v-1462z" />
    <glyph glyph-name="afii10034" unicode="&#x420;" horiz-adv-x="1198" 
d="M309 692h201q247 0 357 82t110 257t-104 257t-322 82h-242v-678zM1087 1042q0 -212 -144 -325t-408 -113h-226v-604h-102v1462h358q522 0 522 -420z" />
    <glyph glyph-name="afii10035" unicode="&#x421;" horiz-adv-x="1272" 
d="M831 1391q-275 0 -433 -176q-158 -175 -158 -485t149 -483t426 -173q184 0 338 47v-90q-145 -51 -362 -51q-308 0 -485 199t-177 556q1 223 85 393t242 262t371 93q212 0 381 -80l-41 -92q-160 80 -336 80z" />
    <glyph glyph-name="afii10036" unicode="&#x422;" horiz-adv-x="1073" 
d="M588 0h-103v1366h-475v96h1053v-96h-475v-1366z" />
    <glyph glyph-name="afii10037" unicode="&#x423;" horiz-adv-x="1204" 
d="M266 -20q-108 0 -182 30v103q86 -37 170 -37t135.5 24.5t95.5 79t107 182.5l-582 1100h121l447 -854q35 -69 63 -143h4l25 61l420 936h114l-469 -1028q-45 -99 -86 -182.5t-91 -143.5t-117 -94t-175 -34z" />
    <glyph glyph-name="afii10038" unicode="&#x424;" horiz-adv-x="1561" 
d="M729 1219h-41q-219 0 -343 -122t-124 -341q1 -219 129 -343t363 -124h16v930zM831 289h15q236 1 364 125t129 348q0 224 -120 340q-120 117 -345 117h-43v-930zM729 1483h102v-180h43q276 0 426 -141t150 -392q0 -358 -276 -496q-136 -68 -332 -69h-11v-225h-102v225h-18
q-193 0 -327 68q-272 138 -273 485q0 156 70 282t201 194q131 69 310 69h37v180z" />
    <glyph glyph-name="afii10039" unicode="&#x425;" horiz-adv-x="1102" 
d="M1102 0h-117l-432 682l-440 -682h-113l492 762l-447 700h115l395 -626l401 626h109l-453 -698z" />
    <glyph glyph-name="afii10040" unicode="&#x426;" horiz-adv-x="1473" 
d="M1255 96h156v-465h-98v369h-1106v1462h102v-1366h844v1366h102v-1366z" />
    <glyph glyph-name="afii10041" unicode="&#x427;" horiz-adv-x="1372" 
d="M602 532q-420 0 -420 367v563h103v-567q0 -266 325 -266q96 0 192 17.5t261 76.5v739h102v-1462h-102v635q-261 -103 -461 -103z" />
    <glyph glyph-name="afii10042" unicode="&#x428;" horiz-adv-x="2060" 
d="M1853 0h-1646v1462h102v-1366h670v1366h102v-1366h670v1366h102v-1462z" />
    <glyph glyph-name="afii10043" unicode="&#x429;" horiz-adv-x="2071" 
d="M207 0v1462h102v-1366h670v1366h102v-1366h670v1366h102v-1366h156v-465h-98v369h-1704z" />
    <glyph glyph-name="afii10044" unicode="&#x42a;" horiz-adv-x="1348" 
d="M449 90h288q197 0 292 79.5t95 247.5t-96 239t-311 71h-268v-637zM346 0v1366h-336v96h439v-645h282q252 0 378 -95.5t126 -299.5t-124.5 -313t-356.5 -109h-408z" />
    <glyph glyph-name="afii10045" unicode="&#x42b;" horiz-adv-x="1669" 
d="M309 90h289q204 0 295.5 83t91.5 247t-95 235.5t-312 71.5h-269v-637zM309 817h283q251 0 377.5 -95.5t126.5 -299.5t-124 -313t-358 -109h-407v1462h102v-645zM1462 0h-102v1462h102v-1462z" />
    <glyph glyph-name="afii10046" unicode="&#x42c;" horiz-adv-x="1219" 
d="M309 90h301q197 0 292 79.5t95 247.5t-96 239t-311 71h-281v-637zM309 817h295q252 0 378 -95.5t126 -299.5t-124 -313t-357 -109h-420v1462h102v-645z" />
    <glyph glyph-name="afii10047" unicode="&#x42d;" horiz-adv-x="1266" 
d="M434 1391q-157 0 -317 -78l-41 92q164 78 368 78q324 0 508.5 -192t184.5 -525q0 -239 -83 -417t-239.5 -273.5t-378.5 -95.5t-366 51v94q167 -51 364 -51q270 0 425 169t169 476h-774v94h772q-22 278 -174.5 428t-417.5 150z" />
    <glyph glyph-name="afii10048" unicode="&#x42e;" horiz-adv-x="2105" 
d="M834 733q0 -313 133 -485t383 -172t383 170t133 486t-133 485t-381 169t-383 -170t-135 -483zM1976 734q0 -348 -166 -551t-460 -203t-459.5 199.5t-167.5 539.5h-414v-719h-102v1462h102v-649h416q19 312 185 492t450 180t450 -201.5t166 -549.5z" />
    <glyph glyph-name="afii10049" unicode="&#x42f;" horiz-adv-x="1202" 
d="M231 1047q0 -322 385 -322h277v645h-242q-221 0 -320.5 -76.5t-99.5 -246.5zM121 1042q0 420 526 420h348v-1462h-102v637h-348l-391 -637h-123l411 657q-153 30 -237 131t-84 254z" />
    <glyph glyph-name="afii10065" unicode="&#x430;" horiz-adv-x="1085" 
d="M442 70q174 0 274 100t101 276v107l-190 -8q-229 -11 -327 -71t-97 -176t63 -172t176 -56zM415 -20q-139 0 -228 82t-89 234t132 240t384 93l207 6v72q0 155 -63 234q-62 79 -208 79t-308 -84l-37 86q179 84 356 84t265 -93t89 -290v-723h-73l-25 172h-8
q-83 -104 -169 -148t-225 -44z" />
    <glyph glyph-name="afii10066" unicode="&#x431;" horiz-adv-x="1176" 
d="M954 506q0 416 -317 416q-116 0 -224.5 -72.5t-189.5 -200.5q0 -179 66 -379t313 -200q171 0 261.5 114t90.5 322zM123 653q0 708 399 807q140 35 268.5 59.5t227.5 43.5l18 -86l-120 -23q-297 -56 -392 -86q-277 -80 -299 -592h6q107 127 208 181.5t208 54.5
q200 0 306 -129t106 -375t-122.5 -387t-344.5 -141t-345.5 175t-123.5 498z" />
    <glyph glyph-name="afii10067" unicode="&#x432;" horiz-adv-x="1159" 
d="M911 814q0 98 -68 138.5t-204 40.5h-358v-372h346q152 0 218 47.5t66 145.5zM942 328q0 200 -307 200h-354v-434h368q293 0 293 234zM1016 838q0 -116 -51 -174.5t-166 -81.5v-7q131 -15 189.5 -75.5t58.5 -173.5q0 -157 -103.5 -241.5t-302.5 -84.5h-459v1087h461
q186 0 279.5 -66.5t93.5 -182.5z" />
    <glyph glyph-name="afii10068" unicode="&#x433;" horiz-adv-x="862" 
d="M821 1001h-540v-1001h-99v1087h639v-86z" />
    <glyph glyph-name="afii10069" unicode="&#x434;" horiz-adv-x="1118" 
d="M825 94v901h-338q-24 -541 -262 -901h600zM924 1087v-993h145v-463h-98v369h-832v-369h-98v463h72q280 393 288 993h523z" />
    <glyph glyph-name="afii10070" unicode="&#x435;" horiz-adv-x="1124" 
d="M586 1020q-151 0 -246 -104t-111 -298h672q0 190 -82 296t-233 106zM119 534q0 262 128 418q129 156 333 156t315 -134t111 -364v-80h-783q3 -224 105 -342t293 -118q93 0 163 13t179 56v-90q-159 -69 -342 -69q-237 0 -369 146t-133 408z" />
    <glyph glyph-name="afii10072" unicode="&#x436;" horiz-adv-x="1362" 
d="M631 1087h100v-528l467 528h121l-471 -528l508 -559h-127l-498 551v-551h-100v551l-498 -551h-127l506 555l-469 532h121l467 -528v528z" />
    <glyph glyph-name="afii10073" unicode="&#x437;" horiz-adv-x="926" 
d="M719 311q0 221 -316 221h-151v86h135q295 0 295 203q0 97 -68 148t-198 51t-293 -72l-37 82q174 78 345 78t263 -74t92 -205q0 -189 -194 -241v-6q231 -57 231 -277q0 -151 -110.5 -238t-314.5 -87t-330 75v99q103 -49 178 -66.5t160 -17.5q148 0 230.5 62.5t82.5 178.5z
" />
    <glyph glyph-name="afii10074" unicode="&#x438;" horiz-adv-x="1229" 
d="M276 1087v-786l-6 -205l645 991h132v-1087h-95v781l4 210l-645 -991h-129v1087h94z" />
    <glyph glyph-name="afii10075" unicode="&#x439;" horiz-adv-x="1229" 
d="M276 1087v-786l-6 -205l645 991h132v-1087h-95v781l4 210l-645 -991h-129v1087h94zM615 1241q-149 1 -227 67t-91 214h88q15 -110 68 -156t163 -45q110 0 164 47t66 154h88q-21 -281 -319 -281z" />
    <glyph glyph-name="afii10076" unicode="&#x43a;" horiz-adv-x="940" 
d="M283 0h-101v1087h101v-528l489 528h123l-487 -526l522 -561h-133l-514 551v-551z" />
    <glyph glyph-name="afii10077" unicode="&#x43b;" horiz-adv-x="1116" 
d="M934 0h-98v995h-385q-30 -395 -73.5 -602.5t-112 -305t-177.5 -97.5q-39 0 -68 8v90q19 -6 54 -6q113 0 182.5 238.5t105.5 766.5h572v-1087z" />
    <glyph glyph-name="afii10078" unicode="&#x43c;" horiz-adv-x="1382" 
d="M272 0h-90v1087h131l314 -800q37 -97 61 -181l62 175l313 806h137v-1087h-94v967q-44 -126 -373 -967h-88l-301 764q-19 46 -35.5 97t-36.5 110v-971z" />
    <glyph glyph-name="afii10079" unicode="&#x43d;" horiz-adv-x="1251" 
d="M281 1087v-477h690v477h98v-1087h-98v524h-690v-524h-99v1087h99z" />
    <glyph glyph-name="afii10080" unicode="&#x43e;" horiz-adv-x="1200" 
d="M223 546q1 -224 99 -350t278 -126t278 126t99 350t-99 348t-280 124t-278 -124t-97 -348zM1081 543q0 -263 -129 -413t-356 -150q-143 0 -252 69t-167 198t-58 298q0 267 129 415q130 148 354 148t352 -150t127 -415z" />
    <glyph glyph-name="afii10081" unicode="&#x43f;" horiz-adv-x="1231" 
d="M281 0h-99v1087h867v-1087h-99v993h-669v-993z" />
    <glyph glyph-name="afii10082" unicode="&#x440;" horiz-adv-x="1219" 
d="M632 68q180 0 272 124t91 347q0 479 -346 479q-190 0 -279 -104t-89 -341v-32q-1 -255 85 -364t266 -109zM647 -20q-251 0 -366 188h-7l3 -84q4 -74 4 -162v-414h-99v1579h84l19 -155h6q112 176 345 176q232 0 348 -144t116 -417q0 -271 -122 -419t-331 -148z" />
    <glyph glyph-name="afii10083" unicode="&#x441;" horiz-adv-x="973" 
d="M616 -20q-233 0 -365 147t-132 413t137 418q137 150 375 150q141 0 270 -49l-27 -88q-141 47 -245 47q-200 0 -303 -124t-103 -349q0 -227 103 -351t288 -124q148 0 275 53v-92q-104 -51 -273 -51z" />
    <glyph glyph-name="afii10084" unicode="&#x442;" horiz-adv-x="913" 
d="M872 1001h-362v-1001h-98v1001h-371v86h831v-86z" />
    <glyph glyph-name="afii10085" unicode="&#x443;" horiz-adv-x="940" 
d="M140 -492q-66 0 -136 21v86q58 -16 117 -16q107 1 169 99q40 63 126 302l-416 1087h102l230 -610q105 -281 133 -379h6q42 129 137 385l230 604h102l-487 -1263q-59 -154 -99 -208t-94 -81t-120 -27z" />
    <glyph glyph-name="afii10086" unicode="&#x444;" horiz-adv-x="1372" 
d="M1149 546q0 208 -107 330.5t-305 139.5v-944q200 17 306 141.5t106 332.5zM223 544q0 -212 108.5 -334.5t307.5 -137.5v944q-205 -17 -310.5 -138.5t-105.5 -333.5zM1253 545q0 -251 -135.5 -399t-380.5 -166v-472h-98v472q-244 14 -382 162t-138 401t136 400t384 165
v448h98v-448q246 -18 381 -165t135 -398z" />
    <glyph glyph-name="afii10087" unicode="&#x445;" horiz-adv-x="1020" 
d="M449 559l-379 528h114l324 -458l321 458h109l-373 -528l400 -559h-115l-342 485l-344 -485h-109z" />
    <glyph glyph-name="afii10088" unicode="&#x446;" horiz-adv-x="1223" 
d="M1174 -369h-99v369h-893v1087h99v-993h649v993h98v-993h146v-463z" />
    <glyph glyph-name="afii10089" unicode="&#x447;" horiz-adv-x="1188" 
d="M164 711v376h98v-364q0 -138 67 -199t206 -61q189 0 372 147v477h99v-1087h-99v516q-186 -143 -405 -143q-167 0 -252.5 87t-85.5 251z" />
    <glyph glyph-name="afii10090" unicode="&#x448;" horiz-adv-x="1745" 
d="M922 94h542v993h99v-1087h-1381v1087h99v-993h542v993h99v-993z" />
    <glyph glyph-name="afii10091" unicode="&#x449;" horiz-adv-x="1757" 
d="M922 94h542v993h99v-993h145v-463h-98v369h-1428v1087h99v-993h542v993h99v-993z" />
    <glyph glyph-name="afii10092" unicode="&#x44a;" horiz-adv-x="1323" 
d="M469 535v-441h338q144 0 218.5 62t74.5 172t-67 158.5t-232 48.5h-332zM469 629h352q383 0 383 -301q0 -155 -107 -241.5t-306 -86.5h-420v1001h-330v86h428v-458z" />
    <glyph glyph-name="afii10093" unicode="&#x44b;" horiz-adv-x="1481" 
d="M1298 0h-98v1087h98v-1087zM281 535v-441h331q141 0 217 59t76 172t-67 161.5t-232 48.5h-325zM281 629h346q383 0 383 -301q0 -155 -107 -241.5t-307 -86.5h-414v1087h99v-458z" />
    <glyph glyph-name="afii10094" unicode="&#x44c;" horiz-adv-x="1165" 
d="M281 535v-441h368q142 0 217.5 60t75.5 172t-67 160.5t-232 48.5h-362zM281 629h383q383 0 383 -301q0 -155 -107 -241.5t-307 -86.5h-451v1087h99v-458z" />
    <glyph glyph-name="afii10095" unicode="&#x44d;" horiz-adv-x="1006" 
d="M358 -20q-193 0 -290 51v92q127 -53 284 -53q196 0 313 124.5t119 335.5h-620v88h616q-17 197 -119.5 298.5t-281.5 101.5q-106 0 -266 -60l-29 89q56 23 140 42t153 19q244 0 377 -144t133 -410t-141.5 -420t-387.5 -154z" />
    <glyph glyph-name="afii10096" unicode="&#x44e;" horiz-adv-x="1634" 
d="M735 546q0 -225 88.5 -350.5t249.5 -125.5t249.5 126t88.5 350t-88.5 348t-250.5 124t-249.5 -123.5t-87.5 -348.5zM1516 543q0 -264 -119.5 -413.5t-321.5 -149.5t-321.5 147t-122.5 397h-350v-524h-99v1087h99v-477h352q14 235 130.5 366.5t316.5 131.5t318 -150.5
t118 -414.5z" />
    <glyph glyph-name="afii10097" unicode="&#x44f;" horiz-adv-x="1083" 
d="M190 772q0 -221 291 -221h322v442h-352q-124 0 -192.5 -56.5t-68.5 -164.5zM86 782q0 134 99.5 219.5t267.5 85.5h448v-1087h-98v457h-332l-305 -457h-125l328 469q-150 28 -216.5 103.5t-66.5 209.5z" />
    <glyph glyph-name="uni0450" unicode="&#x450;" horiz-adv-x="1124" 
d="M586 1020q-151 0 -246 -104t-111 -298h672q0 190 -82 296t-233 106zM119 534q0 262 128 418q129 156 333 156t315 -134t111 -364v-80h-783q3 -224 105 -342t293 -118q93 0 163 13t179 56v-90q-159 -69 -342 -69q-237 0 -369 146t-133 408zM685 1241h-69q-96 79 -188 171
t-126 140v17h142q26 -48 98 -142t143 -170v-16z" />
    <glyph glyph-name="afii10071" unicode="&#x451;" horiz-adv-x="1124" 
d="M586 1020q-151 0 -246 -104t-111 -298h672q0 190 -82 296t-233 106zM119 534q0 262 128 418q129 156 333 156t315 -134t111 -364v-80h-783q3 -224 105 -342t293 -118q93 0 163 13t179 56v-90q-159 -69 -342 -69q-237 0 -369 146t-133 408zM712 1389q0 86 64 86t63 -86
q1 -86 -63 -86t-64 86zM331 1389q-1 86 63 86t64 -86t-64 -86t-63 86z" />
    <glyph glyph-name="afii10099" unicode="&#x452;" horiz-adv-x="1208" 
d="M795 -492q-79 0 -136 25v86q69 -20 129 -20q152 0 152 176v899q0 164 -68.5 238.5t-214.5 74.5q-197 0 -286.5 -98.5t-89.5 -319.5v-569h-99v1272h-155v82h155v202h99v-202h473v-82h-473v-242l-5 -139h7q61 98 154 142t231 44q370 0 370 -397v-891q0 -134 -62.5 -207.5
t-180.5 -73.5z" />
    <glyph glyph-name="afii10100" unicode="&#x453;" horiz-adv-x="862" 
d="M821 1001h-540v-1001h-99v1087h639v-86zM378 1241v16q72 79 144 171t98 141h141v-17q-81 -117 -313 -311h-70z" />
    <glyph glyph-name="afii10101" unicode="&#x454;" horiz-adv-x="993" 
d="M627 -20q-237 0 -372.5 149t-135.5 411t140.5 415t381.5 153q157 0 281 -49l-29 -88q-132 47 -254 47q-185 0 -291 -105t-123 -295h625v-88h-629q2 -217 111.5 -338.5t279.5 -121.5t297 53v-92q-102 -51 -282 -51z" />
    <glyph glyph-name="afii10102" unicode="&#x455;" horiz-adv-x="954" 
d="M423 -20q-211 0 -339 67v107q164 -82 336 -82t254 54q84 54 84 138q0 86 -66 142t-224 112t-224 100q-133 86 -133 217q1 131 103 202t282 71t338 -66l-37 -90q-160 66 -295 66t-213 -44t-78 -126q1 -82 61 -132q60 -51 222 -109q162 -59 228 -101q134 -85 134 -227
q0 -143 -111 -221t-322 -78z" />
    <glyph glyph-name="afii10103" unicode="&#x456;" horiz-adv-x="463" 
d="M231 1292q-63 0 -63 96t64 97q64 0 65 -96q1 -45 -17 -71t-49 -26zM281 0h-99v1087h99v-1087z" />
    <glyph glyph-name="afii10104" unicode="&#x457;" horiz-adv-x="463" 
d="M281 0h-99v1087h99v-1087zM360 1389q0 86 64 86t63 -86q1 -86 -63 -86t-64 86zM-21 1389q-1 86 63 86t64 -86t-64 -86t-63 86z" />
    <glyph glyph-name="afii10105" unicode="&#x458;" horiz-adv-x="463" 
d="M231 1292q-63 0 -63 96t64 97q64 0 65 -96q1 -45 -17 -71t-49 -26zM37 -492q-80 0 -135 25v86q69 -20 129 -20q151 0 151 176v1312h99v-1298q1 -135 -63 -208t-181 -73z" />
    <glyph glyph-name="afii10106" unicode="&#x459;" horiz-adv-x="1655" 
d="M862 526v-432h271q154 0 226.5 57.5t72.5 187.5t-86.5 158.5t-219.5 28.5h-264zM862 621h285q205 0 297 -71.5t92 -225.5q0 -324 -420 -324h-352v995h-313q-29 -394 -72.5 -603t-113.5 -305.5t-181 -96.5q-37 0 -64 8v90q20 -6 52 -6q114 0 183 231t107 774h500v-466z
" />
    <glyph glyph-name="afii10107" unicode="&#x45a;" horiz-adv-x="1759" 
d="M967 526v-432h280q142 0 215.5 54.5t73.5 187.5t-86.5 161.5t-208.5 28.5h-274zM967 1087v-466h295q196 0 287 -71t91 -229t-104.5 -239.5t-304.5 -81.5h-363v526h-587v-526h-99v1087h99v-466h587v466h99z" />
    <glyph glyph-name="afii10108" unicode="&#x45b;" horiz-adv-x="1208" 
d="M940 0v674q0 164 -69 238t-214 75q-197 0 -287 -98t-89 -320v-569h-99v1272h-155v82h155v202h99v-202h473v-82h-473v-242l-5 -139h7q61 98 154 142t231 44q370 0 370 -397v-680h-98z" />
    <glyph glyph-name="afii10109" unicode="&#x45c;" horiz-adv-x="940" 
d="M283 0h-101v1087h101v-528l489 528h123l-487 -526l522 -561h-133l-514 551v-551zM422 1241v16q72 79 144 171t98 141h141v-17q-81 -117 -313 -311h-70z" />
    <glyph glyph-name="uni045D" unicode="&#x45d;" horiz-adv-x="1229" 
d="M276 1087v-786l-6 -205l645 991h132v-1087h-95v781l4 210l-645 -991h-129v1087h94zM720 1241h-69q-97 79 -189 171t-125 140v17h142q27 -48 99 -142t142 -170v-16z" />
    <glyph glyph-name="afii10110" unicode="&#x45e;" horiz-adv-x="940" 
d="M140 -492q-66 0 -136 21v86q58 -16 117 -16q107 1 169 99q40 63 126 302l-416 1087h102l230 -610q105 -281 133 -379h6q42 129 137 385l230 604h102l-487 -1263q-59 -154 -99 -208t-94 -81t-120 -27zM470 1241q-149 1 -227 67t-91 214h88q15 -110 68 -156q54 -46 164 -45
q110 0 164 47t65 154h88q-21 -281 -319 -281z" />
    <glyph glyph-name="afii10193" unicode="&#x45f;" horiz-adv-x="1231" 
d="M567 0h-385v1087h99v-993h669v993h99v-1087h-383v-369h-99v369z" />
    <glyph glyph-name="uni0460" unicode="&#x460;" horiz-adv-x="1987" 
d="M587 1386q-100 0 -223.5 -113.5t-123.5 -514.5q0 -324 114.5 -503t319.5 -179q165 0 268 80v506h102v-504q110 -82 298 -82t296.5 180.5t108.5 501.5q0 397 -118.5 512.5t-217.5 115.5t-209 -59l-43 94q121 64 254 64q212 0 328.5 -190.5t116.5 -546.5t-135 -562
t-382 -206q-111 0 -189.5 21.5t-156.5 74.5h-4q-76 -53 -153.5 -74.5t-188.5 -21.5q-250 0 -385 206t-135 560t124 546.5t341 192.5q135 0 254 -64l-43 -94q-118 59 -218 59z" />
    <glyph glyph-name="uni0461" unicode="&#x461;" horiz-adv-x="1548" 
d="M1370 1087h94q0 -367 -99 -618.5t-314 -468.5h-101l-196 526l-30 -65q-37 -82 -46 -101t-184 -360h-103l-391 1087h104l209 -577q39 -106 136 -408h6q61 137 262 525l-166 460h102l209 -577l148 -422h6q354 354 354 999z" />
    <glyph glyph-name="uni0462" unicode="&#x462;" horiz-adv-x="1378" 
d="M758 88q397 0 397 332q0 158 -98 231.5t-320 73.5h-268v-637h289zM756 817q510 0 510 -397q0 -199 -128 -309.5t-364 -110.5h-407v1155h-336v84h336v317h102v-317h481v-84h-481v-338h287z" />
    <glyph glyph-name="uni0463" unicode="&#x463;" horiz-adv-x="1241" 
d="M356 535v-441h369q142 0 217.5 60t75.5 172t-69 160.5t-236 48.5h-357zM356 1087h398v-81h-398v-377h383q383 0 383 -301q0 -155 -107 -241.5t-306 -86.5h-451v1006h-227v81h227v232h98v-232z" />
    <glyph glyph-name="uni0464" unicode="&#x464;" horiz-adv-x="1866" 
d="M1425 1391q-256 0 -412.5 -153t-176.5 -425h776v-94h-781q6 -309 155.5 -477t422.5 -168q184 0 338 47v-90q-145 -51 -363 -51q-304 0 -480.5 195t-180.5 544h-414v-719h-102v1462h102v-649h416q23 308 209.5 489t484.5 181q214 0 383 -80l-41 -92q-160 80 -336 80z" />
    <glyph glyph-name="uni0465" unicode="&#x465;" horiz-adv-x="1487" 
d="M281 528v-528h-99v1087h99v-473h356q19 232 153 363t351 131q61 0 141.5 -13.5t132.5 -35.5l-29 -88q-121 47 -245 47q-178 0 -281.5 -106t-120.5 -298h584v-88h-588q2 -213 106 -334.5t289 -121.5q148 0 273 53v-92q-100 -51 -275 -51q-237 0 -365 142.5t-130 405.5
h-352z" />
    <glyph glyph-name="uni0466" unicode="&#x466;" horiz-adv-x="1286" 
d="M442 784h406q-82 198 -126 304t-73 204q-16 -52 -33 -96t-174 -412zM692 690v-690h-98v690h-191l-292 -690h-111l627 1468h49l610 -1468h-115l-284 690h-195z" />
    <glyph glyph-name="uni0467" unicode="&#x467;" horiz-adv-x="1022" 
d="M352 582h318q-116 287 -156 409h-6q-50 -161 -156 -409zM559 500v-500h-98v500h-142l-206 -500h-103l453 1087h98l451 -1087h-101l-209 500h-143z" />
    <glyph glyph-name="uni0468" unicode="&#x468;" horiz-adv-x="1763" 
d="M932 813h381l-121 293q-34 85 -66 186q-16 -51 -32.5 -94.5t-161.5 -384.5zM1169 719v-719h-98v719h-178l-305 -719h-111l307 719h-475v-719h-102v1462h102v-649h516l279 655h49l610 -1468h-114l-297 719h-183z" />
    <glyph glyph-name="uni0469" unicode="&#x469;" horiz-adv-x="1395" 
d="M739 614h291q-114 281 -143 377h-6q-49 -155 -142 -377zM932 532v-532h-98v532h-127l-222 -532h-102l221 528h-323v-528h-99v1087h99v-473h358l197 473h98l450 -1087h-100l-221 532h-131z" />
    <glyph glyph-name="uni046A" unicode="&#x46a;" horiz-adv-x="1419" 
d="M1133 1368h-848l424 -526zM1260 1462v-86l-439 -545q229 -6 306.5 -108.5t123.5 -251.5t144 -471h-105l-147 483q-45 148 -118 204t-230 56h-35v-743h-103v743h-34q-109 0 -171 -23.5t-103 -78t-73 -158.5l-147 -483h-104l139 457q47 158 124.5 263t307.5 111l-438 545
v86h1102z" />
    <glyph glyph-name="uni046B" unicode="&#x46b;" horiz-adv-x="1241" 
d="M965 1001h-691l347 -380zM1083 1087v-83l-342 -373q177 -13 242 -91.5t119 -211.5l129 -328h-105l-133 344q-44 115 -106.5 157t-179.5 42h-37v-543h-99v543h-34q-119 0 -181.5 -42t-105.5 -155l-135 -346h-105l129 328q48 124 114 208t247 95l-344 373v83h927z" />
    <glyph glyph-name="uni046C" unicode="&#x46c;" horiz-adv-x="1929" 
d="M1642 1368h-847l428 -539zM1769 1462v-86l-438 -559q126 -4 206.5 -38t132 -104t95.5 -218l140 -457h-105l-147 483q-44 144 -115.5 195t-232.5 51h-35v-729h-103v729h-34q-117 0 -178.5 -22.5t-100.5 -75t-68 -148.5l-147 -483h-104l139 457q28 94 61 161t86 111h-512
v-729h-102v1462h102v-639h805l-446 553v86h1101z" />
    <glyph glyph-name="uni046D" unicode="&#x46d;" horiz-adv-x="1636" 
d="M1360 1001h-690l346 -380zM1479 1087v-83l-355 -388q188 0 255 -79t118 -209l129 -328h-104l-133 344q-42 109 -100 146.5t-181 37.5h-43v-528h-98v528h-43q-124 0 -182 -37.5t-99 -144.5l-135 -346h-102l129 328q55 143 120 200h-374v-528h-99v1087h99v-473h630
l-360 390v83h928z" />
    <glyph glyph-name="uni046E" unicode="&#x46e;" horiz-adv-x="1145" 
d="M778 -362q-113 0 -204.5 -8.5t-182.5 -8.5q-150 0 -229.5 60.5t-79.5 178.5t98 182t324 77t317.5 79.5t91.5 213.5q0 299 -442 299h-217v96h225q212 0 313 80t101 216t-92.5 211t-222.5 75t-223 -31.5t-201 -108.5l-58 80q74 58 175 98.5t200 49.5q-65 75 -235 245v17h75
q108 -77 236 -203q91 113 154 156t113 43t85 -13v-84q-26 11 -66 11q-90 0 -215 -168q181 -17 282 -113t101 -248q0 -286 -303 -352v-6q163 -31 247.5 -115t84.5 -237q0 -193 -126 -285t-415 -109q-157 -9 -226.5 -44t-69.5 -111q0 -146 198 -146l377 17q127 0 201 -35v-105
q-78 46 -191 46z" />
    <glyph glyph-name="uni046F" unicode="&#x46f;" horiz-adv-x="926" 
d="M449 1149q160 199 264 199q47 0 88 -13v-84q-29 11 -68 11q-90 0 -207 -160q260 -44 260 -273q0 -189 -194 -241v-6q123 -28 177 -91t54 -167q-1 -277 -381 -317q-182 -19 -242.5 -49t-60.5 -88t43.5 -82t123.5 -24t290 13l84 2q70 0 145 -31v-102q-67 39 -166 39l-81 -2
q-215 -13 -265 -13q-278 0 -278 195q0 107 88 160t274 73t254 73t68 159t-79 154t-237 48h-151v86h135q295 0 295 203q0 97 -68 148t-198 51t-293 -72l-37 82q145 65 272 76q-50 58 -221 229v17h76q115 -84 236 -203z" />
    <glyph glyph-name="uni0470" unicode="&#x470;" horiz-adv-x="1565" 
d="M1421 979q0 -526 -571 -526h-27v-453h-102v453h-27q-571 0 -571 526v483h102v-479q0 -226 117 -333t356 -107h23v919h102v-919h23q239 0 356 107t117 333v479h102v-483z" />
    <glyph glyph-name="uni0471" unicode="&#x471;" horiz-adv-x="1477" 
d="M1243 593q0 241 -59 494h96q63 -225 63 -497q-1 -272 -143 -432t-412 -176v-474h-98v474q-256 12 -390 156t-134 411v538h98v-540q0 -221 110 -341t316 -132v1480h98v-1480q224 18 340 148t115 371z" />
    <glyph glyph-name="uni0472" unicode="&#x472;" horiz-adv-x="1565" 
d="M782 1386q-248 0 -387 -153.5t-153 -439.5h1081q-13 288 -153 440.5t-388 152.5zM782 76q256 0 395.5 160t147.5 462h-1085q8 -299 147 -460.5t395 -161.5zM1436 734q0 -348 -174 -551t-480 -203t-479.5 202t-173.5 552t175.5 550.5t480.5 200.5t478 -201.5t173 -549.5z
" />
    <glyph glyph-name="uni0473" unicode="&#x473;" horiz-adv-x="1200" 
d="M598 1018q-164 0 -261.5 -107.5t-111.5 -300.5h750q-16 196 -114.5 302t-262.5 106zM600 70q174 0 272.5 118.5t104.5 333.5h-754q4 -211 103.5 -331.5t273.5 -120.5zM1081 543q0 -264 -129 -413.5t-356 -149.5q-143 0 -252 69t-167 198t-58 298q0 266 129.5 414.5
t353.5 148.5t351.5 -150.5t127.5 -414.5z" />
    <glyph glyph-name="uni0474" unicode="&#x474;" horiz-adv-x="1210" 
d="M1206 1384q-44 0 -75.5 -26t-61 -87.5t-80.5 -209.5l-354 -1061h-94l-541 1462h109l358 -968q85 -234 121 -355q44 164 125 402l176 532q64 192 104 265t87.5 105t108.5 32t103 -15v-90q-42 14 -86 14z" />
    <glyph glyph-name="uni0475" unicode="&#x475;" horiz-adv-x="973" 
d="M948 1108q44 0 74 -8v-88q-30 8 -66 8q-72 0 -143 -215l-272 -805h-121l-420 1087h102l279 -733q73 -187 96 -270h6q37 130 115 365l125 372q68 207 124.5 247t100.5 40z" />
    <glyph glyph-name="uni0476" unicode="&#x476;" horiz-adv-x="1210" 
d="M1206 1384q-44 0 -76 -26q-30 -26 -60 -88t-81 -209l-354 -1061h-94l-541 1462h109l358 -968q85 -234 121 -355q44 164 125 402l176 532q64 192 104 265q39 73 87 105t109 32t103 -15v-90q-42 14 -86 14zM504 1579h-70q-58 51 -132 143t-122 168v17h135
q126 -245 189 -312v-16zM842 1579h-70q-58 51 -132 143t-122 168v17h135q125 -244 189 -312v-16z" />
    <glyph glyph-name="uni0477" unicode="&#x477;" horiz-adv-x="973" 
d="M948 1108q44 0 74 -8v-88q-30 8 -66 8q-72 0 -143 -215l-272 -805h-121l-420 1087h102l279 -733q73 -187 96 -270h6q37 130 115 365l125 372q68 207 143 260q38 27 82 27zM389 1241h-70q-57 51 -131 143t-123 168v17h135q126 -245 189 -312v-16zM727 1241h-70
q-57 51 -131 143t-123 168v17h135q125 -244 189 -312v-16z" />
    <glyph glyph-name="uni0478" unicode="&#x478;" horiz-adv-x="2335" 
d="M1516 -401q59 0 97.5 23.5t69.5 72t72 155.5l55 150l-415 1087h102q169 -450 256 -679.5t107 -309.5h6q25 88 366 989h103l-488 -1263q-53 -142 -113.5 -229t-207.5 -87q-57 0 -127 21v86q58 -16 117 -16zM240 734q0 -318 119.5 -488t350.5 -170t351.5 167.5t120.5 488.5
t-120 487.5t-350 166.5t-351 -167t-121 -485zM1292 734q0 -351 -156 -552.5t-430 -201.5t-425.5 198t-151.5 552t156.5 554.5t430.5 200.5t425 -200t151 -551z" />
    <glyph glyph-name="uni0479" unicode="&#x479;" horiz-adv-x="2093" 
d="M223 546q1 -224 99 -350t278 -126t278 126t99 350t-99 348t-280 124t-278 -124t-97 -348zM1081 543q0 -263 -129 -413t-356 -150q-143 0 -252 69t-167 198t-58 298q0 267 129 415q130 148 354 148t352 -150t127 -415zM1294 -492q-66 0 -137 21v86q58 -16 117 -16
q106 1 168 99q40 63 127 302l-416 1087h102l230 -610q105 -281 133 -379h6q42 129 137 385l230 604h102l-487 -1263q-59 -154 -99 -208q-39 -54 -93 -81t-120 -27z" />
    <glyph glyph-name="uni047A" unicode="&#x47a;" horiz-adv-x="1626" 
d="M240 734q0 -286 123 -455.5t354 -198.5q17 80 96 80t96 -78q234 29 355.5 196.5t121.5 453.5t-122 452.5t-353 195.5q-17 -80 -97 -80t-97 80q-228 -29 -352.5 -194.5t-124.5 -451.5zM1497 734q0 -320 -155 -519t-433 -229q-21 -74 -95 -74t-95 74q-280 29 -435 228.5
t-155 519.5t156.5 518t433.5 227q21 69 95 69t95 -69q278 -30 433 -227.5t155 -517.5z" />
    <glyph glyph-name="uni047B" unicode="&#x47b;" horiz-adv-x="1241" 
d="M223 545q0 -196 80 -317t225 -150q20 72 92 72t91 -72q148 30 227.5 152t79.5 315t-80 314t-229 151q-21 -66 -89 -66t-90 66q-149 -28 -228 -148.5t-79 -316.5zM1122 543q0 -236 -108.5 -381t-302.5 -174q-19 -72 -90 -72t-91 70q-190 29 -300.5 176.5t-110.5 383.5
t108 381.5t301 174.5q14 76 90 76t95 -76q195 -29 302 -176t107 -383z" />
    <glyph glyph-name="uni047C" unicode="&#x47c;" horiz-adv-x="1987" 
d="M1401 1886h-12q-112 0 -239 49l-67 25q-84 32 -117.5 39.5t-79.5 7.5t-78 -29t-32 -104v-8h-90v8q0 104 52.5 161.5t154.5 57.5q50 0 97.5 -12.5t171.5 -62.5t239 -50v-82zM1116 1748q0 -144 -205 -202v56q127 38 127 106q0 24 -14.5 35t-32.5 20t-32.5 21t-14.5 40
t20 46t59 18t66 -35t27 -105zM594 1386q-164 0 -258 -166t-94 -477t113.5 -489t318.5 -178q172 0 319 121q161 -121 349 -121q187 0 295 179t108 488t-91 476t-247 167q-94 0 -205 -59l-43 94q121 64 254 64q212 0 328.5 -190.5t116.5 -546.5t-135 -562t-382 -206
q-111 0 -189.5 21.5t-156.5 74.5h-4q-76 -53 -153.5 -74.5t-188.5 -21.5q-250 0 -385 206t-135 560t124 546.5t341 192.5q135 0 254 -64l-43 -94q-118 59 -211 59z" />
    <glyph glyph-name="uni047D" unicode="&#x47d;" horiz-adv-x="1569" 
d="M1180 1577h-13q-113 0 -251 53t-172 60.5t-80 7.5t-77.5 -29t-31.5 -104v-9h-90v9q0 104 52.5 161.5t154.5 57.5q50 0 98 -13t172 -63t238 -49v-82zM817 1399q0 24 -14.5 35t-32.5 19.5t-32.5 20.5t-14.5 40t20 46.5t59 18.5t66 -35.5t27 -105.5q0 -143 -205 -201v55
q127 38 127 107zM561 -20q-214 0 -328 142.5t-114 414.5q0 365 126.5 468t242.5 103t198 -45l-33 -86q-82 43 -157 43q-133 0 -203 -123.5t-70 -358.5t90 -351.5t256 -116.5q109 0 215 67q110 -67 220 -67q166 0 254 117t88 351t-65 358t-187 124q-78 0 -160 -43l-31 86
q81 45 195 45t233 -103t119 -468q0 -268 -115 -412.5t-327 -144.5q-128 0 -228 57q-98 -57 -219 -57z" />
    <glyph glyph-name="uni047E" unicode="&#x47e;" horiz-adv-x="1987" 
d="M587 1386q-100 0 -223.5 -113.5t-123.5 -514.5q0 -324 114.5 -503t319.5 -179q165 0 268 80v506h102v-504q110 -82 298 -82t296.5 180.5t108.5 501.5q0 397 -118.5 512.5t-217.5 115.5t-209 -59l-43 94q121 64 254 64q212 0 328.5 -190.5t116.5 -546.5t-135 -562
t-382 -206q-111 0 -189.5 21.5t-156.5 74.5h-4q-76 -53 -153.5 -74.5t-188.5 -21.5q-250 0 -385 206t-135 560t124 546.5t341 192.5q135 0 254 -64l-43 -94q-118 59 -218 59zM1403 1796v-27l-80 -172h-12l-54 117h-202l-56 -117h-12l-55 117h-203l-53 -117h-12l-80 172v27
h819z" />
    <glyph glyph-name="uni047F" unicode="&#x47f;" horiz-adv-x="1548" 
d="M1370 1087h94q0 -367 -99 -618.5t-314 -468.5h-101l-196 526l-30 -65q-37 -82 -46 -101t-184 -360h-103l-391 1087h104l209 -577q39 -106 136 -408h6q61 137 262 525l-166 460h102l209 -577l148 -422h6q354 354 354 999zM1180 1444v-27l-80 -172h-13l-53 117h-203
l-55 -117h-12l-55 117h-203l-53 -117h-13l-80 172v27h820z" />
    <glyph glyph-name="uni0480" unicode="&#x480;" horiz-adv-x="1272" 
d="M831 1391q-275 0 -433 -176t-158 -487t157 -481.5t441 -170.5q69 0 127 10v-578h-103v472h-33q-338 0 -519 195t-181 560q0 223 84.5 393t243 262.5t370.5 92.5t381 -80l-41 -92q-160 80 -336 80z" />
    <glyph glyph-name="uni0481" unicode="&#x481;" horiz-adv-x="973" 
d="M635 72q76 0 147 20v-584h-100v469h-43q-249 0 -384.5 143.5t-135.5 415.5t137 422t375 150q141 0 270 -49l-27 -88q-141 47 -245 47q-200 0 -303 -123t-103 -351t106.5 -350t305.5 -122z" />
    <glyph glyph-name="uni0482" unicode="&#x482;" horiz-adv-x="1239" 
d="M500 348l-197 -342l-82 45l197 342l-303 178l41 74l303 -180l237 407l-307 181l43 73l305 -180l195 334l80 -45l-197 -336l309 -178l-45 -74l-305 180l-233 -407l305 -180l-39 -74z" />
    <glyph glyph-name="uni0483" unicode="&#x483;" horiz-adv-x="1141" 
d="M219 1264q0 50 24.5 67t73.5 17h441q6 51 24 71.5t58 20.5t60 -18t20 -66t-22 -66t-77 -18h-440q-6 -51 -25 -72.5t-58 -21.5t-59 18t-20 68z" />
    <glyph glyph-name="uni0484" unicode="&#x484;" horiz-adv-x="1182" 
d="M260 1356q118 0 235 47t168 62.5t105 15.5q100 0 153.5 -56.5t53.5 -162.5v-9h-90v9q0 75 -31.5 104t-78.5 29t-83.5 -8.5t-171.5 -60.5t-248 -52h-12v82z" />
    <glyph glyph-name="uni0485" unicode="&#x485;" horiz-adv-x="1182" 
d="M485 1449q0 70 26.5 105t66.5 35q78 0 79 -67q0 -26 -14.5 -37.5t-32.5 -20.5t-32.5 -20t-14.5 -35q0 -68 127 -106v-56q-205 58 -205 202z" />
    <glyph glyph-name="uni0486" unicode="&#x486;" horiz-adv-x="1182" 
d="M696 1449q0 -144 -204 -202v56q126 38 126 106q0 24 -14.5 35t-32.5 20t-32.5 20.5t-14.5 39.5t20 46.5t59 18.5t66 -35t27 -105z" />
    <glyph glyph-name="uni0488" unicode="&#x488;" horiz-adv-x="2025" 
d="M248 567q-60 0 -92.5 -24t-38.5 -84h-76q5 90 55 142t148 52t155.5 -51t63.5 -143h-80q-5 51 -40 79.5t-95 28.5zM1772 653q92 0 149.5 -52t63.5 -142h-80q-13 108 -139 108q-56 0 -88.5 -24t-39.5 -84h-75q11 194 209 194zM422 1141q98 0 155.5 -51t63.5 -144h-80
q-11 109 -139 109q-56 0 -88.5 -24.5t-38.5 -84.5h-76q5 90 55 142.5t148 52.5zM1576 1141q98 0 155 -51t63 -144h-80q-10 109 -138 109q-56 0 -89 -24.5t-39 -84.5h-76q5 90 55.5 142.5t148.5 52.5zM422 154q98 0 155.5 -51t63.5 -144h-80q-11 109 -139 109
q-56 0 -88.5 -24.5t-38.5 -84.5h-76q5 90 55 142.5t148 52.5zM1576 154q98 0 155 -51t63 -144h-80q-10 109 -138 109q-56 0 -89 -24.5t-39 -84.5h-76q5 90 55.5 142.5t148.5 52.5zM996 -125q98 0 155 -51t63 -143h-79q-13 108 -139 108q-56 0 -88.5 -24t-39.5 -84h-75
q5 89 55 141.5t148 52.5zM1001 1425q93 0 149.5 -50.5t63.5 -143.5h-79q-13 108 -139 108q-56 0 -88.5 -24t-39.5 -84h-75q11 194 208 194z" />
    <glyph glyph-name="uni0489" unicode="&#x489;" horiz-adv-x="1958" 
d="M627 53l-4 -16q-143 -82 -324 -152l-53 54q208 129 299 196zM1331 1010l4 18q134 79 324 150l53 -54q-208 -129 -299 -196zM502 885l-19 4q-77 131 -149 323l53 54q138 -222 197 -299zM1458 180l19 -4q77 -131 149 -323l-53 -54q-124 199 -197 299zM391 463l-14 -8
q-171 44 -336 120v76q230 -55 350 -71v-117zM1581 651q163 -44 336 -123v-75q-230 55 -350 71v117zM891 1141l-10 14q43 162 123 336h75q-55 -230 -71 -350h-117zM1069 -35l10 -14q-40 -156 -123 -336h-75q55 230 71 350h117z" />
    <glyph glyph-name="uni048A" unicode="&#x48a;" horiz-adv-x="1477" 
d="M737 1579q-149 0 -227 66.5t-90 214.5h88q14 -109 66.5 -155t164.5 -46t165 48t65 153h88q-23 -281 -320 -281zM305 1462v-956q0 -102 -8 -342h6l864 1298h103v-1368h127l-142 -463h-116l131 369h-99v950q0 162 13 350h-8l-867 -1300h-102v1462h98z" />
    <glyph glyph-name="uni048B" unicode="&#x48b;" horiz-adv-x="1229" 
d="M614 1241q-149 0 -227 66.5t-90 214.5h88q14 -109 66.5 -155t164.5 -46t165 48t65 153h88q-21 -281 -320 -281zM276 1087v-786l-6 -205l645 991h132v-993h127l-142 -463h-117l132 369h-95v781l4 210l-645 -991h-129v1087h94z" />
    <glyph glyph-name="uni048C" unicode="&#x48c;" horiz-adv-x="1219" 
d="M309 90h301q198 0 292.5 79t94.5 247t-96.5 239.5t-310.5 71.5h-281v-637zM207 1155h-160v84h160v223h102v-223h424v-84h-424v-338h299q250 0 375 -95.5t125 -299.5t-124 -313t-357 -109h-420v1155z" />
    <glyph glyph-name="uni048D" unicode="&#x48d;" horiz-adv-x="1165" 
d="M281 535v-441h368q142 0 217.5 60t75.5 172t-69 160.5t-236 48.5h-356zM281 1292h352v-82h-352v-581h383q383 0 383 -301q0 -155 -107 -241.5t-307 -86.5h-451v1210h-155v82h155v264h99v-264z" />
    <glyph glyph-name="uni048E" unicode="&#x48e;" horiz-adv-x="1198" 
d="M977 1038q0 169 -104 250.5t-322 81.5h-242v-678h205q129 0 217 21l-117 164l70 51l131 -185q162 77 162 295zM1087 1042q0 -259 -219 -372l121 -168l-69 -53l-136 188q-101 -33 -249 -33h-226v-604h-102v1462h358q522 0 522 -420z" />
    <glyph glyph-name="uni048F" unicode="&#x48f;" horiz-adv-x="1219" 
d="M645 68q88 0 158 34l-129 183l69 51l129 -182q123 123 123 385q0 479 -346 479q-190 0 -279 -104.5t-89 -340.5v-32q0 -255 85.5 -364t278.5 -109zM647 -20q-251 0 -366 188h-7l3 -84q4 -74 4 -162v-414h-99v1579h84l19 -155h6q112 176 345 176t348.5 -144.5
t115.5 -420.5q0 -319 -172 -465l121 -168l-70 -53l-123 172q-90 -49 -209 -49z" />
    <glyph glyph-name="afii10050" unicode="&#x490;" horiz-adv-x="1028" 
d="M909 1462v301h99v-395h-699v-1368h-102v1462h702z" />
    <glyph glyph-name="afii10098" unicode="&#x491;" horiz-adv-x="862" 
d="M821 1001h-540v-1001h-99v1087h543v330h96v-416z" />
    <glyph glyph-name="uni0492" unicode="&#x492;" horiz-adv-x="1028" 
d="M309 772h439v-94h-439v-678h-102v678h-160v94h160v690h801v-94h-699v-596z" />
    <glyph glyph-name="uni0493" unicode="&#x493;" horiz-adv-x="862" 
d="M821 1001h-540v-409h366v-86h-366v-506h-99v506h-164v86h164v495h639v-86z" />
    <glyph glyph-name="uni0494" unicode="&#x494;" horiz-adv-x="1292" 
d="M1028 1462v-94h-719v-588q115 23 223 23q203 0 349.5 -79t222.5 -226t76 -344q0 -320 -133.5 -493t-380.5 -173q-144 0 -258 49v101q131 -56 258 -56q193 0 298 151t105 419t-146.5 413.5t-410.5 145.5q-108 0 -203 -23v-688h-102v1462h821z" />
    <glyph glyph-name="uni0495" unicode="&#x495;" horiz-adv-x="1049" 
d="M838 1001h-557v-391q93 27 194 27q248 0 377 -148.5t129 -422.5t-103 -421t-286 -147q-138 0 -225 58v100q111 -68 237 -68t199.5 124t73.5 356t-104 355.5t-308 123.5q-98 0 -184 -35v-512h-99v1087h656v-86z" />
    <glyph glyph-name="uni0496" unicode="&#x496;" horiz-adv-x="1642" 
d="M748 1462h102v-708l588 708h127l-594 -710l547 -658h94v-463h-99v369h-51l-612 741v-741h-102v741l-613 -741h-135l625 745l-592 717h127l588 -708v708z" />
    <glyph glyph-name="uni0497" unicode="&#x497;" horiz-adv-x="1411" 
d="M631 1087h100v-528l467 528h121l-471 -528l422 -465h110v-463h-98v369h-53l-498 551v-551h-100v551l-498 -551h-127l506 555l-469 532h121l467 -528v528z" />
    <glyph glyph-name="uni0498" unicode="&#x498;" horiz-adv-x="1145" 
d="M920 403q0 308 -449 308h-217v96h225q212 0 313 80t101 216q-1 136 -93 211t-222 75q-130 1 -223 -31t-201 -109l-58 80q202 154 463 154q205 0 323 -98t119 -265q0 -286 -303 -352v-6q332 -71 332 -356q0 -202 -142 -314q-122 -97 -331 -110q129 -111 129 -242
q0 -86 -51 -136t-122 -50t-114 16v84q34 -12 82 -12q107 0 107 110q0 72 -33 124t-89 104q-227 4 -384 86v104q198 -96 403 -96q203 0 319 86t116 243z" />
    <glyph glyph-name="uni0499" unicode="&#x499;" horiz-adv-x="926" 
d="M719 311q0 221 -316 221h-151v86h135q295 0 295 203q0 97 -68 148t-198 51t-293 -72l-37 82q174 78 345 78t263 -74t92 -205q0 -189 -194 -241v-6q231 -57 231 -277q0 -151 -103 -232t-263 -91q129 -111 129 -242q0 -86 -51 -136t-122 -50t-114 16v84q34 -12 82 -12
q107 0 107 110q0 72 -33 124t-89 105q-185 7 -298 74v99q103 -48 178 -66t160 -18q148 0 230 62t83 179z" />
    <glyph glyph-name="uni049A" unicode="&#x49a;" horiz-adv-x="1278" 
d="M1247 94v-463h-98v369h-84l-561 772l-195 -172v-600h-102v1462h102v-760l162 162l573 598h130l-599 -618l545 -750h127z" />
    <glyph glyph-name="uni049B" unicode="&#x49b;" horiz-adv-x="989" 
d="M958 94v-463h-98v369h-63l-514 551v-551h-101v1087h101v-528l489 528h123l-487 -526l434 -467h116z" />
    <glyph glyph-name="uni049C" unicode="&#x49c;" horiz-adv-x="1190" 
d="M557 311h-86v432l-162 -143v-600h-102v1462h102v-760l162 162v355h86v-267l487 510h130l-599 -618l615 -844h-125l-508 700v-389z" />
    <glyph glyph-name="uni049D" unicode="&#x49d;" horiz-adv-x="940" 
d="M412 1014h86v-223l274 296h123l-397 -428v-194l432 -465h-133l-299 322v-216h-86v308l-129 137v-551h-101v1087h101v-528l129 139v316z" />
    <glyph glyph-name="uni049E" unicode="&#x49e;" horiz-adv-x="1190" 
d="M49 1274h158v188h102v-188h250v-94h-250v-478l162 162l573 598h130l-599 -618l615 -844h-125l-561 772l-195 -172v-600h-102v1180h-158v94z" />
    <glyph glyph-name="uni049F" unicode="&#x49f;" horiz-adv-x="991" 
d="M27 1356h155v200h99v-200h385v-86h-385v-494l-7 -299h5l555 610h120l-428 -464l465 -623h-119l-413 549l-178 -162v-387h-99v1270h-155v86z" />
    <glyph glyph-name="uni04A0" unicode="&#x4a0;" horiz-adv-x="1319" 
d="M438 0h-102v1366h-326v96h428v-760l162 162l574 598h129l-598 -618l614 -844h-125l-561 772l-195 -172v-600z" />
    <glyph glyph-name="uni04A1" unicode="&#x4a1;" horiz-adv-x="1118" 
d="M461 0h-101v1001h-319v86h420v-528l489 528h123l-487 -526l522 -561h-133l-514 551v-551z" />
    <glyph glyph-name="uni04A2" unicode="&#x4a2;" horiz-adv-x="1483" 
d="M1266 94h118v-463h-98v369h-123v719h-854v-719h-102v1462h102v-649h854v649h103v-1368z" />
    <glyph glyph-name="uni04A3" unicode="&#x4a3;" horiz-adv-x="1251" 
d="M281 1087v-477h690v477h98v-993h119v-463h-98v369h-119v524h-690v-524h-99v1087h99z" />
    <glyph glyph-name="uni04A4" unicode="&#x4a4;" horiz-adv-x="1602" 
d="M1591 1366h-325v-1366h-103v719h-854v-719h-102v1462h102v-649h854v649h428v-96z" />
    <glyph glyph-name="uni04A5" unicode="&#x4a5;" horiz-adv-x="1430" 
d="M281 1087v-477h690v477h418v-86h-320v-1001h-98v524h-690v-524h-99v1087h99z" />
    <glyph glyph-name="uni04A6" unicode="&#x4a6;" horiz-adv-x="2146" 
d="M1184 0h-103v1366h-772v-1366h-102v1462h977v-682q113 23 223 23q194 0 336 -79.5t216.5 -226.5t74.5 -343q0 -321 -136 -493.5t-382 -172.5q-145 0 -259 49v101q134 -56 259 -56q192 0 299.5 150.5t107.5 417.5t-139 414t-389 147q-116 0 -211 -23v-688z" />
    <glyph glyph-name="uni04A7" unicode="&#x4a7;" horiz-adv-x="1737" 
d="M1163 637q250 0 378 -145.5t128 -423.5t-96 -424t-275 -146q-138 0 -225 58v100q114 -68 221 -68q132 0 201.5 123.5t69.5 347.5q0 488 -412 488q-91 0 -164 -27v-520h-98v993h-610v-993h-99v1087h807v-477q93 27 174 27z" />
    <glyph glyph-name="uni04A8" unicode="&#x4a8;" horiz-adv-x="1565" 
d="M1329 680q0 416 -250 416q-115 0 -181.5 -109.5t-66.5 -308.5q0 -350 224 -543q132 72 203 215t71 330zM1300.5 -84q-127.5 0 -270.5 104q-100 -40 -274 -40t-322.5 92.5t-226.5 262t-78 390.5q0 361 163 560.5t460 199.5q130 0 209 -27l-27 -96q-75 24 -186 24
q-508 0 -508 -663q0 -311 143.5 -479t404.5 -168q100 0 160 20q-105 98 -163 250t-58 332q0 245 94.5 380.5t262.5 135.5t260 -132.5t92 -383.5q0 -185 -78.5 -348.5t-212.5 -251.5q89 -68 179 -68t146 21v-92q-42 -23 -169.5 -23z" />
    <glyph glyph-name="uni04A9" unicode="&#x4a9;" horiz-adv-x="1239" 
d="M915 82q63 -47 163 -47q51 0 96 14v-88q-44 -14 -107 -14q-126 0 -240 76q-86 -43 -229 -43t-252 70.5t-168 197.5t-59 287q0 266 117 419.5t329 153.5q82 0 146 -18l-21 -91q-69 19 -129 19q-162 0 -250 -124.5t-88 -358.5q0 -139 73 -302t331 -163q78 0 127 22
q-172 154 -172 406q0 178 72 277t201 99t196 -96t67 -252q0 -300 -203 -444zM686 496q0 -226 154 -359q78 51 126 145t48 226t-36.5 204t-121.5 72q-170 0 -170 -288z" />
    <glyph glyph-name="uni04AA" unicode="&#x4aa;" horiz-adv-x="1272" 
d="M831 1391q-275 0 -433 -176q-158 -175 -158 -485t149 -483t426 -173q184 0 338 47v-90q-145 -51 -362 -51h-25q127 -110 127 -240q0 -86 -51 -136t-122 -50t-114 16v84q34 -12 82 -12q107 0 107 110q0 72 -34 126t-98 111q-219 34 -357 190q-177 199 -177 556
q1 223 85 393t242 262t371 93q212 0 381 -80l-41 -92q-160 80 -336 80z" />
    <glyph glyph-name="uni04AB" unicode="&#x4ab;" horiz-adv-x="973" 
d="M621 -248q0 72 -35 127t-101 114q-141 31 -234 134q-132 147 -132 413t137 418q137 150 375 150q141 0 270 -49l-27 -88q-141 47 -245 47q-200 0 -303 -124t-103 -349q0 -227 103 -351t288 -124q148 0 275 53v-92q-104 -51 -273 -51h-24q127 -110 127 -240
q0 -86 -51 -136t-122 -50t-114 16v84q34 -12 82 -12q107 0 107 110z" />
    <glyph glyph-name="uni04AC" unicode="&#x4ac;" horiz-adv-x="1073" 
d="M588 94h119v-463h-99v369h-123v1366h-475v96h1053v-96h-475v-1272z" />
    <glyph glyph-name="uni04AD" unicode="&#x4ad;" horiz-adv-x="913" 
d="M872 1001h-362v-907h119v-463h-99v369h-118v1001h-371v86h831v-86z" />
    <glyph glyph-name="uni04AE" unicode="&#x4ae;" horiz-adv-x="1081" 
d="M594 0h-105v557l-489 905h117l426 -800l428 800h110l-487 -897v-565z" />
    <glyph glyph-name="uni04AF" unicode="&#x4af;" horiz-adv-x="940" 
d="M518 -492h-98v492l-420 1087h102l281 -739q56 -142 84 -248h6q41 136 84 250l281 737h102l-422 -1091v-488z" />
    <glyph glyph-name="uni04B0" unicode="&#x4b0;" horiz-adv-x="1081" 
d="M594 498h315v-95h-315v-403h-105v403h-317v95h317v59l-489 905h117l426 -800l428 800h110l-487 -897v-67z" />
    <glyph glyph-name="uni04B1" unicode="&#x4b1;" horiz-adv-x="940" 
d="M827 0v-86h-309v-406h-98v406h-309v86h309l-420 1087h102l281 -739q56 -142 84 -248h6q41 136 84 250l281 737h102l-420 -1087h307z" />
    <glyph glyph-name="uni04B2" unicode="&#x4b2;" horiz-adv-x="1171" 
d="M1141 94v-463h-99v369h-57l-432 682l-440 -682h-113l492 762l-447 700h115l395 -626l401 626h109l-453 -698l428 -670h101z" />
    <glyph glyph-name="uni04B3" unicode="&#x4b3;" horiz-adv-x="1036" 
d="M1006 94v-463h-99v369h-57l-342 485l-344 -485h-109l394 559l-379 528h114l324 -458l321 458h109l-373 -528l332 -465h109z" />
    <glyph glyph-name="uni04B4" unicode="&#x4b4;" horiz-adv-x="1720" 
d="M1503 96h156v-465h-98v369h-1106v1366h-445v96h1073v-96h-526v-1270h844v1366h102v-1366z" />
    <glyph glyph-name="uni04B5" unicode="&#x4b5;" horiz-adv-x="1411" 
d="M862 1001h-393v-907h649v993h99v-993h145v-463h-98v369h-893v1001h-330v86h821v-86z" />
    <glyph glyph-name="uni04B6" unicode="&#x4b6;" horiz-adv-x="1372" 
d="M602 532q-420 0 -420 367v563h103v-567q0 -266 325 -266q96 0 192 17.5t261 76.5v739h102v-1368h119v-463h-98v369h-123v635q-261 -103 -461 -103z" />
    <glyph glyph-name="uni04B7" unicode="&#x4b7;" horiz-adv-x="1188" 
d="M164 711v376h98v-364q0 -138 67 -199t206 -61q189 0 372 147v477h99v-993h118v-463h-98v369h-119v516q-186 -143 -405 -143q-167 0 -252.5 87t-85.5 251z" />
    <glyph glyph-name="uni04B8" unicode="&#x4b8;" horiz-adv-x="1372" 
d="M1063 1462h102v-1462h-102v635q-174 -72 -352 -96v-326h-86v319h-23q-420 0 -420 367v563h103v-567q0 -266 325 -266h15v370h86v-366q140 13 352 90v739z" />
    <glyph glyph-name="uni04B9" unicode="&#x4b9;" horiz-adv-x="1188" 
d="M262 1087v-364q0 -138 67 -199t206 -61h2v311h86v-305q142 25 284 141v477h99v-1087h-99v516q-144 -108 -284 -133v-252h-86v242h-35q-167 0 -252.5 87t-85.5 251v376h98z" />
    <glyph glyph-name="uni04BA" unicode="&#x4ba;" horiz-adv-x="1352" 
d="M1087 567q0 275 -325 275q-126 0 -213 -24t-138 -42.5t-102 -36.5v-739h-102v1462h102v-635q274 111 470 111t303.5 -94t107.5 -281v-563h-103v567z" />
    <glyph glyph-name="uni04BB" unicode="&#x4bb;" horiz-adv-x="1167" 
d="M686 715q167 0 252.5 -87t85.5 -251v-377h-98v365q0 138 -67 199t-206 61q-191 0 -372 -148v-477h-99v1087h99v-516q187 144 405 144z" />
    <glyph glyph-name="uni04BC" unicode="&#x4bc;" horiz-adv-x="1636" 
d="M1399 782q0 607 -451 607q-227 0 -363 -157t-153 -450h967zM1030 76q177 0 383 67v-96q-179 -67 -403 -67q-326 0 -498.5 179t-187.5 529q-129 2 -196 58.5t-67 162.5q0 66 21 111h100q-18 -50 -18 -112q0 -124 160 -124q9 209 90.5 368.5t224.5 246t324 86.5
q268 0 407 -185t139 -546v-66h-1077q19 -315 168.5 -463.5t429.5 -148.5z" />
    <glyph glyph-name="uni04BD" unicode="&#x4bd;" horiz-adv-x="1303" 
d="M762 1020q-152 0 -246 -106.5t-108 -295.5h671q0 189 -82.5 295.5t-234.5 106.5zM53 734q0 81 21 126h100q-18 -50 -18 -106q0 -127 145 -133q22 225 147.5 356t319.5 131t305 -134t111 -364v-80h-783q2 -224 104.5 -342t293.5 -118q93 0 163.5 13t178.5 56v-90
q-159 -69 -342 -69q-235 0 -367.5 144t-134.5 404q-126 7 -185 66t-59 140z" />
    <glyph glyph-name="uni04BE" unicode="&#x4be;" horiz-adv-x="1636" 
d="M1399 782q0 607 -451 607q-227 0 -363 -157t-153 -450h967zM1030 76q177 0 383 67v-96q-179 -67 -403 -67v-349h-99v353q-559 52 -587 704q-129 2 -196 58.5t-67 162.5q0 66 21 111h100q-18 -50 -18 -112q0 -124 160 -124q9 209 90.5 368.5t224.5 246t324 86.5
q268 0 407 -185t139 -546v-66h-1077q19 -315 168.5 -463.5t429.5 -148.5z" />
    <glyph glyph-name="uni04BF" unicode="&#x4bf;" horiz-adv-x="1303" 
d="M762 1020q-152 0 -246 -106.5t-108 -295.5h671q0 189 -82.5 295.5t-234.5 106.5zM797 -369h-99v357q-189 29 -294 168t-107 372q-126 7 -185 66t-59 140t21 126h100q-18 -50 -18 -106q0 -127 145 -133q22 225 147.5 356t319.5 131t305 -134t111 -364v-80h-783
q2 -224 104.5 -342t293.5 -118q93 0 163.5 13t178.5 56v-90q-159 -69 -344 -69v-349z" />
    <glyph glyph-name="uni04C0" unicode="&#x4c0;" horiz-adv-x="516" 
d="M207 0v1462h102v-1462h-102z" />
    <glyph glyph-name="uni04C1" unicode="&#x4c1;" horiz-adv-x="1597" 
d="M748 1462h102v-708l588 708h127l-594 -710l626 -752h-135l-612 741v-741h-102v741l-613 -741h-135l625 745l-592 717h127l588 -708v708zM799 1591q-149 1 -227 67t-91 214h88q15 -110 68 -156t163 -45q110 0 164 47t66 154h88q-21 -281 -319 -281z" />
    <glyph glyph-name="uni04C2" unicode="&#x4c2;" horiz-adv-x="1362" 
d="M631 1087h100v-528l467 528h121l-471 -528l508 -559h-127l-498 551v-551h-100v551l-498 -551h-127l506 555l-469 532h121l467 -528v528zM680 1241q-149 1 -227 67t-91 214h88q15 -110 68 -156q54 -46 164 -45q110 0 164 47t65 154h88q-21 -281 -319 -281z" />
    <glyph glyph-name="uni04C3" unicode="&#x4c3;" horiz-adv-x="1341" 
d="M309 0h-102v1462h102v-727l725 727h129l-694 -692q54 12 100 12q322 0 491 -159.5t169 -475.5t-136 -487.5t-391 -171.5q-135 0 -249 49v101q134 -56 249 -56q202 0 309 149t107 418t-146.5 403t-428.5 134q-143 0 -234 -41v-645z" />
    <glyph glyph-name="uni04C4" unicode="&#x4c4;" horiz-adv-x="1087" 
d="M621 -412q142 0 218 120t76 348t-117.5 345t-344.5 117q-92 0 -172 -26v-492h-99v1087h99v-528l520 528h123l-482 -481q288 0 433 -138.5t145 -410.5q0 -357 -140 -458t-264 -101t-215 58v100q114 -68 220 -68z" />
    <glyph glyph-name="uni04C5" unicode="&#x4c5;" horiz-adv-x="1395" 
d="M1188 94h153l-147 -463h-117l131 369h-123v1366h-530q-96 -797 -146 -1001t-101 -296t-191 -92q-67 0 -117 25v92q61 -22 113 -22q87 0 153.5 148t202.5 1242h719v-1368z" />
    <glyph glyph-name="uni04C6" unicode="&#x4c6;" horiz-adv-x="1116" 
d="M934 94h153l-147 -463h-117l131 369h-118v995h-385q-30 -395 -73.5 -602.5t-112 -305t-177.5 -97.5q-39 0 -68 8v90q19 -6 54 -6q113 0 182.5 238.5t105.5 766.5h572v-993z" />
    <glyph glyph-name="uni04C7" unicode="&#x4c7;" horiz-adv-x="1473" 
d="M760 -512q-144 0 -266 51v94q134 -51 256 -51q208 0 310.5 137.5t102.5 427.5v574h-854v-721h-102v1462h102v-647h854v647h103v-1315q0 -331 -123 -495t-383 -164z" />
    <glyph glyph-name="uni04C8" unicode="&#x4c8;" horiz-adv-x="1251" 
d="M281 1087v-475h690v475h98v-1052q0 -270 -81 -398.5t-261 -128.5q-126 0 -213 54v98q97 -61 217 -61q240 0 240 436v491h-690v-526h-99v1087h99z" />
    <glyph glyph-name="uni04C9" unicode="&#x4c9;" horiz-adv-x="1473" 
d="M1266 94h153l-147 -463h-117l131 369h-123v719h-854v-719h-102v1462h102v-649h854v649h103v-1368z" />
    <glyph glyph-name="uni04CA" unicode="&#x4ca;" horiz-adv-x="1251" 
d="M281 1087v-479h690v479h98v-993h154l-148 -463h-117l132 369h-119v522h-690v-522h-99v1087h99z" />
    <glyph glyph-name="uni04CB" unicode="&#x4cb;" horiz-adv-x="1372" 
d="M602 532q-420 0 -420 367v563h103v-567q0 -266 325 -266q96 0 192 17.5t261 76.5v739h102v-1462h-123v-369h-98v463h119v541q-261 -103 -461 -103z" />
    <glyph glyph-name="uni04CC" unicode="&#x4cc;" horiz-adv-x="1188" 
d="M164 711v376h98v-364q0 -138 67 -199t206 -61q189 0 372 147v477h99v-1087h-119v-369h-99v463h119v422q-186 -143 -405 -143q-167 0 -252.5 87t-85.5 251z" />
    <glyph glyph-name="uni04CD" unicode="&#x4cd;" horiz-adv-x="1767" 
d="M305 1096v-1096h-98v1462h158l518 -1286h6l518 1286h154v-1368h153l-147 -463h-117l131 369h-123v1108q0 116 12 240h-8l-547 -1348h-65l-545 1350h-8q8 -124 8 -254z" />
    <glyph glyph-name="uni04CE" unicode="&#x4ce;" horiz-adv-x="1382" 
d="M272 0h-90v1087h131l314 -800q37 -97 61 -181l62 175l313 806h137v-993h154l-148 -463h-116l131 369h-115v967q-44 -126 -373 -967h-88l-301 764q-19 46 -35.5 97t-36.5 110v-971z" />
    <glyph glyph-name="uni04CF" unicode="&#x4cf;" horiz-adv-x="516" 
d="M207 0v1462h102v-1462h-102z" />
    <glyph glyph-name="uni04D0" unicode="&#x4d0;" horiz-adv-x="1229" 
d="M354 608h523l-199 527q-25 62 -60 172q-27 -96 -59 -174zM911 516h-594l-204 -516h-113l588 1468h65l576 -1468h-115zM619 1579q-149 1 -227 67t-91 214h88q15 -110 68 -156t163 -45q110 0 164 47t66 154h88q-21 -281 -319 -281z" />
    <glyph glyph-name="uni04D1" unicode="&#x4d1;" horiz-adv-x="1085" 
d="M442 70q174 0 274 100t101 276v107l-190 -8q-229 -11 -327 -71t-97 -176t63 -172t176 -56zM415 -20q-139 0 -228 82t-89 234t132 240t384 93l207 6v72q0 155 -63 234q-62 79 -208 79t-308 -84l-37 86q179 84 356 84t265 -93t89 -290v-723h-73l-25 172h-8
q-83 -104 -169 -148t-225 -44zM546 1241q-149 1 -227 67t-91 214h88q15 -110 68 -156q54 -46 164 -45q110 0 164 47t65 154h88q-21 -281 -319 -281z" />
    <glyph glyph-name="uni04D2" unicode="&#x4d2;" horiz-adv-x="1229" 
d="M354 608h523l-199 527q-25 62 -60 172q-27 -96 -59 -174zM911 516h-594l-204 -516h-113l588 1468h65l576 -1468h-115zM748 1727q0 86 64 86t63 -86q1 -86 -63 -86t-64 86zM367 1727q-1 86 63 86t64 -86t-64 -86t-63 86z" />
    <glyph glyph-name="uni04D3" unicode="&#x4d3;" horiz-adv-x="1085" 
d="M442 70q174 0 274 100t101 276v107l-190 -8q-229 -11 -327 -71t-97 -176t63 -172t176 -56zM415 -20q-139 0 -228 82t-89 234t132 240t384 93l207 6v72q0 155 -63 234q-62 79 -208 79t-308 -84l-37 86q179 84 356 84t265 -93t89 -290v-723h-73l-25 172h-8
q-83 -104 -169 -148t-225 -44zM663 1389q-1 86 63 86t64 -86t-64 -86t-63 86zM282 1389q0 86 64 86t63 -86q1 -86 -63 -86t-64 86z" />
    <glyph glyph-name="uni04D4" unicode="&#x4d4;" horiz-adv-x="1653" 
d="M811 608v760h-100l-334 -760h434zM1528 0h-717v516h-475l-227 -516h-111l653 1462h877v-94h-615v-553h576v-94h-576v-627h615v-94z" />
    <glyph glyph-name="uni04D5" unicode="&#x4d5;" horiz-adv-x="1731" 
d="M1217 1020q-284 0 -314 -402h604q1 188 -77 295t-213 107zM434 70q169 0 266 100t97 276v107l-187 -8q-219 -11 -313 -71t-94 -176t61 -172t170 -56zM1243 -20q-295 0 -397 256q-68 -132 -168 -194t-254 -62t-240 82t-86 232q0 149 125 238t377 97l201 6v72
q1 155 -61 234t-204 79t-300 -84l-37 86q173 84 346 84q261 0 325 -211q111 213 347 213q183 0 289 -134t106 -364v-80h-715q0 -460 348 -460q85 0 150 12t174 57v-90q-92 -41 -165 -55t-161 -14z" />
    <glyph glyph-name="uni04D6" unicode="&#x4d6;" horiz-adv-x="1130" 
d="M1006 0h-799v1462h799v-94h-697v-553h658v-94h-658v-627h697v-94zM592 1579q-149 1 -227 67t-91 214h88q15 -110 68 -156q54 -46 164 -45q110 0 164 47t65 154h88q-21 -281 -319 -281z" />
    <glyph glyph-name="uni04D7" unicode="&#x4d7;" horiz-adv-x="1124" 
d="M586 1020q-151 0 -246 -104t-111 -298h672q0 190 -82 296t-233 106zM119 534q0 262 128 418q129 156 333 156t315 -134t111 -364v-80h-783q3 -224 105 -342t293 -118q93 0 163 13t179 56v-90q-159 -69 -342 -69q-237 0 -369 146t-133 408zM579 1241q-149 1 -227 67
t-91 214h88q15 -110 68 -156t163 -45q110 0 164 47t66 154h88q-21 -281 -319 -281z" />
    <glyph glyph-name="uni04D8" unicode="&#x4d8;" horiz-adv-x="1442" 
d="M693 76q224 0 360.5 160.5t150.5 445.5h-966q0 -295 115.5 -450.5t339.5 -155.5zM639 1485q329 0 501.5 -195.5t172.5 -560.5q0 -224 -75 -394t-217 -262.5t-335 -92.5q-275 0 -417 185.5t-142 549.5v61h1077q-34 610 -565 610q-189 0 -416 -73v100q214 72 416 72z" />
    <glyph glyph-name="uni04D9" unicode="&#x4d9;" horiz-adv-x="1124" 
d="M538 68q152 0 246.5 104t110.5 297h-672q0 -186 81.5 -293.5t233.5 -107.5zM504 1108q237 0 369.5 -146t132.5 -409q0 -172 -59 -303.5t-167 -200.5t-248 -69q-191 0 -302 133.5t-111 363.5v80h782q-2 223 -103.5 342t-293.5 119q-89 0 -162.5 -14t-179.5 -56v90
q90 39 165.5 54.5t176.5 15.5z" />
    <glyph glyph-name="uni04DA" unicode="&#x4da;" horiz-adv-x="1442" 
d="M693 76q225 0 361 160t150 446h-966q0 -294 116 -450t339 -156zM639 1485q329 1 501 -195t173 -561q0 -224 -75 -394q-75 -171 -217 -263t-335 -92q-275 0 -417 186t-142 549v61h1077q-34 610 -565 610q-189 0 -416 -73v100q214 72 416 72zM869 1727q-1 86 63 86t64 -86
t-64 -86t-63 86zM488 1727q0 86 64 86t63 -86q1 -86 -63 -86t-64 86z" />
    <glyph glyph-name="uni04DB" unicode="&#x4db;" horiz-adv-x="1124" 
d="M538 68q152 0 246 104q95 104 111 297h-672q-1 -185 81 -293t234 -108zM504 1108q238 0 370 -146t132 -409q0 -171 -59 -303t-167 -201t-248 -69q-191 0 -302 134t-111 363v80h782q-1 223 -103 342t-294 119q-88 0 -162 -14t-180 -56v90q90 38 166 54t176 16zM691 1389
q-1 86 63 86t64 -86t-64 -86t-63 86zM310 1389q0 86 64 86t63 -86q1 -86 -63 -86t-64 86z" />
    <glyph glyph-name="uni04DC" unicode="&#x4dc;" horiz-adv-x="1597" 
d="M748 1462h102v-708l588 708h127l-594 -710l626 -752h-135l-612 741v-741h-102v741l-613 -741h-135l625 745l-592 717h127l588 -708v708zM926 1727q0 86 64 86t63 -86q1 -86 -63 -86t-64 86zM545 1727q-1 86 63 86t64 -86t-64 -86t-63 86z" />
    <glyph glyph-name="uni04DD" unicode="&#x4dd;" horiz-adv-x="1362" 
d="M631 1087h100v-528l467 528h121l-471 -528l508 -559h-127l-498 551v-551h-100v551l-498 -551h-127l506 555l-469 532h121l467 -528v528zM807 1389q-1 86 63 86t64 -86t-64 -86t-63 86zM426 1389q0 86 64 86t63 -86q1 -86 -63 -86t-64 86z" />
    <glyph glyph-name="uni04DE" unicode="&#x4de;" horiz-adv-x="1145" 
d="M920 403q0 308 -449 308h-217v96h225q212 0 313 80t101 216q-1 136 -93 211t-222 75q-130 1 -223 -31t-201 -109l-58 80q202 154 463 154q205 0 323 -98t119 -265q0 -286 -303 -352v-6q332 -71 332 -356q0 -202 -142 -314t-391 -112q-250 0 -415 86v104q198 -96 403 -96
q203 0 319 86t116 243zM691 1727q-1 86 63 86t64 -86t-64 -86t-63 86zM310 1727q0 86 64 86t63 -86q1 -86 -63 -86t-64 86z" />
    <glyph glyph-name="uni04DF" unicode="&#x4df;" horiz-adv-x="926" 
d="M719 311q0 221 -316 221h-151v86h135q295 0 295 203q0 97 -68 148t-198 51t-293 -72l-37 82q174 78 345 78t263 -74t92 -205q0 -189 -194 -241v-6q231 -57 231 -277q-1 -151 -111 -238t-314 -87t-330 75v99q103 -48 178 -66t160 -18q148 0 230 62t83 179zM575 1389
q-1 86 63 86t64 -86t-64 -86t-63 86zM194 1389q0 86 64 86t63 -86q1 -86 -63 -86t-64 86z" />
    <glyph glyph-name="uni04E0" unicode="&#x4e0;" horiz-adv-x="1153" 
d="M1038 400q0 -201 -142 -310.5t-398 -109.5t-416 83v109q198 -96 409 -96t324 85t113 238t-122 233.5t-351 80.5h-152v86l565 567h-749v96h882v-96l-559 -551q286 0 441 -107t155 -308z" />
    <glyph glyph-name="uni04E1" unicode="&#x4e1;" horiz-adv-x="942" 
d="M770 0q0 346 -453 346h-124v80l507 573h-645v88h781v-73l-517 -578q291 -3 423 -112t132 -324q0 -148 -62 -260.5t-174.5 -172t-254.5 -59.5q-209 0 -352 68v102q165 -79 347 -79t287 108t105 293z" />
    <glyph glyph-name="uni04E2" unicode="&#x4e2;" horiz-adv-x="1477" 
d="M207 1462h98v-956q0 -102 -8 -342h6l864 1298h103v-1462h-99v950q0 162 13 350h-8l-867 -1300h-102v1462zM461 1671h555v-82h-555v82z" />
    <glyph glyph-name="uni04E3" unicode="&#x4e3;" horiz-adv-x="1229" 
d="M276 1087v-786l-6 -205l645 991h132v-1087h-95v781l4 210l-645 -991h-129v1087h94zM338 1333h555v-82h-555v82z" />
    <glyph glyph-name="uni04E4" unicode="&#x4e4;" horiz-adv-x="1477" 
d="M207 1462h98v-956q0 -102 -8 -342h6l864 1298h103v-1462h-99v950q0 162 13 350h-8l-867 -1300h-102v1462zM864 1727q0 86 64 86t63 -86q1 -86 -63 -86t-64 86zM483 1727q-1 86 63 86t64 -86t-64 -86t-63 86z" />
    <glyph glyph-name="uni04E5" unicode="&#x4e5;" horiz-adv-x="1229" 
d="M276 1087v-786l-6 -205l645 991h132v-1087h-95v781l4 210l-645 -991h-129v1087h94zM742 1389q0 86 64 86t63 -86q1 -86 -63 -86t-64 86zM361 1389q-1 86 63 86t64 -86t-64 -86t-63 86z" />
    <glyph glyph-name="uni04E6" unicode="&#x4e6;" horiz-adv-x="1565" 
d="M240 732q0 -314 140 -484q140 -172 403 -172t403 170t139 486q1 316 -139 486q-140 168 -402 168t-402 -170q-142 -170 -142 -484zM1436 734q0 -348 -174 -552q-174 -202 -480 -202t-479 202q-174 202 -174 552q-1 350 175 550t481 201t478 -201t173 -550zM910 1727
q0 86 64 86t63 -86q1 -86 -63 -86t-64 86zM529 1727q-1 86 63 86t64 -86t-64 -86t-63 86z" />
    <glyph glyph-name="uni04E7" unicode="&#x4e7;" horiz-adv-x="1200" 
d="M223 546q1 -224 99 -350t278 -126t278 126t99 350t-99 348t-280 124t-278 -124t-97 -348zM1081 543q0 -263 -129 -413t-356 -150q-143 0 -252 69t-167 198t-58 298q0 267 129 415q130 148 354 148t352 -150t127 -415zM727 1389q-1 86 63 86t64 -86t-64 -86t-63 86z
M346 1389q0 86 64 86t63 -86q1 -86 -63 -86t-64 86z" />
    <glyph glyph-name="uni04E8" unicode="&#x4e8;" horiz-adv-x="1565" 
d="M782 1386q-248 0 -387 -154t-153 -439h1081q-13 289 -153 441t-388 152zM782 76q256 0 396 160t147 462h-1085q8 -298 148 -460q138 -162 394 -162zM1436 734q0 -348 -174 -552q-174 -202 -480 -202t-479 202q-174 202 -174 552q-1 350 175 550t481 201t478 -201
t173 -550z" />
    <glyph glyph-name="uni04E9" unicode="&#x4e9;" horiz-adv-x="1200" 
d="M598 1018q-164 0 -262 -108q-97 -108 -111 -300h750q-17 196 -115 302t-262 106zM600 70q174 0 272 118t105 334h-754q4 -212 103 -332q100 -120 274 -120zM1081 543q0 -263 -129 -413t-356 -150q-143 0 -252 69t-167 198t-58 298q0 267 129 415q130 148 354 148
t352 -150t127 -415z" />
    <glyph glyph-name="uni04EA" unicode="&#x4ea;" horiz-adv-x="1565" 
d="M782 1386q-248 0 -387 -154t-153 -439h1081q-13 289 -153 441t-388 152zM782 76q256 0 396 160t147 462h-1085q8 -298 148 -460q138 -162 394 -162zM1436 734q0 -348 -174 -552q-174 -202 -480 -202t-479 202q-174 202 -174 552q-1 350 175 550t481 201t478 -201
t173 -550zM910 1727q0 86 64 86t63 -86q1 -86 -63 -86t-64 86zM529 1727q-1 86 63 86t64 -86t-64 -86t-63 86z" />
    <glyph glyph-name="uni04EB" unicode="&#x4eb;" horiz-adv-x="1200" 
d="M598 1018q-164 0 -262 -108q-97 -108 -111 -300h750q-17 196 -115 302t-262 106zM600 70q174 0 272 118t105 334h-754q4 -212 103 -332q100 -120 274 -120zM1081 543q0 -263 -129 -413t-356 -150q-143 0 -252 69t-167 198t-58 298q0 267 129 415q130 148 354 148
t352 -150t127 -415zM727 1389q-1 86 63 86t64 -86t-64 -86t-63 86zM346 1389q0 86 64 86t63 -86q1 -86 -63 -86t-64 86z" />
    <glyph glyph-name="uni04EC" unicode="&#x4ec;" horiz-adv-x="1266" 
d="M434 1391q-157 0 -317 -78l-41 92q164 78 368 78q324 0 508 -192t185 -525q0 -239 -83 -417q-84 -177 -240 -273t-378 -96t-366 51v94q167 -51 364 -51q270 0 425 169t169 476h-774v94h772q-22 278 -174 428t-418 150zM710 1727q0 86 64 86t63 -86q1 -86 -63 -86t-64 86z
M329 1727q-1 86 63 86t64 -86t-64 -86t-63 86z" />
    <glyph glyph-name="uni04ED" unicode="&#x4ed;" horiz-adv-x="1006" 
d="M358 -20q-193 0 -290 51v92q127 -53 284 -53q196 0 313 124t119 336h-620v88h616q-18 196 -120 298t-281 102q-106 0 -266 -60l-29 89q56 23 140 42t153 19q244 0 377 -144t133 -410q1 -266 -141 -420t-388 -154zM595 1389q-1 86 63 86t64 -86t-64 -86t-63 86zM214 1389
q0 86 64 86t63 -86q1 -86 -63 -86t-64 86z" />
    <glyph glyph-name="uni04EE" unicode="&#x4ee;" horiz-adv-x="1204" 
d="M266 -20q-108 0 -182 30v103q86 -37 170 -37t136 24t95 80q44 54 107 182l-582 1100h121l447 -854q35 -69 63 -143h4l25 61l420 936h114l-469 -1028q-45 -98 -86 -182t-91 -144t-117 -94t-175 -34zM338 1671h555v-82h-555v82z" />
    <glyph glyph-name="uni04EF" unicode="&#x4ef;" horiz-adv-x="940" 
d="M140 -492q-66 0 -136 21v86q58 -16 117 -16q107 1 169 99q40 63 126 302l-416 1087h102l230 -610q105 -281 133 -379h6q42 129 137 385l230 604h102l-487 -1263q-59 -154 -99 -208t-94 -81t-120 -27zM194 1333h555v-82h-555v82z" />
    <glyph glyph-name="uni04F0" unicode="&#x4f0;" horiz-adv-x="1204" 
d="M266 -20q-108 0 -182 30v103q86 -37 170 -37t136 24t95 80q44 54 107 182l-582 1100h121l447 -854q35 -69 63 -143h4l25 61l420 936h114l-469 -1028q-45 -98 -86 -182t-91 -144t-117 -94t-175 -34zM746 1727q0 86 64 86t63 -86q1 -86 -63 -86t-64 86zM365 1727
q-1 86 63 86t64 -86t-64 -86t-63 86z" />
    <glyph glyph-name="uni04F1" unicode="&#x4f1;" horiz-adv-x="940" 
d="M140 -492q-66 0 -136 21v86q58 -16 117 -16q107 1 169 99q40 63 126 302l-416 1087h102l230 -610q105 -281 133 -379h6q42 129 137 385l230 604h102l-487 -1263q-59 -154 -99 -208t-94 -81t-120 -27zM595 1389q-1 86 63 86t64 -86t-64 -86t-63 86zM214 1389q0 86 64 86
t63 -86q1 -86 -63 -86t-64 86z" />
    <glyph glyph-name="uni04F2" unicode="&#x4f2;" horiz-adv-x="1204" 
d="M266 -20q-108 0 -182 30v103q86 -37 170 -37t136 24t95 80q44 54 107 182l-582 1100h121l447 -854q35 -69 63 -143h4l25 61l420 936h114l-469 -1028q-45 -98 -86 -182t-91 -144t-117 -94t-175 -34zM1029 1907v-17q-135 -202 -254 -311h-70v16q31 33 67 90t121 222h136z
M691 1907v-17q-135 -202 -254 -311h-70v16q31 33 67 90t121 222h136z" />
    <glyph glyph-name="uni04F3" unicode="&#x4f3;" horiz-adv-x="940" 
d="M140 -492q-66 0 -136 21v86q58 -16 117 -16q107 1 169 99q40 63 126 302l-416 1087h102l230 -610q105 -281 133 -379h6q42 129 137 385l230 604h102l-487 -1263q-59 -154 -99 -208t-94 -81t-120 -27zM874 1569v-17q-135 -202 -254 -311h-70v16q31 33 67 90t121 222h136z
M536 1569v-17q-135 -202 -254 -311h-70v16q31 33 67 90t121 222h136z" />
    <glyph glyph-name="uni04F4" unicode="&#x4f4;" horiz-adv-x="1372" 
d="M602 532q-420 0 -420 367v563h103v-567q0 -266 325 -266q96 -1 192 17t261 77v739h102v-1462h-102v635q-261 -103 -461 -103zM801 1727q-1 86 63 86t64 -86t-64 -86t-63 86zM420 1727q0 86 64 86t63 -86q1 -86 -63 -86t-64 86z" />
    <glyph glyph-name="uni04F5" unicode="&#x4f5;" horiz-adv-x="1188" 
d="M164 711v376h98v-364q0 -138 67 -199t206 -61q189 0 372 147v477h99v-1087h-99v516q-186 -143 -405 -143q-166 0 -252 87t-86 251zM712 1389q0 86 64 86t63 -86q1 -86 -63 -86t-64 86zM331 1389q-1 86 63 86t64 -86t-64 -86t-63 86z" />
    <glyph glyph-name="uni04F6" unicode="&#x4f6;" horiz-adv-x="1028" 
d="M207 1462h801v-94h-699v-1274h99v-463h-99v369h-102v1462z" />
    <glyph glyph-name="uni04F7" unicode="&#x4f7;" horiz-adv-x="862" 
d="M182 1087h639v-86h-540v-907h98v-463h-98v369h-99v1087z" />
    <glyph glyph-name="uni04F8" unicode="&#x4f8;" horiz-adv-x="1669" 
d="M309 90h289q204 0 296 83t91 247q0 164 -95 235q-95 72 -312 72h-269v-637zM309 817h283q252 1 378 -95t126 -300t-124 -313t-358 -109h-407v1462h102v-645zM1462 0h-102v1462h102v-1462zM957 1727q-1 86 63 86t64 -86t-64 -86t-63 86zM576 1727q0 86 64 86t63 -86
q1 -86 -63 -86t-64 86z" />
    <glyph glyph-name="uni04F9" unicode="&#x4f9;" horiz-adv-x="1481" 
d="M1298 0h-98v1087h98v-1087zM281 535v-441h331q141 0 217 59t76 172t-67 161t-232 49h-325zM281 629h346q383 0 383 -301q0 -156 -107 -242t-307 -86h-414v1087h99v-458zM867 1389q-1 86 63 86t64 -86t-64 -86t-63 86zM486 1389q0 86 64 86t63 -86q1 -86 -63 -86t-64 86z
" />
    <glyph glyph-name="uni04FA" unicode="&#x4fa;" horiz-adv-x="1028" 
d="M309 772h439v-94h-439v-584h119v-244q0 -104 -46 -161.5t-120 -57.5t-115 21v92q45 -18 84 -18q99 0 99 124v150h-123v678h-160v94h160v690h801v-94h-699v-596z" />
    <glyph glyph-name="uni04FB" unicode="&#x4fb;" horiz-adv-x="862" 
d="M821 1001h-540v-409h366v-86h-366v-412h118v-244q0 -104 -46.5 -161.5t-120.5 -57.5t-113 21v92q45 -18 84 -18q98 0 98 124v150h-119v506h-164v86h164v495h639v-86z" />
    <glyph glyph-name="uni04FC" unicode="&#x4fc;" horiz-adv-x="1192" 
d="M1161 94v-244q0 -104 -46.5 -161.5t-120.5 -57.5t-113 21v92q45 -18 84 -18q98 0 98 124v150h-78l-432 682l-440 -682h-113l492 762l-447 700h115l395 -626l401 626h109l-453 -698l430 -670h119z" />
    <glyph glyph-name="uni04FD" unicode="&#x4fd;" horiz-adv-x="1036" 
d="M1006 94v-244q0 -104 -46 -161.5t-121 -57.5t-114 21v92q45 -18 84 -18q98 0 98 124v150h-57l-342 485l-344 -485h-109l394 559l-379 528h114l324 -458l321 458h109l-373 -528l332 -465h109z" />
    <glyph glyph-name="uni04FE" unicode="&#x4fe;" horiz-adv-x="1102" 
d="M147 831h299l-401 631h115l395 -626l401 626h109l-410 -631h303v-90h-331l475 -741h-117l-432 682l-440 -682h-113l477 741h-330v90z" />
    <glyph glyph-name="uni04FF" unicode="&#x4ff;" horiz-adv-x="1020" 
d="M123 608h291l-344 479h114l324 -458l321 458h109l-338 -479h297v-82h-309l377 -526h-115l-342 485l-344 -485h-109l371 526h-303v82z" />
    <glyph glyph-name="uni0500" unicode="&#x500;" horiz-adv-x="1219" 
d="M909 727h-280q-217 0 -312.5 -71.5t-95.5 -235.5t91.5 -247t295.5 -83h301v637zM909 1462h103v-1462h-420q-233 0 -357 109t-124 313t126 299.5t377 95.5h295v645z" />
    <glyph glyph-name="uni0501" unicode="&#x501;" horiz-adv-x="1219" 
d="M586 1018q-362 0 -363 -488q0 -462 359 -462q184 0 270 107t86 353v17q0 253 -84 363t-268 110zM580 1108q118 0 204 -43t154 -147h6q-6 126 -6 247v391h98v-1556h-65l-25 166h-8q-124 -186 -352 -186t-348 140q-119 140 -119 415t118 424t343 149z" />
    <glyph glyph-name="uni0502" unicode="&#x502;" horiz-adv-x="1759" 
d="M856 725h-197q-436 0 -436 -334q0 -156 85.5 -238.5t237.5 -82.5t231 79t79 213v363zM1231 76q235 0 235 297v475h103v-481q0 -184 -89.5 -285.5t-254.5 -101.5q-236 0 -330 182q-121 -182 -338 -182t-330.5 105t-113.5 307t144.5 313.5t408.5 111.5h190v645h102v-1083
q0 -303 273 -303z" />
    <glyph glyph-name="uni0503" unicode="&#x503;" horiz-adv-x="1769" 
d="M578 1018q-176 0 -265.5 -125t-89.5 -363q0 -462 359 -462q166 0 245.5 111t79.5 349v17q0 242 -76.5 357.5t-252.5 115.5zM1006 414q0 -346 244 -346q250 0 251 305v327h98v-333q0 -189 -88 -288t-256 -99q-249 0 -315 223h-6q-109 -223 -343 -223t-353 140t-119 415
t118 424t340 149t330 -190h6q-6 126 -6 247v391h99v-1142z" />
    <glyph glyph-name="uni0504" unicode="&#x504;" horiz-adv-x="1774" 
d="M1583 367q-1 -387 -355 -387q-178 0 -266.5 97.5t-96.5 288.5t-109 268t-322 77h-194v96h194q199 0 301.5 79.5t102.5 216.5t-85 211.5t-205 74.5t-208.5 -30.5t-200.5 -109.5l-57 80q112 82 218 118t232 36q194 0 304 -98t110 -252q0 -301 -301 -365v-6
q171 -37 246 -124.5t87 -256.5t70.5 -237t192.5 -68q240 0 240 295v477h102v-481z" />
    <glyph glyph-name="uni0505" unicode="&#x505;" horiz-adv-x="1546" 
d="M413 1108q155 0 247 -74t92 -209q0 -91 -49.5 -152.5t-145.5 -84.5v-6q113 -24 166 -83t67 -165t41.5 -162t72.5 -80t138 -24q236 0 236 305v327h98v-333q0 -189 -85 -288t-249 -99q-116 0 -185.5 33t-108 103.5t-56.5 195.5t-83.5 172.5t-219.5 47.5h-143v86h112
q141 0 215 52t74 148t-64.5 149t-186.5 53t-279 -72l-37 82q178 78 333 78z" />
    <glyph glyph-name="uni0506" unicode="&#x506;" horiz-adv-x="1184" 
d="M899 403q0 308 -453 308h-206v96h225q212 0 313 80t101 216t-92.5 211t-222.5 75t-224 -32t-201 -108l-57 80q202 154 463 154q205 0 323.5 -99t118.5 -252q0 -299 -303 -364v-6q171 -35 244 -118t73 -238v-312h119v-463h-98v369h-123v403z" />
    <glyph glyph-name="uni0507" unicode="&#x507;" horiz-adv-x="983" 
d="M713 319q0 213 -314 213h-147v86h135q295 0 295 203q0 97 -68 148t-198 51t-293 -72l-37 82q174 78 345 78t263 -74t92 -205q0 -189 -194 -241v-6q122 -31 170.5 -95t48.5 -174v-219h119v-463h-99v369h-118v319z" />
    <glyph glyph-name="uni0508" unicode="&#x508;" horiz-adv-x="1907" 
d="M1006 1366h-443l-36 -258q-89 -641 -139.5 -827t-109 -245t-140.5 -59t-138 25v92q62 -22 112 -22t84 31.5t84.5 150.5t196.5 1208h631v-1079q0 -167 61 -237t195 -70q250 0 250 297v475h102v-481q0 -184 -93 -285.5t-269 -101.5t-262 99t-86 302v985z" />
    <glyph glyph-name="uni0509" unicode="&#x509;" horiz-adv-x="1667" 
d="M903 369q0 -301 256 -301q111 0 175.5 71.5t64.5 225.5v335h98v-333q0 -188 -86.5 -287.5t-251.5 -99.5q-354 0 -354 401v614h-354q-30 -400 -73.5 -607t-114 -302.5t-181.5 -95.5q-33 0 -62 8v90q20 -6 50 -6q115 0 184.5 233t107.5 772h541v-718z" />
    <glyph glyph-name="uni050A" unicode="&#x50a;" horiz-adv-x="2023" 
d="M1225 373q0 -153 60.5 -226t195.5 -73q250 0 250 288v486h102v-481q0 -184 -91.5 -285.5t-267.5 -101.5q-352 0 -352 401v338h-813v-719h-102v1462h102v-649h813v649h103v-1089z" />
    <glyph glyph-name="uni050B" unicode="&#x50b;" horiz-adv-x="1802" 
d="M1292 -20q-352 0 -352 401v143h-659v-524h-99v1087h99v-477h659v477h98v-714q0 -305 254 -305q118 0 180 75.5t62 221.5v335h98v-333q0 -189 -87.5 -288t-252.5 -99z" />
    <glyph glyph-name="uni050C" unicode="&#x50c;" horiz-adv-x="1503" 
d="M866 1391q-290 0 -458 -174.5t-168 -484.5t148 -485t402 -175t370 137.5t116 427.5h-410v96h518v-88q0 -665 -587 -665q-313 0 -490.5 200t-177.5 553q0 229 90.5 399t259.5 260.5t394 90.5t409 -78l-39 -94q-183 80 -377 80z" />
    <glyph glyph-name="uni050D" unicode="&#x50d;" horiz-adv-x="1257" 
d="M1153 479q1 -499 -493 -499q-250 0 -395.5 147.5t-145.5 411.5q0 173 70.5 302.5t205.5 198t331 68.5t359 -68l-32 -88q-150 66 -336 66q-234 0 -364 -123.5t-130 -351.5t116 -350.5t333 -122.5q383 0 383 391h-379v86h477v-68z" />
    <glyph glyph-name="uni050E" unicode="&#x50e;" horiz-adv-x="1386" 
d="M10 1366v96h1057v-96h-479v-983q0 -161 62.5 -235t203.5 -74q240 0 240 299v475h102v-481q0 -187 -90 -287t-264 -100q-356 0 -357 401v985h-475z" />
    <glyph glyph-name="uni050F" unicode="&#x50f;" horiz-adv-x="1264" 
d="M862 1001h-362v-618q0 -315 256 -315q239 0 239 305v327h99v-333q0 -188 -86.5 -287.5t-251.5 -99.5q-355 0 -355 401v620h-360v86h821v-86z" />
    <glyph glyph-name="uni0510" unicode="&#x510;" horiz-adv-x="1159" 
d="M227 387q0 -313 443 -313q223 0 399 86v-101q-151 -79 -413 -79t-401.5 104.5t-139.5 300.5q0 146 100.5 245.5t280.5 131.5v6q-166 29 -252 116.5t-86 209.5t57 208.5t162 133.5t237 47q273 0 463 -111l-51 -90q-181 107 -412 107q-154 0 -251 -77t-97 -215t126.5 -214
t346.5 -76h166v-96h-196q-233 0 -357.5 -84.5t-124.5 -239.5z" />
    <glyph glyph-name="uni0511" unicode="&#x511;" horiz-adv-x="928" 
d="M672 618v-86h-140q-169 0 -251 -62t-82 -172q0 -108 87 -168t244 -60q76 0 140 14t174 66v-93q-136 -77 -330 -77t-307 81t-113 226q0 224 248 284v9q-215 63 -215 239q0 133 103 211t283 78t339 -68l-37 -84q-149 64 -297 64q-288 0 -287 -201q0 -201 326 -201h115z" />
    <glyph glyph-name="uni0512" unicode="&#x512;" horiz-adv-x="1395" 
d="M1085 1366h-530q-96 -797 -146 -1001t-101 -296t-191 -92q-67 0 -117 25v92q61 -22 113 -22q87 0 153.5 148t202.5 1242h719v-1368h119v-244q0 -104 -46 -161.5t-137 -57.5q-56 0 -98 21v92q45 -18 84 -18q98 0 98 124v150h-123v1366z" />
    <glyph glyph-name="uni0513" unicode="&#x513;" horiz-adv-x="1116" 
d="M836 995h-385q-30 -395 -73.5 -602.5t-112 -305t-177.5 -97.5q-39 0 -68 8v90q19 -6 54 -6q113 0 182.5 238.5t105.5 766.5h572v-993h119v-244q0 -104 -46 -161.5t-137 -57.5q-56 0 -98 21v92q45 -18 84 -18q98 0 98 124v150h-118v995z" />
    <glyph glyph-name="uni1E00" unicode="&#x1e00;" horiz-adv-x="1229" 
d="M354 608h523l-199 527q-25 62 -60 172q-27 -96 -59 -174zM911 516h-594l-204 -516h-113l588 1468h65l576 -1468h-115zM477 -340q-1 -64 37 -102t100 -37q62 -1 100 37t37 103q0 65 -39 103q-40 38 -100 37q-60 0 -98 -38q-38 -39 -37 -103zM831 -340q0 -95 -60 -153
t-157 -58t-157 58q-60 57 -60 153t60 154t157 59q97 0 157 -59t60 -154z" />
    <glyph glyph-name="uni1E01" unicode="&#x1e01;" horiz-adv-x="1085" 
d="M442 70q174 0 274 100t101 276v107l-190 -8q-229 -11 -327 -71t-97 -176t63 -172t176 -56zM415 -20q-139 0 -228 82t-89 234t132 240t384 93l207 6v72q0 155 -63 234q-62 79 -208 79t-308 -84l-37 86q179 84 356 84t265 -93t89 -290v-723h-73l-25 172h-8
q-83 -104 -169 -148t-225 -44zM383 -340q-1 -64 37 -102t100 -37q62 -1 100 37t37 103q0 65 -39 103q-40 38 -100 37q-60 0 -98 -38q-38 -39 -37 -103zM737 -340q0 -95 -60 -153t-157 -58t-157 58q-60 57 -60 153t60 154t157 59q97 0 157 -59t60 -154z" />
    <glyph glyph-name="uni1E3E" unicode="&#x1e3e;" horiz-adv-x="1767" 
d="M305 1096v-1096h-98v1462h158l518 -1286h6l518 1286h154v-1462h-103v1108q0 116 12 240h-8l-547 -1348h-65l-545 1350h-8q8 -124 8 -254zM778 1581v16q72 79 144 171t98 141h141v-17q-81 -117 -313 -311h-70z" />
    <glyph glyph-name="uni1E3F" unicode="&#x1e3f;" horiz-adv-x="1808" 
d="M1540 0v713q0 159 -62 232t-210 73q-308 0 -307 -381v-637h-101v743q0 275 -252 275q-171 0 -249 -100t-78 -318v-600h-99v1087h82l21 -149h6q45 82 128 126t183 44q257 0 330 -193h4q52 93 142 143t204 50q178 0 267 -95t89 -302v-711h-98zM837 1241v16q73 79 145 171
t97 141h141v-17q-81 -117 -313 -311h-70z" />
    <glyph glyph-name="Wgrave" unicode="&#x1e80;" horiz-adv-x="1827" 
d="M1372 0h-84l-321 1128q-40 139 -60 228q-15 -87 -45 -200t-323 -1156h-86l-402 1462h107l256 -942q15 -58 28 -106q40 -148 58 -252q24 136 102 413l250 887h113l293 -1018q51 -176 73 -284q13 72 33 153t309 1149h103zM1028 1579h-69q-97 79 -189 171t-125 140v17h142
q27 -48 99 -142t142 -170v-16z" />
    <glyph glyph-name="wgrave" unicode="&#x1e81;" horiz-adv-x="1481" 
d="M1051 0l-238 727q-23 74 -59 217h-6l-66 -219l-242 -725h-98l-311 1087h106l174 -630q61 -234 80 -344h6q59 234 86 311l224 663h90l213 -661q72 -235 88 -311h6q8 65 80 348l166 624h100l-295 -1087h-104zM864 1241h-69q-97 79 -189 171t-125 140v17h142q27 -48 99 -142
t142 -170v-16z" />
    <glyph glyph-name="Wacute" unicode="&#x1e82;" horiz-adv-x="1827" 
d="M1372 0h-84l-321 1128q-40 139 -60 228q-15 -87 -45 -200t-323 -1156h-86l-402 1462h107l256 -942q15 -58 28 -106q40 -148 58 -252q24 136 102 413l250 887h113l293 -1018q51 -176 73 -284q13 72 33 153t309 1149h103zM815 1579v16q73 79 145 171t97 141h141v-17
q-81 -117 -313 -311h-70z" />
    <glyph glyph-name="wacute" unicode="&#x1e83;" horiz-adv-x="1481" 
d="M1051 0l-238 727q-23 74 -59 217h-6l-66 -219l-242 -725h-98l-311 1087h106l174 -630q61 -234 80 -344h6q59 234 86 311l224 663h90l213 -661q72 -235 88 -311h6q8 65 80 348l166 624h100l-295 -1087h-104zM661 1241v16q73 79 145 171t97 141h141v-17q-81 -117 -313 -311
h-70z" />
    <glyph glyph-name="Wdieresis" unicode="&#x1e84;" horiz-adv-x="1827" 
d="M1372 0h-84l-321 1128q-40 139 -60 228q-15 -87 -45 -200t-323 -1156h-86l-402 1462h107l256 -942q15 -58 28 -106q40 -148 58 -252q24 136 102 413l250 887h113l293 -1018q51 -176 73 -284q13 72 33 153t309 1149h103zM1036 1727q0 86 64 86t63 -86q1 -86 -63 -86
t-64 86zM655 1727q-1 86 63 86t64 -86t-64 -86t-63 86z" />
    </font>
</defs>
</svg>
